<svg width="270" height="42" viewBox="0 0 270 42" fill="none" xmlns="http://www.w3.org/2000/svg">
<g filter="url(#filter0_dddd_50_2123)">
<mask id="path-1-outside-1_50_2123" maskUnits="userSpaceOnUse" x="2.5" y="1.5" width="266" height="38" fill="black">
<rect fill="white" x="2.5" y="1.5" width="266" height="38"/>
<path d="M4.92969 35.25V6.07031C4.92969 5.46094 5.14844 4.94531 5.58594 4.52344C6.02344 4.10156 6.54688 3.89062 7.15625 3.89062H34.1797C34.7891 3.89062 35.3047 4.10937 35.7266 4.54688C36.1641 4.98438 36.3828 5.50781 36.3828 6.11719V8.32031C36.3828 8.92969 36.1641 9.45312 35.7266 9.89062C35.3047 10.3125 34.7891 10.5234 34.1797 10.5234H13.7656V18.7734H30.3828C30.9922 18.7734 31.5078 18.9922 31.9297 19.4297C32.3672 19.8672 32.5859 20.3828 32.5859 20.9766V23.2031C32.5859 23.8125 32.3672 24.3359 31.9297 24.7734C31.5078 25.1953 30.9922 25.4062 30.3828 25.4062H13.7656V35.25C13.7656 35.8906 13.5469 36.4297 13.1094 36.8672C12.6875 37.2891 12.1719 37.5 11.5625 37.5H7.15625C6.54688 37.5 6.02344 37.2891 5.58594 36.8672C5.14844 36.4297 4.92969 35.8906 4.92969 35.25ZM35.8203 35.3438L41.7031 13.0312C43.2969 6.95312 48.4844 3.90625 57.2656 3.89062H69.8984C70.4766 3.89062 70.9531 4.10937 71.3281 4.54688C71.7188 4.98438 71.9141 5.49219 71.9141 6.07031V35.3438C71.9141 35.9531 71.6953 36.4688 71.2578 36.8906C70.8203 37.2969 70.2969 37.5 69.6875 37.5H65.2812C64.6406 37.5 64.1094 37.2969 63.6875 36.8906C63.2812 36.4688 63.0781 35.9375 63.0781 35.2969V29.3906H46.4141L44.8438 35.2969C44.6875 35.9375 44.3359 36.4688 43.7891 36.8906C43.2422 37.2969 42.6641 37.5 42.0547 37.5H37.4375C36.8281 37.5 36.3906 37.3281 36.125 36.9844C35.8594 36.625 35.7266 36.3125 35.7266 36.0469C35.7422 35.7812 35.7734 35.5469 35.8203 35.3438ZM48.1484 22.7578H63.0781V10.5234H56.3984C54.8984 10.5234 53.5859 10.9531 52.4609 11.8125C51.3516 12.6562 50.6016 13.7969 50.2109 15.2344L48.1484 22.7578ZM78.6172 35.2969V6.11719C78.6172 5.50781 78.8281 4.98438 79.25 4.54688C79.6719 4.10937 80.1875 3.89062 80.7969 3.89062H87.6875C88.2344 3.89062 88.8125 4.10937 89.4219 4.54688C90.0312 4.98438 90.5312 5.50781 90.9219 6.11719L105.078 27.8906V6.07031C105.078 5.46094 105.289 4.94531 105.711 4.52344C106.148 4.10156 106.672 3.89062 107.281 3.89062H111.312C111.922 3.89062 112.438 4.10156 112.859 4.52344C113.297 4.94531 113.516 5.47656 113.516 6.11719V35.2969C113.516 35.9062 113.297 36.4297 112.859 36.8672C112.438 37.2891 111.922 37.5 111.312 37.5H103.531C102.922 37.5 102.297 37.2891 101.656 36.8672C101.016 36.4297 100.508 35.9062 100.133 35.2969L87.1719 15.1875V35.2969C87.1719 35.9062 86.9531 36.4297 86.5156 36.8672C86.0938 37.2891 85.5781 37.5 84.9688 37.5H80.8438C80.2344 37.5 79.7109 37.2891 79.2734 36.8672C78.8359 36.4297 78.6172 35.9062 78.6172 35.2969ZM120.242 35.2969V6.11719C120.242 5.50781 120.453 4.98438 120.875 4.54688C121.297 4.10937 121.812 3.89062 122.422 3.89062H140.305C149.758 3.89062 154.484 8.25 154.484 16.9688C154.484 25.6719 149.758 30.0234 140.305 30.0234H129.078V35.2969C129.078 35.9062 128.859 36.4297 128.422 36.8672C128 37.2891 127.484 37.5 126.875 37.5H122.469C121.859 37.5 121.336 37.2891 120.898 36.8672C120.461 36.4297 120.242 35.9062 120.242 35.2969ZM129.078 23.3906H137.633C140.258 23.3906 142.25 22.9531 143.609 22.0781C144.969 21.1875 145.648 19.4844 145.648 16.9688C145.648 14.4375 144.969 12.7344 143.609 11.8594C142.25 10.9688 140.258 10.5234 137.633 10.5234H129.078V23.3906ZM158.82 35.3438V6.16406C158.82 5.52344 159.039 4.98438 159.477 4.54688C159.914 4.10937 160.438 3.89062 161.047 3.89062H165.453C166.062 3.89062 166.578 4.10937 167 4.54688C167.438 4.98438 167.656 5.52344 167.656 6.16406V30.8672H188.07C188.68 30.8672 189.195 31.0859 189.617 31.5234C190.055 31.9609 190.273 32.4844 190.273 33.0938V35.2969C190.273 35.9062 190.055 36.4297 189.617 36.8672C189.195 37.2891 188.68 37.5 188.07 37.5H161.047C160.438 37.5 159.914 37.2969 159.477 36.8906C159.039 36.4688 158.82 35.9531 158.82 35.3438ZM191.352 35.3438L197.234 13.0312C198.828 6.95312 204.016 3.90625 212.797 3.89062H225.43C226.008 3.89062 226.484 4.10937 226.859 4.54688C227.25 4.98438 227.445 5.49219 227.445 6.07031V35.3438C227.445 35.9531 227.227 36.4688 226.789 36.8906C226.352 37.2969 225.828 37.5 225.219 37.5H220.812C220.172 37.5 219.641 37.2969 219.219 36.8906C218.812 36.4688 218.609 35.9375 218.609 35.2969V29.3906H201.945L200.375 35.2969C200.219 35.9375 199.867 36.4688 199.32 36.8906C198.773 37.2969 198.195 37.5 197.586 37.5H192.969C192.359 37.5 191.922 37.3281 191.656 36.9844C191.391 36.625 191.258 36.3125 191.258 36.0469C191.273 35.7812 191.305 35.5469 191.352 35.3438ZM203.68 22.7578H218.609V10.5234H211.93C210.43 10.5234 209.117 10.9531 207.992 11.8125C206.883 12.6562 206.133 13.7969 205.742 15.2344L203.68 22.7578ZM231.266 5.01562C231.266 4.26562 231.672 3.89062 232.484 3.89062H236.938C238.703 3.89062 240.062 4.63281 241.016 6.11719L248.609 17.8125L256.18 6.11719C257.148 4.63281 258.508 3.89062 260.258 3.89062H264.734C265.531 3.89062 265.93 4.26562 265.93 5.01562C265.93 5.35938 265.805 5.72656 265.555 6.11719L253.016 25.5V35.3438C253.016 35.9531 252.797 36.4688 252.359 36.8906C251.938 37.2969 251.422 37.5 250.812 37.5H246.406C245.797 37.5 245.273 37.2969 244.836 36.8906C244.398 36.4688 244.18 35.9531 244.18 35.3438V25.5L231.664 6.11719C231.398 5.72656 231.266 5.35938 231.266 5.01562Z"/>
</mask>
<path d="M4.92969 35.25V6.07031C4.92969 5.46094 5.14844 4.94531 5.58594 4.52344C6.02344 4.10156 6.54688 3.89062 7.15625 3.89062H34.1797C34.7891 3.89062 35.3047 4.10937 35.7266 4.54688C36.1641 4.98438 36.3828 5.50781 36.3828 6.11719V8.32031C36.3828 8.92969 36.1641 9.45312 35.7266 9.89062C35.3047 10.3125 34.7891 10.5234 34.1797 10.5234H13.7656V18.7734H30.3828C30.9922 18.7734 31.5078 18.9922 31.9297 19.4297C32.3672 19.8672 32.5859 20.3828 32.5859 20.9766V23.2031C32.5859 23.8125 32.3672 24.3359 31.9297 24.7734C31.5078 25.1953 30.9922 25.4062 30.3828 25.4062H13.7656V35.25C13.7656 35.8906 13.5469 36.4297 13.1094 36.8672C12.6875 37.2891 12.1719 37.5 11.5625 37.5H7.15625C6.54688 37.5 6.02344 37.2891 5.58594 36.8672C5.14844 36.4297 4.92969 35.8906 4.92969 35.25ZM35.8203 35.3438L41.7031 13.0312C43.2969 6.95312 48.4844 3.90625 57.2656 3.89062H69.8984C70.4766 3.89062 70.9531 4.10937 71.3281 4.54688C71.7188 4.98438 71.9141 5.49219 71.9141 6.07031V35.3438C71.9141 35.9531 71.6953 36.4688 71.2578 36.8906C70.8203 37.2969 70.2969 37.5 69.6875 37.5H65.2812C64.6406 37.5 64.1094 37.2969 63.6875 36.8906C63.2812 36.4688 63.0781 35.9375 63.0781 35.2969V29.3906H46.4141L44.8438 35.2969C44.6875 35.9375 44.3359 36.4688 43.7891 36.8906C43.2422 37.2969 42.6641 37.5 42.0547 37.5H37.4375C36.8281 37.5 36.3906 37.3281 36.125 36.9844C35.8594 36.625 35.7266 36.3125 35.7266 36.0469C35.7422 35.7812 35.7734 35.5469 35.8203 35.3438ZM48.1484 22.7578H63.0781V10.5234H56.3984C54.8984 10.5234 53.5859 10.9531 52.4609 11.8125C51.3516 12.6562 50.6016 13.7969 50.2109 15.2344L48.1484 22.7578ZM78.6172 35.2969V6.11719C78.6172 5.50781 78.8281 4.98438 79.25 4.54688C79.6719 4.10937 80.1875 3.89062 80.7969 3.89062H87.6875C88.2344 3.89062 88.8125 4.10937 89.4219 4.54688C90.0312 4.98438 90.5312 5.50781 90.9219 6.11719L105.078 27.8906V6.07031C105.078 5.46094 105.289 4.94531 105.711 4.52344C106.148 4.10156 106.672 3.89062 107.281 3.89062H111.312C111.922 3.89062 112.438 4.10156 112.859 4.52344C113.297 4.94531 113.516 5.47656 113.516 6.11719V35.2969C113.516 35.9062 113.297 36.4297 112.859 36.8672C112.438 37.2891 111.922 37.5 111.312 37.5H103.531C102.922 37.5 102.297 37.2891 101.656 36.8672C101.016 36.4297 100.508 35.9062 100.133 35.2969L87.1719 15.1875V35.2969C87.1719 35.9062 86.9531 36.4297 86.5156 36.8672C86.0938 37.2891 85.5781 37.5 84.9688 37.5H80.8438C80.2344 37.5 79.7109 37.2891 79.2734 36.8672C78.8359 36.4297 78.6172 35.9062 78.6172 35.2969ZM120.242 35.2969V6.11719C120.242 5.50781 120.453 4.98438 120.875 4.54688C121.297 4.10937 121.812 3.89062 122.422 3.89062H140.305C149.758 3.89062 154.484 8.25 154.484 16.9688C154.484 25.6719 149.758 30.0234 140.305 30.0234H129.078V35.2969C129.078 35.9062 128.859 36.4297 128.422 36.8672C128 37.2891 127.484 37.5 126.875 37.5H122.469C121.859 37.5 121.336 37.2891 120.898 36.8672C120.461 36.4297 120.242 35.9062 120.242 35.2969ZM129.078 23.3906H137.633C140.258 23.3906 142.25 22.9531 143.609 22.0781C144.969 21.1875 145.648 19.4844 145.648 16.9688C145.648 14.4375 144.969 12.7344 143.609 11.8594C142.25 10.9688 140.258 10.5234 137.633 10.5234H129.078V23.3906ZM158.82 35.3438V6.16406C158.82 5.52344 159.039 4.98438 159.477 4.54688C159.914 4.10937 160.438 3.89062 161.047 3.89062H165.453C166.062 3.89062 166.578 4.10937 167 4.54688C167.438 4.98438 167.656 5.52344 167.656 6.16406V30.8672H188.07C188.68 30.8672 189.195 31.0859 189.617 31.5234C190.055 31.9609 190.273 32.4844 190.273 33.0938V35.2969C190.273 35.9062 190.055 36.4297 189.617 36.8672C189.195 37.2891 188.68 37.5 188.07 37.5H161.047C160.438 37.5 159.914 37.2969 159.477 36.8906C159.039 36.4688 158.82 35.9531 158.82 35.3438ZM191.352 35.3438L197.234 13.0312C198.828 6.95312 204.016 3.90625 212.797 3.89062H225.43C226.008 3.89062 226.484 4.10937 226.859 4.54688C227.25 4.98438 227.445 5.49219 227.445 6.07031V35.3438C227.445 35.9531 227.227 36.4688 226.789 36.8906C226.352 37.2969 225.828 37.5 225.219 37.5H220.812C220.172 37.5 219.641 37.2969 219.219 36.8906C218.812 36.4688 218.609 35.9375 218.609 35.2969V29.3906H201.945L200.375 35.2969C200.219 35.9375 199.867 36.4688 199.32 36.8906C198.773 37.2969 198.195 37.5 197.586 37.5H192.969C192.359 37.5 191.922 37.3281 191.656 36.9844C191.391 36.625 191.258 36.3125 191.258 36.0469C191.273 35.7812 191.305 35.5469 191.352 35.3438ZM203.68 22.7578H218.609V10.5234H211.93C210.43 10.5234 209.117 10.9531 207.992 11.8125C206.883 12.6562 206.133 13.7969 205.742 15.2344L203.68 22.7578ZM231.266 5.01562C231.266 4.26562 231.672 3.89062 232.484 3.89062H236.938C238.703 3.89062 240.062 4.63281 241.016 6.11719L248.609 17.8125L256.18 6.11719C257.148 4.63281 258.508 3.89062 260.258 3.89062H264.734C265.531 3.89062 265.93 4.26562 265.93 5.01562C265.93 5.35938 265.805 5.72656 265.555 6.11719L253.016 25.5V35.3438C253.016 35.9531 252.797 36.4688 252.359 36.8906C251.938 37.2969 251.422 37.5 250.812 37.5H246.406C245.797 37.5 245.273 37.2969 244.836 36.8906C244.398 36.4688 244.18 35.9531 244.18 35.3438V25.5L231.664 6.11719C231.398 5.72656 231.266 5.35938 231.266 5.01562Z" fill="white"/>
<path d="M35.7266 4.54688L34.2869 5.93515L34.2995 5.94823L34.3123 5.96109L35.7266 4.54688ZM13.7656 10.5234V8.52344H11.7656V10.5234H13.7656ZM13.7656 18.7734H11.7656V20.7734H13.7656V18.7734ZM31.9297 19.4297L30.49 20.818L30.5026 20.831L30.5155 20.8439L31.9297 19.4297ZM13.7656 25.4062V23.4062H11.7656V25.4062H13.7656ZM5.58594 36.8672L4.17172 38.2814L4.18458 38.2943L4.19767 38.3069L5.58594 36.8672ZM6.92969 35.25V6.07031H2.92969V35.25H6.92969ZM6.92969 6.07031C6.92969 6.03805 6.93254 6.01978 6.93393 6.0126C6.93525 6.00582 6.93599 6.00513 6.93491 6.00766C6.93384 6.0102 6.93369 6.00949 6.93729 6.00435C6.94112 5.99887 6.95174 5.98479 6.97421 5.96313L4.19767 3.08375C3.36809 3.8837 2.92969 4.91952 2.92969 6.07031H6.92969ZM6.97421 5.96313C7.02239 5.91666 7.04856 5.90614 7.05419 5.90387C7.05993 5.90156 7.08713 5.89062 7.15625 5.89062V1.89062C6.03056 1.89062 5.00903 2.30136 4.19767 3.08375L6.97421 5.96313ZM7.15625 5.89062H34.1797V1.89062H7.15625V5.89062ZM34.1797 5.89062C34.212 5.89062 34.2302 5.89347 34.2374 5.89487C34.2442 5.89619 34.2449 5.89692 34.2423 5.89585C34.2398 5.89478 34.2405 5.89463 34.2457 5.89823C34.2511 5.90206 34.2652 5.91268 34.2869 5.93515L37.1663 3.1586C36.3663 2.32903 35.3305 1.89062 34.1797 1.89062V5.89062ZM34.3123 5.96109C34.3637 6.01241 34.3733 6.0384 34.3734 6.03876C34.3744 6.04124 34.3762 6.04596 34.3781 6.05547C34.38 6.06531 34.3828 6.08499 34.3828 6.11719H38.3828C38.3828 4.96832 37.9469 3.93878 37.1408 3.13266L34.3123 5.96109ZM34.3828 6.11719V8.32031H38.3828V6.11719H34.3828ZM34.3828 8.32031C34.3828 8.35251 34.38 8.37219 34.3781 8.38203C34.3762 8.39154 34.3744 8.39626 34.3734 8.39874C34.3733 8.3991 34.3637 8.42509 34.3123 8.47641L37.1408 11.3048C37.9469 10.4987 38.3828 9.46918 38.3828 8.32031H34.3828ZM34.3123 8.47641C34.2924 8.4964 34.2792 8.50602 34.2736 8.50978C34.2683 8.51336 34.2663 8.51409 34.2662 8.51414C34.266 8.51422 34.2617 8.51605 34.2506 8.51814C34.239 8.52031 34.2163 8.52344 34.1797 8.52344V12.5234C35.3068 12.5234 36.3349 12.1107 37.1408 11.3048L34.3123 8.47641ZM34.1797 8.52344H13.7656V12.5234H34.1797V8.52344ZM11.7656 10.5234V18.7734H15.7656V10.5234H11.7656ZM13.7656 20.7734H30.3828V16.7734H13.7656V20.7734ZM30.3828 20.7734C30.4151 20.7734 30.4333 20.7763 30.4405 20.7777C30.4473 20.779 30.448 20.7797 30.4455 20.7787C30.4429 20.7776 30.4436 20.7774 30.4488 20.781C30.4543 20.7849 30.4683 20.7955 30.49 20.818L33.3694 18.0414C32.5694 17.2118 31.5336 16.7734 30.3828 16.7734V20.7734ZM30.5155 20.8439C30.5447 20.8731 30.5611 20.8944 30.5695 20.9067C30.5777 20.9186 30.5803 20.9247 30.5807 20.9256C30.5811 20.9265 30.5818 20.9281 30.5827 20.9328C30.5837 20.9378 30.5859 20.9515 30.5859 20.9766H34.5859C34.5859 19.828 34.1389 18.8105 33.3439 18.0155L30.5155 20.8439ZM30.5859 20.9766V23.2031H34.5859V20.9766H30.5859ZM30.5859 23.2031C30.5859 23.2353 30.5831 23.255 30.5812 23.2648C30.5794 23.2743 30.5776 23.2791 30.5765 23.2815C30.5764 23.2819 30.5668 23.3079 30.5155 23.3592L33.3439 26.1877C34.15 25.3815 34.5859 24.352 34.5859 23.2031H30.5859ZM30.5155 23.3592C30.4955 23.3792 30.4823 23.3888 30.4768 23.3926C30.4715 23.3962 30.4694 23.3969 30.4693 23.397C30.4691 23.397 30.4648 23.3989 30.4537 23.401C30.4422 23.4031 30.4194 23.4062 30.3828 23.4062V27.4062C31.5099 27.4062 32.5381 26.9935 33.3439 26.1877L30.5155 23.3592ZM30.3828 23.4062H13.7656V27.4062H30.3828V23.4062ZM11.7656 25.4062V35.25H15.7656V25.4062H11.7656ZM11.7656 35.25C11.7656 35.3387 11.7514 35.3752 11.7483 35.3827C11.7458 35.3889 11.737 35.4112 11.6952 35.453L14.5236 38.2814C15.3507 37.4543 15.7656 36.4001 15.7656 35.25H11.7656ZM11.6952 35.453C11.6752 35.473 11.662 35.4826 11.6564 35.4863C11.6511 35.4899 11.6491 35.4907 11.649 35.4907C11.6488 35.4908 11.6445 35.4926 11.6334 35.4947C11.6218 35.4969 11.5991 35.5 11.5625 35.5V39.5C12.6896 39.5 13.7177 39.0872 14.5236 38.2814L11.6952 35.453ZM11.5625 35.5H7.15625V39.5H11.5625V35.5ZM7.15625 35.5C7.08713 35.5 7.05993 35.4891 7.05419 35.4868C7.04856 35.4845 7.02239 35.474 6.97421 35.4275L4.19767 38.3069C5.00903 39.0893 6.03056 39.5 7.15625 39.5V35.5ZM7.00015 35.453C6.95836 35.4112 6.94948 35.3889 6.94698 35.3827C6.94391 35.3752 6.92969 35.3387 6.92969 35.25H2.92969C2.92969 36.4001 3.34457 37.4543 4.17172 38.2814L7.00015 35.453ZM35.8203 35.3438L33.8864 34.8339L33.8785 34.8638L33.8715 34.894L35.8203 35.3438ZM41.7031 13.0312L43.637 13.5411L43.6377 13.5385L41.7031 13.0312ZM57.2656 3.89062V1.89062L57.2621 1.89063L57.2656 3.89062ZM71.3281 4.54688L69.8096 5.84846L69.8228 5.86382L69.8363 5.87891L71.3281 4.54688ZM71.2578 36.8906L72.6187 38.3562L72.6325 38.3434L72.6461 38.3303L71.2578 36.8906ZM63.6875 36.8906L62.2469 38.2779L62.273 38.3051L62.3002 38.3313L63.6875 36.8906ZM63.0781 29.3906H65.0781V27.3906H63.0781V29.3906ZM46.4141 29.3906V27.3906H44.8763L44.4812 28.8767L46.4141 29.3906ZM44.8438 35.2969L42.9109 34.783L42.9056 34.8029L42.9007 34.823L44.8438 35.2969ZM43.7891 36.8906L44.9817 38.4961L44.9963 38.4853L45.0107 38.4742L43.7891 36.8906ZM36.125 36.9844L34.5166 38.1732L34.5294 38.1903L34.5424 38.2073L36.125 36.9844ZM35.7266 36.0469L33.73 35.9294L33.7266 35.9881V36.0469H35.7266ZM48.1484 22.7578L46.2196 22.229L45.5264 24.7578H48.1484V22.7578ZM63.0781 22.7578V24.7578H65.0781V22.7578H63.0781ZM63.0781 10.5234H65.0781V8.52344H63.0781V10.5234ZM52.4609 11.8125L53.6717 13.4044L53.675 13.4018L52.4609 11.8125ZM50.2109 15.2344L52.1398 15.7632L52.1409 15.7588L50.2109 15.2344ZM37.7542 35.8536L43.637 13.5411L39.7692 12.5214L33.8864 34.8339L37.7542 35.8536ZM43.6377 13.5385C44.3071 10.9858 45.6864 9.15459 47.802 7.91203C49.9804 6.63251 53.0807 5.89808 57.2692 5.89062L57.2621 1.89063C52.6693 1.8988 48.7852 2.69561 45.7762 4.46296C42.7042 6.26728 40.6929 8.99858 39.7685 12.524L43.6377 13.5385ZM57.2656 5.89062H69.8984V1.89062H57.2656V5.89062ZM69.8984 5.89062C69.9164 5.89062 69.918 5.89227 69.9068 5.88996C69.8951 5.88753 69.8766 5.88221 69.8551 5.87235C69.8336 5.86247 69.8171 5.85175 69.807 5.84393C69.7973 5.83647 69.7988 5.83582 69.8096 5.84846L72.8466 3.24529C72.0902 2.36281 71.0582 1.89062 69.8984 1.89062V5.89062ZM69.8363 5.87891C69.8832 5.93144 69.8966 5.96261 69.9009 5.97382C69.905 5.98457 69.9141 6.01121 69.9141 6.07031H73.9141C73.9141 4.99302 73.5326 4.01299 72.82 3.21484L69.8363 5.87891ZM69.9141 6.07031V35.3438H73.9141V6.07031H69.9141ZM69.9141 35.3438C69.9141 35.376 69.9112 35.3943 69.9098 35.4015C69.9085 35.4082 69.9078 35.4089 69.9088 35.4064C69.9099 35.4039 69.9101 35.4046 69.9065 35.4097C69.9026 35.4152 69.892 35.4293 69.8695 35.4509L72.6461 38.3303C73.4757 37.5304 73.9141 36.4945 73.9141 35.3438H69.9141ZM69.8969 35.425C69.8516 35.4671 69.8249 35.4787 69.8136 35.4831C69.8015 35.4878 69.7659 35.5 69.6875 35.5V39.5C70.7901 39.5 71.8029 39.1138 72.6187 38.3562L69.8969 35.425ZM69.6875 35.5H65.2812V39.5H69.6875V35.5ZM65.2812 35.5C65.1744 35.5 65.1272 35.4836 65.1166 35.4796C65.1093 35.4767 65.0982 35.4726 65.0748 35.45L62.3002 38.3313C63.1313 39.1316 64.1764 39.5 65.2812 39.5V35.5ZM65.1281 35.5033C65.1056 35.4799 65.1014 35.4689 65.0986 35.4615C65.0945 35.4509 65.0781 35.4037 65.0781 35.2969H61.0781C61.0781 36.4018 61.4465 37.4468 62.2469 38.2779L65.1281 35.5033ZM65.0781 35.2969V29.3906H61.0781V35.2969H65.0781ZM63.0781 27.3906H46.4141V31.3906H63.0781V27.3906ZM44.4812 28.8767L42.9109 34.783L46.7766 35.8108L48.3469 29.9045L44.4812 28.8767ZM42.9007 34.823C42.8574 35.0005 42.7733 35.1483 42.5675 35.3071L45.0107 38.4742C45.8986 37.7892 46.5176 36.8745 46.7868 35.7708L42.9007 34.823ZM42.5964 35.2851C42.3517 35.4669 42.1842 35.5 42.0547 35.5V39.5C43.144 39.5 44.1327 39.1268 44.9817 38.4961L42.5964 35.2851ZM42.0547 35.5H37.4375V39.5H42.0547V35.5ZM37.4375 35.5C37.3125 35.5 37.3117 35.4813 37.3836 35.5096C37.4224 35.5248 37.4775 35.552 37.5392 35.5972C37.6016 35.6429 37.6592 35.6989 37.7076 35.7615L34.5424 38.2073C35.3233 39.2178 36.4728 39.5 37.4375 39.5V35.5ZM37.7334 35.7956C37.6662 35.7047 37.6562 35.6733 37.6668 35.6982C37.6775 35.7232 37.7266 35.8473 37.7266 36.0469H33.7266C33.7266 36.9452 34.1537 37.6821 34.5166 38.1732L37.7334 35.7956ZM37.7231 36.1643C37.7339 35.9816 37.7532 35.8623 37.7691 35.7935L33.8715 34.894C33.7937 35.2314 33.7505 35.5809 33.73 35.9294L37.7231 36.1643ZM48.1484 24.7578H63.0781V20.7578H48.1484V24.7578ZM65.0781 22.7578V10.5234H61.0781V22.7578H65.0781ZM63.0781 8.52344H56.3984V12.5234H63.0781V8.52344ZM56.3984 8.52344C54.4876 8.52344 52.7421 9.08095 51.2469 10.2232L53.675 13.4018C54.4298 12.8253 55.3093 12.5234 56.3984 12.5234V8.52344ZM51.2502 10.2206C49.7651 11.3501 48.7787 12.8783 48.2809 14.7099L52.1409 15.7588C52.4245 14.7155 52.938 13.9624 53.6717 13.4044L51.2502 10.2206ZM48.2821 14.7056L46.2196 22.229L50.0773 23.2866L52.1398 15.7632L48.2821 14.7056ZM90.9219 6.11719L89.2381 7.19654L89.2451 7.20735L90.9219 6.11719ZM105.078 27.8906L103.401 28.9808L107.078 34.6359V27.8906H105.078ZM105.711 4.52344L104.323 3.08375L104.31 3.09637L104.297 3.10922L105.711 4.52344ZM112.859 4.52344L111.445 5.93765L111.458 5.95051L111.471 5.96313L112.859 4.52344ZM101.656 36.8672L100.528 38.5188L100.542 38.5283L100.556 38.5375L101.656 36.8672ZM100.133 35.2969L101.836 34.2487L101.825 34.2309L101.814 34.2134L100.133 35.2969ZM87.1719 15.1875L88.853 14.104L85.1719 8.39267V15.1875H87.1719ZM79.2734 36.8672L77.8592 38.2814L77.8721 38.2943L77.8852 38.3069L79.2734 36.8672ZM80.6172 35.2969V6.11719H76.6172V35.2969H80.6172ZM80.6172 6.11719C80.6172 6.04807 80.6281 6.02086 80.6304 6.01513C80.6327 6.0095 80.6432 5.98333 80.6897 5.93515L77.8103 3.1586C77.0279 3.96997 76.6172 4.9915 76.6172 6.11719H80.6172ZM80.6897 5.93515C80.7113 5.91268 80.7254 5.90206 80.7309 5.89823C80.7361 5.89463 80.7368 5.89478 80.7342 5.89585C80.7317 5.89692 80.7324 5.89619 80.7392 5.89487C80.7463 5.89347 80.7646 5.89062 80.7969 5.89062V1.89062C79.6461 1.89062 78.6103 2.32903 77.8103 3.1586L80.6897 5.93515ZM80.7969 5.89062H87.6875V1.89062H80.7969V5.89062ZM87.6875 5.89062C87.6897 5.89062 87.7313 5.8904 87.8235 5.92526C87.9193 5.96152 88.0633 6.03355 88.2555 6.17152L90.5883 2.92223C89.7626 2.3294 88.7829 1.89062 87.6875 1.89062V5.89062ZM88.2555 6.17152C88.6671 6.46704 88.9889 6.80772 89.2381 7.19652L92.6056 5.03786C92.0736 4.2079 91.3954 3.50171 90.5883 2.92223L88.2555 6.17152ZM89.2451 7.20735L103.401 28.9808L106.755 26.8005L92.5986 5.02702L89.2451 7.20735ZM107.078 27.8906V6.07031H103.078V27.8906H107.078ZM107.078 6.07031C107.078 6.03369 107.081 6.01097 107.083 5.99944C107.086 5.98829 107.087 5.98401 107.087 5.98383C107.087 5.98371 107.088 5.98167 107.092 5.97637C107.096 5.97079 107.105 5.95764 107.125 5.93765L104.297 3.10922C103.491 3.91506 103.078 4.94321 103.078 6.07031H107.078ZM107.099 5.96313C107.147 5.91666 107.174 5.90614 107.179 5.90387C107.185 5.90156 107.212 5.89062 107.281 5.89062V1.89062C106.156 1.89062 105.134 2.30136 104.323 3.08375L107.099 5.96313ZM107.281 5.89062H111.312V1.89062H107.281V5.89062ZM111.312 5.89062C111.349 5.89062 111.372 5.89376 111.383 5.89592C111.395 5.89801 111.399 5.89985 111.399 5.89992C111.399 5.89997 111.401 5.9007 111.406 5.90428C111.412 5.90804 111.425 5.91766 111.445 5.93765L114.274 3.10922C113.468 2.30338 112.44 1.89062 111.312 1.89062V5.89062ZM111.471 5.96313C111.489 5.98035 111.497 5.99105 111.499 5.99455C111.501 5.9978 111.502 5.99894 111.502 5.99978C111.503 6.00078 111.506 6.00784 111.509 6.02422C111.512 6.04106 111.516 6.07106 111.516 6.11719H115.516C115.516 4.96634 115.099 3.90476 114.248 3.08375L111.471 5.96313ZM111.516 6.11719V35.2969H115.516V6.11719H111.516ZM111.516 35.2969C111.516 35.3291 111.513 35.3487 111.511 35.3586C111.509 35.3681 111.507 35.3728 111.506 35.3753C111.506 35.3757 111.496 35.4016 111.445 35.453L114.274 38.2814C115.08 37.4753 115.516 36.4457 115.516 35.2969H111.516ZM111.445 35.453C111.425 35.473 111.412 35.4826 111.406 35.4863C111.401 35.4899 111.399 35.4907 111.399 35.4907C111.399 35.4908 111.395 35.4926 111.383 35.4947C111.372 35.4969 111.349 35.5 111.312 35.5V39.5C112.44 39.5 113.468 39.0872 114.274 38.2814L111.445 35.453ZM111.312 35.5H103.531V39.5H111.312V35.5ZM103.531 35.5C103.403 35.5 103.155 35.4592 102.756 35.1968L100.556 38.5375C101.439 39.1189 102.441 39.5 103.531 39.5V35.5ZM102.784 35.2156C102.356 34.9231 102.052 34.5991 101.836 34.2487L98.4295 36.3451C98.9638 37.2134 99.6754 37.9363 100.528 38.5188L102.784 35.2156ZM101.814 34.2134L88.853 14.104L85.4908 16.271L98.4517 36.3804L101.814 34.2134ZM85.1719 15.1875V35.2969H89.1719V15.1875H85.1719ZM85.1719 35.2969C85.1719 35.3291 85.169 35.3487 85.1671 35.3586C85.1653 35.3681 85.1635 35.3728 85.1625 35.3753C85.1623 35.3757 85.1527 35.4016 85.1014 35.453L87.9298 38.2814C88.736 37.4753 89.1719 36.4457 89.1719 35.2969H85.1719ZM85.1014 35.453C85.0814 35.473 85.0683 35.4826 85.0627 35.4863C85.0574 35.4899 85.0554 35.4907 85.0552 35.4907C85.0551 35.4908 85.0508 35.4926 85.0396 35.4947C85.0281 35.4969 85.0054 35.5 84.9688 35.5V39.5C86.0958 39.5 87.124 39.0872 87.9298 38.2814L85.1014 35.453ZM84.9688 35.5H80.8438V39.5H84.9688V35.5ZM80.8438 35.5C80.7746 35.5 80.7474 35.4891 80.7417 35.4868C80.7361 35.4845 80.7099 35.474 80.6617 35.4275L77.8852 38.3069C78.6965 39.0893 79.7181 39.5 80.8438 39.5V35.5ZM80.6877 35.453C80.6363 35.4016 80.6267 35.3757 80.6266 35.3753C80.6256 35.3728 80.6238 35.3681 80.6219 35.3586C80.62 35.3487 80.6172 35.3291 80.6172 35.2969H76.6172C76.6172 36.4457 77.0531 37.4753 77.8592 38.2814L80.6877 35.453ZM129.078 30.0234V28.0234H127.078V30.0234H129.078ZM120.898 36.8672L119.484 38.2814L119.497 38.2943L119.51 38.3069L120.898 36.8672ZM129.078 23.3906H127.078V25.3906H129.078V23.3906ZM143.609 22.0781L144.692 23.7599L144.699 23.7555L144.705 23.751L143.609 22.0781ZM143.609 11.8594L142.513 13.5323L142.52 13.5367L142.527 13.5411L143.609 11.8594ZM129.078 10.5234V8.52344H127.078V10.5234H129.078ZM122.242 35.2969V6.11719H118.242V35.2969H122.242ZM122.242 6.11719C122.242 6.04807 122.253 6.02086 122.255 6.01513C122.258 6.0095 122.268 5.98333 122.315 5.93515L119.435 3.1586C118.653 3.96997 118.242 4.9915 118.242 6.11719H122.242ZM122.315 5.93515C122.336 5.91268 122.35 5.90206 122.356 5.89823C122.361 5.89463 122.362 5.89478 122.359 5.89585C122.357 5.89692 122.357 5.89619 122.364 5.89487C122.371 5.89347 122.39 5.89062 122.422 5.89062V1.89062C121.271 1.89062 120.235 2.32903 119.435 3.1586L122.315 5.93515ZM122.422 5.89062H140.305V1.89062H122.422V5.89062ZM140.305 5.89062C144.761 5.89062 147.731 6.9216 149.583 8.63032C151.406 10.3109 152.484 12.9611 152.484 16.9688H156.484C156.484 12.2577 155.2 8.36884 152.295 5.68999C149.421 3.03934 145.301 1.89062 140.305 1.89062V5.89062ZM152.484 16.9688C152.484 20.9676 151.406 23.6115 149.585 25.2884C147.732 26.994 144.762 28.0234 140.305 28.0234V32.0234C145.3 32.0234 149.42 30.8771 152.294 28.2311C155.199 25.5564 156.484 21.673 156.484 16.9688H152.484ZM140.305 28.0234H129.078V32.0234H140.305V28.0234ZM127.078 30.0234V35.2969H131.078V30.0234H127.078ZM127.078 35.2969C127.078 35.3291 127.075 35.3487 127.073 35.3586C127.072 35.3681 127.07 35.3728 127.069 35.3753C127.069 35.3757 127.059 35.4016 127.008 35.453L129.836 38.2814C130.642 37.4753 131.078 36.4457 131.078 35.2969H127.078ZM127.008 35.453C126.988 35.473 126.975 35.4826 126.969 35.4863C126.964 35.4899 126.962 35.4907 126.961 35.4907C126.961 35.4908 126.957 35.4926 126.946 35.4947C126.934 35.4969 126.912 35.5 126.875 35.5V39.5C128.002 39.5 129.03 39.0872 129.836 38.2814L127.008 35.453ZM126.875 35.5H122.469V39.5H126.875V35.5ZM122.469 35.5C122.4 35.5 122.372 35.4891 122.367 35.4868C122.361 35.4845 122.335 35.474 122.287 35.4275L119.51 38.3069C120.322 39.0893 121.343 39.5 122.469 39.5V35.5ZM122.313 35.453C122.261 35.4016 122.252 35.3757 122.252 35.3753C122.251 35.3728 122.249 35.3681 122.247 35.3586C122.245 35.3487 122.242 35.3291 122.242 35.2969H118.242C118.242 36.4457 118.678 37.4753 119.484 38.2814L122.313 35.453ZM129.078 25.3906H137.633V21.3906H129.078V25.3906ZM137.633 25.3906C140.425 25.3906 142.866 24.9351 144.692 23.7599L142.527 20.3964C141.634 20.9712 140.091 21.3906 137.633 21.3906V25.3906ZM144.705 23.751C146.89 22.3197 147.648 19.7714 147.648 16.9688H143.648C143.648 19.1973 143.047 20.0553 142.513 20.4052L144.705 23.751ZM147.648 16.9688C147.648 14.1601 146.895 11.5956 144.692 10.1776L142.527 13.5411C143.043 13.8732 143.648 14.7149 143.648 16.9688H147.648ZM144.705 10.1865C142.876 8.98817 140.429 8.52344 137.633 8.52344V12.5234C140.086 12.5234 141.624 12.9493 142.513 13.5323L144.705 10.1865ZM137.633 8.52344H129.078V12.5234H137.633V8.52344ZM127.078 10.5234V23.3906H131.078V10.5234H127.078ZM167 4.54688L165.56 5.93515L165.573 5.94823L165.586 5.96109L167 4.54688ZM167.656 30.8672H165.656V32.8672H167.656V30.8672ZM189.617 31.5234L188.178 32.9117L188.19 32.9248L188.203 32.9377L189.617 31.5234ZM159.477 36.8906L158.088 38.3303L158.102 38.3434L158.116 38.3562L159.477 36.8906ZM160.82 35.3438V6.16406H156.82V35.3438H160.82ZM160.82 6.16406C160.82 6.07539 160.835 6.03889 160.838 6.03133C160.84 6.02515 160.849 6.00288 160.891 5.96109L158.062 3.13266C157.235 3.95981 156.82 5.01398 156.82 6.16406H160.82ZM160.891 5.96109C160.942 5.90977 160.968 5.90018 160.968 5.90003C160.971 5.89899 160.976 5.8972 160.985 5.89536C160.995 5.89346 161.015 5.89062 161.047 5.89062V1.89062C159.898 1.89062 158.868 2.32654 158.062 3.13266L160.891 5.96109ZM161.047 5.89062H165.453V1.89062H161.047V5.89062ZM165.453 5.89062C165.485 5.89062 165.504 5.89347 165.511 5.89487C165.518 5.89619 165.518 5.89692 165.516 5.89585C165.513 5.89478 165.514 5.89463 165.519 5.89823C165.525 5.90206 165.539 5.91268 165.56 5.93515L168.44 3.1586C167.64 2.32903 166.604 1.89062 165.453 1.89062V5.89062ZM165.586 5.96109C165.628 6.00288 165.636 6.02515 165.639 6.03133C165.642 6.03889 165.656 6.07539 165.656 6.16406H169.656C169.656 5.01398 169.241 3.95981 168.414 3.13266L165.586 5.96109ZM165.656 6.16406V30.8672H169.656V6.16406H165.656ZM167.656 32.8672H188.07V28.8672H167.656V32.8672ZM188.07 32.8672C188.103 32.8672 188.121 32.87 188.128 32.8714C188.135 32.8728 188.135 32.8735 188.133 32.8724C188.13 32.8713 188.131 32.8712 188.136 32.8748C188.142 32.8786 188.156 32.8892 188.178 32.9117L191.057 30.1352C190.257 29.3056 189.221 28.8672 188.07 28.8672V32.8672ZM188.203 32.9377C188.254 32.989 188.264 33.015 188.264 33.0153C188.265 33.0178 188.267 33.0225 188.269 33.032C188.271 33.0419 188.273 33.0616 188.273 33.0938H192.273C192.273 31.9449 191.838 30.9153 191.031 30.1092L188.203 32.9377ZM188.273 33.0938V35.2969H192.273V33.0938H188.273ZM188.273 35.2969C188.273 35.3291 188.271 35.3487 188.269 35.3586C188.267 35.3681 188.265 35.3728 188.264 35.3753C188.264 35.3757 188.254 35.4016 188.203 35.453L191.031 38.2814C191.838 37.4753 192.273 36.4457 192.273 35.2969H188.273ZM188.203 35.453C188.183 35.473 188.17 35.4826 188.164 35.4863C188.159 35.4899 188.157 35.4907 188.157 35.4907C188.157 35.4908 188.152 35.4926 188.141 35.4947C188.13 35.4969 188.107 35.5 188.07 35.5V39.5C189.197 39.5 190.226 39.0872 191.031 38.2814L188.203 35.453ZM188.07 35.5H161.047V39.5H188.07V35.5ZM161.047 35.5C160.968 35.5 160.933 35.4878 160.921 35.4831C160.91 35.4787 160.883 35.4671 160.837 35.425L158.116 38.3562C158.931 39.1138 159.944 39.5 161.047 39.5V35.5ZM160.865 35.4509C160.842 35.4293 160.832 35.4152 160.828 35.4097C160.824 35.4046 160.824 35.4039 160.826 35.4064C160.827 35.4089 160.826 35.4082 160.825 35.4015C160.823 35.3943 160.82 35.376 160.82 35.3438H156.82C156.82 36.4945 157.259 37.5304 158.088 38.3303L160.865 35.4509ZM191.352 35.3438L189.418 34.8339L189.41 34.8638L189.403 34.894L191.352 35.3438ZM197.234 13.0312L199.168 13.5411L199.169 13.5385L197.234 13.0312ZM212.797 3.89062V1.89062L212.793 1.89063L212.797 3.89062ZM226.859 4.54688L225.341 5.84846L225.354 5.86382L225.367 5.87891L226.859 4.54688ZM226.789 36.8906L228.15 38.3562L228.164 38.3434L228.177 38.3303L226.789 36.8906ZM219.219 36.8906L217.778 38.2779L217.804 38.3051L217.831 38.3313L219.219 36.8906ZM218.609 29.3906H220.609V27.3906H218.609V29.3906ZM201.945 29.3906V27.3906H200.408L200.012 28.8767L201.945 29.3906ZM200.375 35.2969L198.442 34.783L198.437 34.8029L198.432 34.823L200.375 35.2969ZM199.32 36.8906L200.513 38.4961L200.528 38.4853L200.542 38.4742L199.32 36.8906ZM191.656 36.9844L190.048 38.1732L190.061 38.1903L190.074 38.2073L191.656 36.9844ZM191.258 36.0469L189.261 35.9294L189.258 35.9881V36.0469H191.258ZM203.68 22.7578L201.751 22.229L201.058 24.7578H203.68V22.7578ZM218.609 22.7578V24.7578H220.609V22.7578H218.609ZM218.609 10.5234H220.609V8.52344H218.609V10.5234ZM207.992 11.8125L209.203 13.4044L209.206 13.4018L207.992 11.8125ZM205.742 15.2344L207.671 15.7632L207.672 15.7588L205.742 15.2344ZM193.285 35.8536L199.168 13.5411L195.3 12.5214L189.418 34.8339L193.285 35.8536ZM199.169 13.5385C199.838 10.9858 201.218 9.15459 203.333 7.91203C205.512 6.63251 208.612 5.89808 212.8 5.89062L212.793 1.89063C208.201 1.8988 204.316 2.69561 201.307 4.46296C198.235 6.26728 196.224 8.99858 195.3 12.524L199.169 13.5385ZM212.797 5.89062H225.43V1.89062H212.797V5.89062ZM225.43 5.89062C225.448 5.89062 225.449 5.89227 225.438 5.88996C225.426 5.88753 225.408 5.88221 225.386 5.87235C225.365 5.86247 225.348 5.85175 225.338 5.84393C225.329 5.83647 225.33 5.83582 225.341 5.84846L228.378 3.24529C227.621 2.36281 226.589 1.89062 225.43 1.89062V5.89062ZM225.367 5.87891C225.414 5.93144 225.428 5.96261 225.432 5.97382C225.436 5.98457 225.445 6.01121 225.445 6.07031H229.445C229.445 4.99302 229.064 4.01299 228.351 3.21484L225.367 5.87891ZM225.445 6.07031V35.3438H229.445V6.07031H225.445ZM225.445 35.3438C225.445 35.376 225.442 35.3943 225.441 35.4015C225.44 35.4082 225.439 35.4089 225.44 35.4064C225.441 35.4039 225.441 35.4046 225.438 35.4097C225.434 35.4152 225.423 35.4293 225.401 35.4509L228.177 38.3303C229.007 37.5304 229.445 36.4945 229.445 35.3438H225.445ZM225.428 35.425C225.383 35.4671 225.356 35.4787 225.345 35.4831C225.333 35.4878 225.297 35.5 225.219 35.5V39.5C226.321 39.5 227.334 39.1138 228.15 38.3562L225.428 35.425ZM225.219 35.5H220.812V39.5H225.219V35.5ZM220.812 35.5C220.706 35.5 220.658 35.4836 220.648 35.4796C220.641 35.4767 220.629 35.4726 220.606 35.45L217.831 38.3313C218.663 39.1316 219.708 39.5 220.812 39.5V35.5ZM220.659 35.5033C220.637 35.4799 220.633 35.4689 220.63 35.4615C220.626 35.4509 220.609 35.4037 220.609 35.2969H216.609C216.609 36.4018 216.978 37.4468 217.778 38.2779L220.659 35.5033ZM220.609 35.2969V29.3906H216.609V35.2969H220.609ZM218.609 27.3906H201.945V31.3906H218.609V27.3906ZM200.012 28.8767L198.442 34.783L202.308 35.8108L203.878 29.9045L200.012 28.8767ZM198.432 34.823C198.389 35.0005 198.305 35.1483 198.099 35.3071L200.542 38.4742C201.43 37.7892 202.049 36.8745 202.318 35.7708L198.432 34.823ZM198.128 35.2851C197.883 35.4669 197.715 35.5 197.586 35.5V39.5C198.675 39.5 199.664 39.1268 200.513 38.4961L198.128 35.2851ZM197.586 35.5H192.969V39.5H197.586V35.5ZM192.969 35.5C192.844 35.5 192.843 35.4813 192.915 35.5096C192.954 35.5248 193.009 35.552 193.07 35.5972C193.133 35.6429 193.19 35.6989 193.239 35.7615L190.074 38.2073C190.855 39.2178 192.004 39.5 192.969 39.5V35.5ZM193.265 35.7956C193.197 35.7047 193.188 35.6733 193.198 35.6982C193.209 35.7232 193.258 35.8473 193.258 36.0469H189.258C189.258 36.9452 189.685 37.6821 190.048 38.1732L193.265 35.7956ZM193.254 36.1643C193.265 35.9816 193.284 35.8623 193.3 35.7935L189.403 34.894C189.325 35.2314 189.282 35.5809 189.261 35.9294L193.254 36.1643ZM203.68 24.7578H218.609V20.7578H203.68V24.7578ZM220.609 22.7578V10.5234H216.609V22.7578H220.609ZM218.609 8.52344H211.93V12.5234H218.609V8.52344ZM211.93 8.52344C210.019 8.52344 208.273 9.08095 206.778 10.2232L209.206 13.4018C209.961 12.8253 210.841 12.5234 211.93 12.5234V8.52344ZM206.781 10.2206C205.296 11.3501 204.31 12.8783 203.812 14.7099L207.672 15.7588C207.956 14.7155 208.469 13.9624 209.203 13.4044L206.781 10.2206ZM203.813 14.7056L201.751 22.229L205.609 23.2866L207.671 15.7632L203.813 14.7056ZM241.016 6.11719L239.333 7.19782L239.338 7.20634L241.016 6.11719ZM248.609 17.8125L246.932 18.9016L248.612 21.4891L250.288 18.8993L248.609 17.8125ZM256.18 6.11719L254.505 5.02411L254.501 5.03041L256.18 6.11719ZM265.555 6.11719L267.234 7.20354L267.239 7.1953L265.555 6.11719ZM253.016 25.5L251.336 24.4137L251.016 24.9095V25.5H253.016ZM252.359 36.8906L253.747 38.3313L253.748 38.3303L252.359 36.8906ZM244.836 36.8906L243.448 38.3303L243.461 38.3434L243.475 38.3562L244.836 36.8906ZM244.18 25.5H246.18V24.9104L245.86 24.4151L244.18 25.5ZM231.664 6.11719L233.344 5.03229L233.331 5.01227L233.318 4.99257L231.664 6.11719ZM233.266 5.01562C233.266 4.99185 233.265 5.32971 232.927 5.64148C232.619 5.92533 232.348 5.89062 232.484 5.89062V1.89062C231.808 1.89062 230.928 2.04342 230.214 2.70227C229.47 3.38904 229.266 4.2894 229.266 5.01562H233.266ZM232.484 5.89062H236.938V1.89062H232.484V5.89062ZM236.938 5.89062C238.023 5.89062 238.748 6.28702 239.333 7.19781L242.699 5.03657C241.377 2.9786 239.383 1.89062 236.938 1.89062V5.89062ZM239.338 7.20634L246.932 18.9016L250.287 16.7234L242.693 5.02804L239.338 7.20634ZM250.288 18.8993L257.859 7.20397L254.501 5.03041L246.93 16.7257L250.288 18.8993ZM257.855 7.21026C258.46 6.28287 259.194 5.89062 260.258 5.89062V1.89062C257.822 1.89062 255.837 2.98276 254.505 5.02411L257.855 7.21026ZM260.258 5.89062H264.734V1.89062H260.258V5.89062ZM264.734 5.89062C264.854 5.89062 264.571 5.92102 264.26 5.62827C263.926 5.31409 263.93 4.98096 263.93 5.01562H267.93C267.93 4.30029 267.734 3.40466 267.002 2.71548C266.292 2.04773 265.412 1.89062 264.734 1.89062V5.89062ZM263.93 5.01562C263.93 4.94209 263.943 4.90193 263.943 4.9043C263.941 4.90926 263.925 4.95385 263.87 5.03908L267.239 7.1953C267.625 6.59205 267.93 5.85326 267.93 5.01562H263.93ZM263.875 5.03085L251.336 24.4137L254.695 26.5863L267.234 7.20352L263.875 5.03085ZM251.016 25.5V35.3438H255.016V25.5H251.016ZM251.016 35.3438C251.016 35.376 251.013 35.3943 251.011 35.4015C251.01 35.4082 251.009 35.4089 251.01 35.4064C251.011 35.4039 251.012 35.4046 251.008 35.4097C251.004 35.4152 250.994 35.4293 250.971 35.4509L253.748 38.3303C254.577 37.5304 255.016 36.4945 255.016 35.3438H251.016ZM250.972 35.45C250.954 35.4677 250.941 35.4765 250.935 35.4803C250.93 35.484 250.926 35.4857 250.923 35.4868C250.921 35.4877 250.891 35.5 250.812 35.5V39.5C251.916 39.5 252.936 39.1122 253.747 38.3313L250.972 35.45ZM250.812 35.5H246.406V39.5H250.812V35.5ZM246.406 35.5C246.328 35.5 246.292 35.4878 246.28 35.4831C246.269 35.4787 246.242 35.4671 246.197 35.425L243.475 38.3562C244.291 39.1138 245.304 39.5 246.406 39.5V35.5ZM246.224 35.4509C246.202 35.4293 246.191 35.4152 246.187 35.4097C246.184 35.4046 246.184 35.4039 246.185 35.4064C246.186 35.4089 246.185 35.4082 246.184 35.4015C246.183 35.3943 246.18 35.376 246.18 35.3438H242.18C242.18 36.4945 242.618 37.5304 243.448 38.3303L246.224 35.4509ZM246.18 35.3438V25.5H242.18V35.3438H246.18ZM245.86 24.4151L233.344 5.03229L229.984 7.20209L242.5 26.5849L245.86 24.4151ZM233.318 4.99257C233.29 4.95099 233.271 4.91941 233.26 4.89787C233.249 4.87638 233.245 4.86669 233.246 4.86856C233.247 4.87061 233.252 4.88491 233.257 4.91056C233.261 4.93655 233.266 4.97215 233.266 5.01562H229.266C229.266 5.88502 229.601 6.6401 230.01 7.24181L233.318 4.99257Z" fill="#3B3B3B" mask="url(#path-1-outside-1_50_2123)"/>
</g>
<defs>
<filter id="filter0_dddd_50_2123" x="0.929688" y="0.390625" width="269" height="41.6094" filterUnits="userSpaceOnUse" color-interpolation-filters="sRGB">
<feFlood flood-opacity="0" result="BackgroundImageFix"/>
<feColorMatrix in="SourceAlpha" type="matrix" values="0 0 0 0 0 0 0 0 0 0 0 0 0 0 0 0 0 0 127 0" result="hardAlpha"/>
<feOffset dy="0.925926"/>
<feComposite in2="hardAlpha" operator="out"/>
<feColorMatrix type="matrix" values="0 0 0 0 0 0 0 0 0 0 0 0 0 0 0 0 0 0 1 0"/>
<feBlend mode="normal" in2="BackgroundImageFix" result="effect1_dropShadow_50_2123"/>
<feColorMatrix in="SourceAlpha" type="matrix" values="0 0 0 0 0 0 0 0 0 0 0 0 0 0 0 0 0 0 127 0" result="hardAlpha"/>
<feOffset dy="0.5"/>
<feGaussianBlur stdDeviation="1"/>
<feComposite in2="hardAlpha" operator="out"/>
<feColorMatrix type="matrix" values="0 0 0 0 0 0 0 0 0 0 0 0 0 0 0 0 0 0 0.4 0"/>
<feBlend mode="normal" in2="effect1_dropShadow_50_2123" result="effect2_dropShadow_50_2123"/>
<feColorMatrix in="SourceAlpha" type="matrix" values="0 0 0 0 0 0 0 0 0 0 0 0 0 0 0 0 0 0 127 0" result="hardAlpha"/>
<feOffset dy="1"/>
<feComposite in2="hardAlpha" operator="out"/>
<feColorMatrix type="matrix" values="0 0 0 0 0 0 0 0 0 0 0 0 0 0 0 0 0 0 1 0"/>
<feBlend mode="normal" in2="effect2_dropShadow_50_2123" result="effect3_dropShadow_50_2123"/>
<feColorMatrix in="SourceAlpha" type="matrix" values="0 0 0 0 0 0 0 0 0 0 0 0 0 0 0 0 0 0 127 0" result="hardAlpha"/>
<feOffset dy="1"/>
<feComposite in2="hardAlpha" operator="out"/>
<feColorMatrix type="matrix" values="0 0 0 0 0 0 0 0 0 0 0 0 0 0 0 0 0 0 1 0"/>
<feBlend mode="normal" in2="effect3_dropShadow_50_2123" result="effect4_dropShadow_50_2123"/>
<feBlend mode="normal" in="SourceGraphic" in2="effect4_dropShadow_50_2123" result="shape"/>
</filter>
</defs>
</svg>
