<svg width="153" height="37" viewBox="0 0 153 37" fill="none" xmlns="http://www.w3.org/2000/svg">
<path d="M0.5 4C0.5 2.067 2.067 0.5 4 0.5H149C150.933 0.5 152.5 2.067 152.5 4V22.0564C152.5 23.7884 151.233 25.26 149.52 25.5175L79.3988 36.0586C77.4771 36.3475 75.5229 36.3475 73.6012 36.0586L3.47969 25.5175C1.76688 25.26 0.5 23.7884 0.5 22.0564V4Z" fill="#3B4B5B" stroke="black"/>
<path d="M1 4C1 2.34315 2.34315 1 4 1H149C150.657 1 152 2.34315 152 4V19.0631C152 21.0397 150.556 22.7199 148.602 23.0175L79.5116 33.5413C77.5154 33.8453 75.4846 33.8453 73.4884 33.5413L4.39768 23.0175C2.44367 22.7199 1 21.0397 1 19.0631V4Z" fill="#B4C7D9"/>
<path d="M1.5 4C1.5 2.61929 2.61929 1.5 4 1.5H149C150.381 1.5 151.5 2.61929 151.5 4V19.0631C151.5 20.7926 150.237 22.2628 148.527 22.5232L79.4363 33.047C77.49 33.3434 75.51 33.3434 73.5637 33.047L4.47297 22.5232C2.76321 22.2628 1.5 20.7926 1.5 19.0631V4Z" stroke="#C4C4C4" stroke-opacity="0.7" style="mix-blend-mode:hard-light"/>
<path style="mix-blend-mode:hard-light" fill-rule="evenodd" clip-rule="evenodd" d="M152 6.96177C135.57 10.6188 108.771 13 78.5 13C45.6291 13 16.8513 10.1922 1 5.99182V4C1 2.34315 2.34315 1 4 1H149C150.657 1 152 2.34315 152 4V6.96177Z" fill="#F5F5F5" fill-opacity="0.2"/>
<g filter="url(#filter0_dd_48_2071)">
<mask id="path-5-outside-1_48_2071" maskUnits="userSpaceOnUse" x="34" y="9" width="85" height="11" fill="black">
<rect fill="white" x="34" y="9" width="85" height="11"/>
<path d="M37.1319 19L34.5581 10.2727H37.2001L38.3933 15.642H38.4615L39.8762 10.2727H41.9558L43.3706 15.6591H43.4387L44.6319 10.2727H47.274L44.7001 19H42.4331L40.9501 14.125H40.8819L39.399 19H37.1319ZM48.041 19V10.2727H54.3308V12.1818H50.4103V13.6818H54.0069V15.5909H50.4103V17.0909H54.3137V19H48.041ZM55.5059 19V10.2727H57.8752V17.0909H61.4036V19H55.5059ZM70.1692 13.5455H67.7658C67.7488 13.3466 67.7033 13.1662 67.6294 13.0043C67.5584 12.8423 67.459 12.7031 67.3311 12.5866C67.2061 12.4673 67.0542 12.3764 66.8752 12.3139C66.6962 12.2486 66.4931 12.2159 66.2658 12.2159C65.8681 12.2159 65.5314 12.3125 65.2559 12.5057C64.9831 12.6989 64.7757 12.9759 64.6337 13.3366C64.4945 13.6974 64.4249 14.1307 64.4249 14.6364C64.4249 15.1705 64.4959 15.6179 64.638 15.9787C64.7828 16.3366 64.9917 16.6065 65.2644 16.7884C65.5371 16.9673 65.8652 17.0568 66.2488 17.0568C66.4675 17.0568 66.6635 17.0298 66.8368 16.9759C67.0101 16.919 67.1607 16.8381 67.2885 16.733C67.4164 16.6278 67.5201 16.5014 67.5996 16.3537C67.682 16.2031 67.7374 16.0341 67.7658 15.8466L70.1692 15.8636C70.1408 16.233 70.0371 16.6094 69.8581 16.9929C69.6792 17.3736 69.4249 17.7259 69.0953 18.0497C68.7686 18.3707 68.3638 18.6293 67.8809 18.8253C67.3979 19.0213 66.8368 19.1193 66.1976 19.1193C65.3965 19.1193 64.6777 18.9474 64.0414 18.6037C63.4078 18.2599 62.9064 17.7543 62.5371 17.0866C62.1706 16.419 61.9874 15.6023 61.9874 14.6364C61.9874 13.6648 62.1749 12.8466 62.5499 12.1818C62.9249 11.5142 63.4306 11.0099 64.0669 10.669C64.7033 10.3253 65.4135 10.1534 66.1976 10.1534C66.7488 10.1534 67.2559 10.2287 67.7189 10.3793C68.182 10.5298 68.5882 10.75 68.9377 11.0398C69.2871 11.3267 69.5684 11.6804 69.7814 12.1009C69.9945 12.5213 70.1238 13.0028 70.1692 13.5455ZM79.6987 14.6364C79.6987 15.608 79.5098 16.4276 79.1319 17.0952C78.7541 17.7599 78.2441 18.2642 77.6021 18.608C76.96 18.9489 76.2441 19.1193 75.4544 19.1193C74.6589 19.1193 73.9402 18.9474 73.2981 18.6037C72.6589 18.2571 72.1504 17.7514 71.7725 17.0866C71.3975 16.419 71.21 15.6023 71.21 14.6364C71.21 13.6648 71.3975 12.8466 71.7725 12.1818C72.1504 11.5142 72.6589 11.0099 73.2981 10.669C73.9402 10.3253 74.6589 10.1534 75.4544 10.1534C76.2441 10.1534 76.96 10.3253 77.6021 10.669C78.2441 11.0099 78.7541 11.5142 79.1319 12.1818C79.5098 12.8466 79.6987 13.6648 79.6987 14.6364ZM77.2612 14.6364C77.2612 14.1136 77.1916 13.6733 77.0524 13.3153C76.916 12.9545 76.7129 12.6818 76.443 12.4972C76.176 12.3097 75.8464 12.2159 75.4544 12.2159C75.0623 12.2159 74.7314 12.3097 74.4615 12.4972C74.1944 12.6818 73.9913 12.9545 73.8521 13.3153C73.7157 13.6733 73.6475 14.1136 73.6475 14.6364C73.6475 15.1591 73.7157 15.6009 73.8521 15.9616C73.9913 16.3196 74.1944 16.5923 74.4615 16.7798C74.7314 16.9645 75.0623 17.0568 75.4544 17.0568C75.8464 17.0568 76.176 16.9645 76.443 16.7798C76.7129 16.5923 76.916 16.3196 77.0524 15.9616C77.1916 15.6009 77.2612 15.1591 77.2612 14.6364ZM80.7949 10.2727H83.7438L85.7722 15.2159H85.8745L87.9029 10.2727H90.8517V19H88.5336V13.9545H88.4654L86.5222 18.9318H85.1245L83.1813 13.9205H83.1131V19H80.7949V10.2727ZM91.9746 19V10.2727H98.2644V12.1818H94.3439V13.6818H97.9405V15.5909H94.3439V17.0909H98.2473V19H91.9746ZM101.591 12.1818V10.2727H109.177V12.1818H106.552V19H104.216V12.1818H101.591ZM118.113 14.6364C118.113 15.608 117.924 16.4276 117.546 17.0952C117.168 17.7599 116.658 18.2642 116.016 18.608C115.374 18.9489 114.658 19.1193 113.868 19.1193C113.073 19.1193 112.354 18.9474 111.712 18.6037C111.073 18.2571 110.564 17.7514 110.187 17.0866C109.812 16.419 109.624 15.6023 109.624 14.6364C109.624 13.6648 109.812 12.8466 110.187 12.1818C110.564 11.5142 111.073 11.0099 111.712 10.669C112.354 10.3253 113.073 10.1534 113.868 10.1534C114.658 10.1534 115.374 10.3253 116.016 10.669C116.658 11.0099 117.168 11.5142 117.546 12.1818C117.924 12.8466 118.113 13.6648 118.113 14.6364ZM115.675 14.6364C115.675 14.1136 115.606 13.6733 115.466 13.3153C115.33 12.9545 115.127 12.6818 114.857 12.4972C114.59 12.3097 114.26 12.2159 113.868 12.2159C113.476 12.2159 113.145 12.3097 112.876 12.4972C112.608 12.6818 112.405 12.9545 112.266 13.3153C112.13 13.6733 112.062 14.1136 112.062 14.6364C112.062 15.1591 112.13 15.6009 112.266 15.9616C112.405 16.3196 112.608 16.5923 112.876 16.7798C113.145 16.9645 113.476 17.0568 113.868 17.0568C114.26 17.0568 114.59 16.9645 114.857 16.7798C115.127 16.5923 115.33 16.3196 115.466 15.9616C115.606 15.6009 115.675 15.1591 115.675 14.6364Z"/>
</mask>
<path d="M37.1319 19L34.5581 10.2727H37.2001L38.3933 15.642H38.4615L39.8762 10.2727H41.9558L43.3706 15.6591H43.4387L44.6319 10.2727H47.274L44.7001 19H42.4331L40.9501 14.125H40.8819L39.399 19H37.1319ZM48.041 19V10.2727H54.3308V12.1818H50.4103V13.6818H54.0069V15.5909H50.4103V17.0909H54.3137V19H48.041ZM55.5059 19V10.2727H57.8752V17.0909H61.4036V19H55.5059ZM70.1692 13.5455H67.7658C67.7488 13.3466 67.7033 13.1662 67.6294 13.0043C67.5584 12.8423 67.459 12.7031 67.3311 12.5866C67.2061 12.4673 67.0542 12.3764 66.8752 12.3139C66.6962 12.2486 66.4931 12.2159 66.2658 12.2159C65.8681 12.2159 65.5314 12.3125 65.2559 12.5057C64.9831 12.6989 64.7757 12.9759 64.6337 13.3366C64.4945 13.6974 64.4249 14.1307 64.4249 14.6364C64.4249 15.1705 64.4959 15.6179 64.638 15.9787C64.7828 16.3366 64.9917 16.6065 65.2644 16.7884C65.5371 16.9673 65.8652 17.0568 66.2488 17.0568C66.4675 17.0568 66.6635 17.0298 66.8368 16.9759C67.0101 16.919 67.1607 16.8381 67.2885 16.733C67.4164 16.6278 67.5201 16.5014 67.5996 16.3537C67.682 16.2031 67.7374 16.0341 67.7658 15.8466L70.1692 15.8636C70.1408 16.233 70.0371 16.6094 69.8581 16.9929C69.6792 17.3736 69.4249 17.7259 69.0953 18.0497C68.7686 18.3707 68.3638 18.6293 67.8809 18.8253C67.3979 19.0213 66.8368 19.1193 66.1976 19.1193C65.3965 19.1193 64.6777 18.9474 64.0414 18.6037C63.4078 18.2599 62.9064 17.7543 62.5371 17.0866C62.1706 16.419 61.9874 15.6023 61.9874 14.6364C61.9874 13.6648 62.1749 12.8466 62.5499 12.1818C62.9249 11.5142 63.4306 11.0099 64.0669 10.669C64.7033 10.3253 65.4135 10.1534 66.1976 10.1534C66.7488 10.1534 67.2559 10.2287 67.7189 10.3793C68.182 10.5298 68.5882 10.75 68.9377 11.0398C69.2871 11.3267 69.5684 11.6804 69.7814 12.1009C69.9945 12.5213 70.1238 13.0028 70.1692 13.5455ZM79.6987 14.6364C79.6987 15.608 79.5098 16.4276 79.1319 17.0952C78.7541 17.7599 78.2441 18.2642 77.6021 18.608C76.96 18.9489 76.2441 19.1193 75.4544 19.1193C74.6589 19.1193 73.9402 18.9474 73.2981 18.6037C72.6589 18.2571 72.1504 17.7514 71.7725 17.0866C71.3975 16.419 71.21 15.6023 71.21 14.6364C71.21 13.6648 71.3975 12.8466 71.7725 12.1818C72.1504 11.5142 72.6589 11.0099 73.2981 10.669C73.9402 10.3253 74.6589 10.1534 75.4544 10.1534C76.2441 10.1534 76.96 10.3253 77.6021 10.669C78.2441 11.0099 78.7541 11.5142 79.1319 12.1818C79.5098 12.8466 79.6987 13.6648 79.6987 14.6364ZM77.2612 14.6364C77.2612 14.1136 77.1916 13.6733 77.0524 13.3153C76.916 12.9545 76.7129 12.6818 76.443 12.4972C76.176 12.3097 75.8464 12.2159 75.4544 12.2159C75.0623 12.2159 74.7314 12.3097 74.4615 12.4972C74.1944 12.6818 73.9913 12.9545 73.8521 13.3153C73.7157 13.6733 73.6475 14.1136 73.6475 14.6364C73.6475 15.1591 73.7157 15.6009 73.8521 15.9616C73.9913 16.3196 74.1944 16.5923 74.4615 16.7798C74.7314 16.9645 75.0623 17.0568 75.4544 17.0568C75.8464 17.0568 76.176 16.9645 76.443 16.7798C76.7129 16.5923 76.916 16.3196 77.0524 15.9616C77.1916 15.6009 77.2612 15.1591 77.2612 14.6364ZM80.7949 10.2727H83.7438L85.7722 15.2159H85.8745L87.9029 10.2727H90.8517V19H88.5336V13.9545H88.4654L86.5222 18.9318H85.1245L83.1813 13.9205H83.1131V19H80.7949V10.2727ZM91.9746 19V10.2727H98.2644V12.1818H94.3439V13.6818H97.9405V15.5909H94.3439V17.0909H98.2473V19H91.9746ZM101.591 12.1818V10.2727H109.177V12.1818H106.552V19H104.216V12.1818H101.591ZM118.113 14.6364C118.113 15.608 117.924 16.4276 117.546 17.0952C117.168 17.7599 116.658 18.2642 116.016 18.608C115.374 18.9489 114.658 19.1193 113.868 19.1193C113.073 19.1193 112.354 18.9474 111.712 18.6037C111.073 18.2571 110.564 17.7514 110.187 17.0866C109.812 16.419 109.624 15.6023 109.624 14.6364C109.624 13.6648 109.812 12.8466 110.187 12.1818C110.564 11.5142 111.073 11.0099 111.712 10.669C112.354 10.3253 113.073 10.1534 113.868 10.1534C114.658 10.1534 115.374 10.3253 116.016 10.669C116.658 11.0099 117.168 11.5142 117.546 12.1818C117.924 12.8466 118.113 13.6648 118.113 14.6364ZM115.675 14.6364C115.675 14.1136 115.606 13.6733 115.466 13.3153C115.33 12.9545 115.127 12.6818 114.857 12.4972C114.59 12.3097 114.26 12.2159 113.868 12.2159C113.476 12.2159 113.145 12.3097 112.876 12.4972C112.608 12.6818 112.405 12.9545 112.266 13.3153C112.13 13.6733 112.062 14.1136 112.062 14.6364C112.062 15.1591 112.13 15.6009 112.266 15.9616C112.405 16.3196 112.608 16.5923 112.876 16.7798C113.145 16.9645 113.476 17.0568 113.868 17.0568C114.26 17.0568 114.59 16.9645 114.857 16.7798C115.127 16.5923 115.33 16.3196 115.466 15.9616C115.606 15.6009 115.675 15.1591 115.675 14.6364Z" fill="white"/>
<path d="M37.1319 19L36.7483 19.1131L36.8329 19.4H37.1319V19ZM34.5581 10.2727V9.87273H34.0231L34.1744 10.3859L34.5581 10.2727ZM37.2001 10.2727L37.5906 10.186L37.521 9.87273H37.2001V10.2727ZM38.3933 15.642L38.0028 15.7288L38.0724 16.042H38.3933V15.642ZM38.4615 15.642V16.042H38.7697L38.8483 15.744L38.4615 15.642ZM39.8762 10.2727V9.87273H39.568L39.4894 10.1708L39.8762 10.2727ZM41.9558 10.2727L42.3427 10.1711L42.2643 9.87273H41.9558V10.2727ZM43.3706 15.6591L42.9837 15.7607L43.0621 16.0591H43.3706V15.6591ZM43.4387 15.6591V16.0591H43.7598L43.8293 15.7456L43.4387 15.6591ZM44.6319 10.2727V9.87273H44.3108L44.2414 10.1862L44.6319 10.2727ZM47.274 10.2727L47.6576 10.3859L47.809 9.87273H47.274V10.2727ZM44.7001 19V19.4H44.9992L45.0838 19.1131L44.7001 19ZM42.4331 19L42.0504 19.1164L42.1366 19.4H42.4331V19ZM40.9501 14.125L41.3328 14.0086L41.2465 13.725H40.9501V14.125ZM40.8819 14.125V13.725H40.5855L40.4992 14.0086L40.8819 14.125ZM39.399 19V19.4H39.6954L39.7817 19.1164L39.399 19ZM37.5156 18.8868L34.9417 10.1596L34.1744 10.3859L36.7483 19.1131L37.5156 18.8868ZM34.5581 10.6727H37.2001V9.87273H34.5581V10.6727ZM36.8096 10.3595L38.0028 15.7288L38.7838 15.5553L37.5906 10.186L36.8096 10.3595ZM38.3933 16.042H38.4615V15.242H38.3933V16.042ZM38.8483 15.744L40.263 10.3746L39.4894 10.1708L38.0747 15.5401L38.8483 15.744ZM39.8762 10.6727H41.9558V9.87273H39.8762V10.6727ZM41.5689 10.3743L42.9837 15.7607L43.7574 15.5575L42.3427 10.1711L41.5689 10.3743ZM43.3706 16.0591H43.4387V15.2591H43.3706V16.0591ZM43.8293 15.7456L45.0225 10.3592L44.2414 10.1862L43.0482 15.5726L43.8293 15.7456ZM44.6319 10.6727H47.274V9.87273H44.6319V10.6727ZM46.8903 10.1596L44.3164 18.8868L45.0838 19.1131L47.6576 10.3859L46.8903 10.1596ZM44.7001 18.6H42.4331V19.4H44.7001V18.6ZM42.8157 18.8836L41.3328 14.0086L40.5674 14.2414L42.0504 19.1164L42.8157 18.8836ZM40.9501 13.725H40.8819V14.525H40.9501V13.725ZM40.4992 14.0086L39.0163 18.8836L39.7817 19.1164L41.2646 14.2414L40.4992 14.0086ZM39.399 18.6H37.1319V19.4H39.399V18.6ZM48.041 19H47.641V19.4H48.041V19ZM48.041 10.2727V9.87273H47.641V10.2727H48.041ZM54.3308 10.2727H54.7308V9.87273H54.3308V10.2727ZM54.3308 12.1818V12.5818H54.7308V12.1818H54.3308ZM50.4103 12.1818V11.7818H50.0103V12.1818H50.4103ZM50.4103 13.6818H50.0103V14.0818H50.4103V13.6818ZM54.0069 13.6818H54.4069V13.2818H54.0069V13.6818ZM54.0069 15.5909V15.9909H54.4069V15.5909H54.0069ZM50.4103 15.5909V15.1909H50.0103V15.5909H50.4103ZM50.4103 17.0909H50.0103V17.4909H50.4103V17.0909ZM54.3137 17.0909H54.7137V16.6909H54.3137V17.0909ZM54.3137 19V19.4H54.7137V19H54.3137ZM48.441 19V10.2727H47.641V19H48.441ZM48.041 10.6727H54.3308V9.87273H48.041V10.6727ZM53.9308 10.2727V12.1818H54.7308V10.2727H53.9308ZM54.3308 11.7818H50.4103V12.5818H54.3308V11.7818ZM50.0103 12.1818V13.6818H50.8103V12.1818H50.0103ZM50.4103 14.0818H54.0069V13.2818H50.4103V14.0818ZM53.6069 13.6818V15.5909H54.4069V13.6818H53.6069ZM54.0069 15.1909H50.4103V15.9909H54.0069V15.1909ZM50.0103 15.5909V17.0909H50.8103V15.5909H50.0103ZM50.4103 17.4909H54.3137V16.6909H50.4103V17.4909ZM53.9137 17.0909V19H54.7137V17.0909H53.9137ZM54.3137 18.6H48.041V19.4H54.3137V18.6ZM55.5059 19H55.1059V19.4H55.5059V19ZM55.5059 10.2727V9.87273H55.1059V10.2727H55.5059ZM57.8752 10.2727H58.2752V9.87273H57.8752V10.2727ZM57.8752 17.0909H57.4752V17.4909H57.8752V17.0909ZM61.4036 17.0909H61.8036V16.6909H61.4036V17.0909ZM61.4036 19V19.4H61.8036V19H61.4036ZM55.9059 19V10.2727H55.1059V19H55.9059ZM55.5059 10.6727H57.8752V9.87273H55.5059V10.6727ZM57.4752 10.2727V17.0909H58.2752V10.2727H57.4752ZM57.8752 17.4909H61.4036V16.6909H57.8752V17.4909ZM61.0036 17.0909V19H61.8036V17.0909H61.0036ZM61.4036 18.6H55.5059V19.4H61.4036V18.6ZM70.1692 13.5455V13.9455H70.6041L70.5678 13.5121L70.1692 13.5455ZM67.7658 13.5455L67.3673 13.5796L67.3986 13.9455H67.7658V13.5455ZM67.6294 13.0043L67.2631 13.1649L67.2655 13.1703L67.6294 13.0043ZM67.3311 12.5866L67.0549 12.8761L67.0617 12.8823L67.3311 12.5866ZM66.8752 12.3139L66.738 12.6897L66.7433 12.6916L66.8752 12.3139ZM65.2559 12.5057L65.0262 12.1781L65.0247 12.1793L65.2559 12.5057ZM64.6337 13.3366L64.2615 13.1901L64.2605 13.1927L64.6337 13.3366ZM64.638 15.9787L64.2658 16.1252L64.2672 16.1288L64.638 15.9787ZM65.2644 16.7884L65.0425 17.1212L65.0449 17.1228L65.2644 16.7884ZM66.8368 16.9759L66.9558 17.3578L66.9614 17.3559L66.8368 16.9759ZM67.2885 16.733L67.5426 17.0419L67.2885 16.733ZM67.5996 16.3537L67.2487 16.1617L67.2474 16.1641L67.5996 16.3537ZM67.7658 15.8466L67.7686 15.4466L67.4222 15.4441L67.3703 15.7867L67.7658 15.8466ZM70.1692 15.8636L70.568 15.8943L70.6009 15.4667L70.1721 15.4636L70.1692 15.8636ZM69.8581 16.9929L70.2201 17.1631L70.2206 17.1621L69.8581 16.9929ZM69.0953 18.0497L69.3757 18.335L69.3757 18.335L69.0953 18.0497ZM64.0414 18.6037L63.8506 18.9553L63.8513 18.9556L64.0414 18.6037ZM62.5371 17.0866L62.1865 17.2791L62.1871 17.2803L62.5371 17.0866ZM62.5499 12.1818L62.8983 12.3783L62.8986 12.3777L62.5499 12.1818ZM64.0669 10.669L64.2558 11.0216L64.257 11.021L64.0669 10.669ZM67.7189 10.3793L67.8426 9.99886L67.7189 10.3793ZM68.9377 11.0398L68.6823 11.3477L68.6838 11.3489L68.9377 11.0398ZM69.7814 12.1009L69.4246 12.2817V12.2817L69.7814 12.1009ZM70.1692 13.1455H67.7658V13.9455H70.1692V13.1455ZM68.1643 13.5113C68.1439 13.2723 68.0884 13.0466 67.9934 12.8383L67.2655 13.1703C67.3182 13.2858 67.3537 13.4209 67.3673 13.5796L68.1643 13.5113ZM67.9958 12.8436C67.9028 12.6316 67.7707 12.446 67.6005 12.291L67.0617 12.8823C67.1472 12.9602 67.2141 13.0531 67.2631 13.1649L67.9958 12.8436ZM67.6073 12.2973C67.4372 12.1349 67.2346 12.0157 67.007 11.9363L66.7433 12.6916C66.8737 12.7371 66.9751 12.7997 67.055 12.876L67.6073 12.2973ZM67.0124 11.9382C66.7819 11.854 66.5311 11.8159 66.2658 11.8159V12.6159C66.4551 12.6159 66.6105 12.6431 66.738 12.6897L67.0124 11.9382ZM66.2658 11.8159C65.8012 11.8159 65.3806 11.9297 65.0262 12.1781L65.4855 12.8332C65.6822 12.6953 65.9349 12.6159 66.2658 12.6159V11.8159ZM65.0247 12.1793C64.6788 12.4243 64.4274 12.7688 64.2615 13.1901L65.0059 13.4832C65.1241 13.1829 65.2875 12.9735 65.4871 12.8321L65.0247 12.1793ZM64.2605 13.1927C64.0991 13.6111 64.0249 14.0958 64.0249 14.6364H64.8249C64.8249 14.1656 64.8899 13.7838 65.0069 13.4806L64.2605 13.1927ZM64.0249 14.6364C64.0249 15.203 64.0998 15.7038 64.2658 16.1252L65.0102 15.8322C64.892 15.532 64.8249 15.1379 64.8249 14.6364H64.0249ZM64.2672 16.1288C64.4367 16.5476 64.6917 16.8873 65.0425 17.1212L65.4863 16.4555C65.2916 16.3258 65.129 16.1257 65.0087 15.8286L64.2672 16.1288ZM65.0449 17.1228C65.3936 17.3516 65.8012 17.4568 66.2488 17.4568V16.6568C65.9292 16.6568 65.6806 16.5831 65.4838 16.4539L65.0449 17.1228ZM66.2488 17.4568C66.4999 17.4568 66.737 17.4259 66.9558 17.3578L66.7179 16.5939C66.59 16.6338 66.4352 16.6568 66.2488 16.6568V17.4568ZM66.9614 17.3559C67.1771 17.2852 67.3727 17.1816 67.5426 17.0419L67.0345 16.424C66.9487 16.4945 66.8431 16.5528 66.7122 16.5958L66.9614 17.3559ZM67.5426 17.0419C67.7111 16.9033 67.8479 16.7362 67.9518 16.5433L67.2474 16.1641C67.1922 16.2666 67.1216 16.3524 67.0345 16.424L67.5426 17.0419ZM67.9505 16.5457C68.0576 16.35 68.1266 16.1355 68.1613 15.9065L67.3703 15.7867C67.3482 15.9327 67.3064 16.0563 67.2487 16.1617L67.9505 16.5457ZM67.763 16.2466L70.1664 16.2636L70.1721 15.4636L67.7686 15.4466L67.763 16.2466ZM69.7704 15.833C69.7462 16.148 69.6572 16.4777 69.4957 16.8237L70.2206 17.1621C70.4171 16.7411 70.5354 16.3179 70.568 15.8943L69.7704 15.833ZM69.4961 16.8227C69.3392 17.1565 69.114 17.4705 68.815 17.7644L69.3757 18.335C69.7358 17.9812 70.0191 17.5907 70.2201 17.1631L69.4961 16.8227ZM68.815 17.7644C68.5304 18.0441 68.1716 18.2756 67.7304 18.4546L68.0313 19.1959C68.5561 18.9829 69.0069 18.6974 69.3757 18.335L68.815 17.7644ZM67.7304 18.4546C67.3047 18.6274 66.7966 18.7193 66.1976 18.7193V19.5193C66.8771 19.5193 67.4911 19.4152 68.0313 19.1959L67.7304 18.4546ZM66.1976 18.7193C65.4556 18.7193 64.8034 18.5607 64.2315 18.2518L63.8513 18.9556C64.5521 19.3342 65.3374 19.5193 66.1976 19.5193V18.7193ZM64.2321 18.2521C63.6697 17.9469 63.2218 17.498 62.8871 16.893L62.1871 17.2803C62.5911 18.0106 63.146 18.573 63.8506 18.9553L64.2321 18.2521ZM62.8878 16.8942C62.5612 16.2993 62.3874 15.5527 62.3874 14.6364H61.5874C61.5874 15.6519 61.7801 16.5388 62.1865 17.2791L62.8878 16.8942ZM62.3874 14.6364C62.3874 13.7152 62.5651 12.9689 62.8983 12.3783L62.2015 11.9853C61.7846 12.7243 61.5874 13.6143 61.5874 14.6364H62.3874ZM62.8986 12.3777C63.2387 11.7723 63.6907 11.3244 64.2558 11.0216L63.8781 10.3164C63.1704 10.6955 62.6111 11.2561 62.2011 11.9859L62.8986 12.3777ZM64.257 11.021C64.8302 10.7114 65.4742 10.5534 66.1976 10.5534V9.75341C65.3529 9.75341 64.5764 9.93919 63.8768 10.3171L64.257 11.021ZM66.1976 10.5534C66.7122 10.5534 67.177 10.6237 67.5952 10.7597L67.8426 9.99886C67.3347 9.83372 66.7853 9.75341 66.1976 9.75341V10.5534ZM67.5952 10.7597C68.0138 10.8957 68.3746 11.0925 68.6823 11.3477L69.193 10.7319C68.8019 10.4075 68.3502 10.1639 67.8426 9.99886L67.5952 10.7597ZM68.6838 11.3489C68.9886 11.5992 69.2355 11.9085 69.4246 12.2817L70.1382 11.92C69.9012 11.4523 69.5856 11.0542 69.1915 10.7306L68.6838 11.3489ZM69.4246 12.2817C69.6111 12.6496 69.7288 13.0797 69.7706 13.5788L70.5678 13.5121C70.5187 12.926 70.3779 12.393 70.1382 11.92L69.4246 12.2817ZM79.1319 17.0952L79.4797 17.2928L79.48 17.2922L79.1319 17.0952ZM77.6021 18.608L77.7897 18.9612L77.7909 18.9606L77.6021 18.608ZM73.2981 18.6037L73.1075 18.9553L73.1093 18.9563L73.2981 18.6037ZM71.7726 17.0866L71.4238 17.2825L71.4248 17.2843L71.7726 17.0866ZM71.7726 12.1818L71.4244 11.9848L71.4242 11.9853L71.7726 12.1818ZM73.2981 10.669L73.4864 11.022L73.4869 11.0217L73.2981 10.669ZM77.6021 10.669L77.4133 11.0217L77.4145 11.0223L77.6021 10.669ZM79.1319 12.1818L78.7838 12.3788L78.7842 12.3795L79.1319 12.1818ZM77.0524 13.3153L76.6782 13.4568L76.6796 13.4603L77.0524 13.3153ZM76.443 12.4972L76.2131 12.8245L76.2171 12.8273L76.443 12.4972ZM74.4615 12.4972L74.689 12.8262L74.6897 12.8257L74.4615 12.4972ZM73.8521 13.3153L73.4789 13.1714L73.4783 13.1729L73.8521 13.3153ZM73.8521 15.9616L73.4779 16.1031L73.4793 16.1066L73.8521 15.9616ZM74.4615 16.7798L74.2316 17.1072L74.2356 17.11L74.4615 16.7798ZM76.443 16.7798L76.6705 17.1088L76.6712 17.1083L76.443 16.7798ZM77.0524 15.9616L76.6792 15.8177L76.6786 15.8192L77.0524 15.9616ZM79.2987 14.6364C79.2987 15.557 79.1197 16.3046 78.7838 16.8982L79.48 17.2922C79.8998 16.5505 80.0987 15.6589 80.0987 14.6364H79.2987ZM78.7842 16.8975C78.4417 17.5001 77.9854 17.949 77.4133 18.2553L77.7909 18.9606C78.5029 18.5794 79.0665 18.0198 79.4797 17.2928L78.7842 16.8975ZM77.4145 18.2547C76.8351 18.5623 76.1845 18.7193 75.4544 18.7193V19.5193C76.3038 19.5193 77.085 19.3354 77.7897 18.9612L77.4145 18.2547ZM75.4544 18.7193C74.7186 18.7193 74.0657 18.5609 73.4869 18.2511L73.1093 18.9563C73.8147 19.334 74.5993 19.5193 75.4544 19.5193V18.7193ZM73.4888 18.2521C72.9188 17.943 72.4632 17.4923 72.1203 16.889L71.4248 17.2843C71.8376 18.0106 72.3991 18.5712 73.1075 18.9553L73.4888 18.2521ZM72.1213 16.8908C71.7876 16.2967 71.61 15.5513 71.61 14.6364H70.8101C70.8101 15.6533 71.0075 16.5414 71.4238 17.2825L72.1213 16.8908ZM71.61 14.6364C71.61 13.7152 71.7878 12.9689 72.1209 12.3783L71.4242 11.9853C71.0073 12.7243 70.8101 13.6143 70.8101 14.6364H71.61ZM72.1207 12.3788C72.4634 11.7732 72.9182 11.325 73.4864 11.022L73.1099 10.3161C72.3996 10.6949 71.8374 11.2552 71.4244 11.9848L72.1207 12.3788ZM73.4869 11.0217C74.0657 10.7118 74.7186 10.5534 75.4544 10.5534V9.75341C74.5993 9.75341 73.8147 9.93875 73.1093 10.3164L73.4869 11.0217ZM75.4544 10.5534C76.184 10.5534 76.8341 10.7116 77.4133 11.0217L77.7909 10.3164C77.086 9.93897 76.3043 9.75341 75.4544 9.75341V10.5534ZM77.4145 11.0223C77.9855 11.3255 78.4413 11.7737 78.7838 12.3788L79.48 11.9848C79.0668 11.2547 78.5028 10.6944 77.7897 10.3157L77.4145 11.0223ZM78.7842 12.3795C79.1197 12.9698 79.2987 13.7157 79.2987 14.6364H80.0987C80.0987 13.6139 79.8998 12.7234 79.4797 11.9842L78.7842 12.3795ZM77.6612 14.6364C77.6612 14.0808 77.5876 13.5879 77.4252 13.1704L76.6796 13.4603C76.7956 13.7587 76.8612 14.1465 76.8612 14.6364H77.6612ZM77.4265 13.1739C77.2666 12.7506 77.0178 12.4058 76.6689 12.167L76.2171 12.8273C76.408 12.9579 76.5655 13.1585 76.6782 13.4568L77.4265 13.1739ZM76.6729 12.1698C76.3259 11.9262 75.9118 11.8159 75.4544 11.8159V12.6159C75.7811 12.6159 76.0261 12.6932 76.2132 12.8245L76.6729 12.1698ZM75.4544 11.8159C74.9968 11.8159 74.5822 11.9262 74.2332 12.1687L74.6897 12.8257C74.8805 12.6931 75.1278 12.6159 75.4544 12.6159V11.8159ZM74.234 12.1682C73.8891 12.4066 73.6414 12.7503 73.4789 13.1714L74.2253 13.4593C74.3412 13.1588 74.4997 12.957 74.689 12.8262L74.234 12.1682ZM73.4783 13.1729C73.3196 13.5896 73.2476 14.0815 73.2476 14.6364H74.0475C74.0475 14.1457 74.1119 13.7569 74.2259 13.4577L73.4783 13.1729ZM73.2476 14.6364C73.2476 15.1913 73.3196 15.6842 73.4779 16.1031L74.2263 15.8202C74.1119 15.5175 74.0475 15.1268 74.0475 14.6364H73.2476ZM73.4793 16.1066C73.6419 16.5249 73.8892 16.8668 74.2316 17.1072L74.6913 16.4525C74.4996 16.3179 74.3407 16.1144 74.2249 15.8167L73.4793 16.1066ZM74.2356 17.11C74.5843 17.3485 74.998 17.4568 75.4544 17.4568V16.6568C75.1266 16.6568 74.8784 16.5804 74.6873 16.4497L74.2356 17.11ZM75.4544 17.4568C75.9105 17.4568 76.3238 17.3486 76.6705 17.1088L76.2155 16.4508C76.0282 16.5804 75.7823 16.6568 75.4544 16.6568V17.4568ZM76.6712 17.1083C77.0177 16.8676 77.266 16.5245 77.4262 16.104L76.6786 15.8192C76.566 16.1147 76.4081 16.317 76.2148 16.4513L76.6712 17.1083ZM77.4256 16.1056C77.5875 15.6859 77.6612 15.1921 77.6612 14.6364H76.8612C76.8612 15.1261 76.7956 15.5158 76.6792 15.8177L77.4256 16.1056ZM80.7949 10.2727V9.87273H80.3949V10.2727H80.7949ZM83.7438 10.2727L84.1138 10.1209L84.012 9.87273H83.7438V10.2727ZM85.7722 15.2159L85.4021 15.3678L85.504 15.6159H85.7722V15.2159ZM85.8745 15.2159V15.6159H86.1427L86.2445 15.3678L85.8745 15.2159ZM87.9029 10.2727V9.87273H87.6347L87.5328 10.1209L87.9029 10.2727ZM90.8517 10.2727H91.2517V9.87273H90.8517V10.2727ZM90.8517 19V19.4H91.2517V19H90.8517ZM88.5336 19H88.1336V19.4H88.5336V19ZM88.5336 13.9545H88.9336V13.5545H88.5336V13.9545ZM88.4654 13.9545V13.5545H88.1921L88.0928 13.8091L88.4654 13.9545ZM86.5222 18.9318V19.3318H86.7954L86.8948 19.0773L86.5222 18.9318ZM85.1245 18.9318L84.7515 19.0764L84.8505 19.3318H85.1245V18.9318ZM83.1813 13.9205L83.5542 13.7758L83.4552 13.5205H83.1813V13.9205ZM83.1131 13.9205V13.5205H82.7131V13.9205H83.1131ZM83.1131 19V19.4H83.5131V19H83.1131ZM80.7949 19H80.3949V19.4H80.7949V19ZM80.7949 10.6727H83.7438V9.87273H80.7949V10.6727ZM83.3737 10.4246L85.4021 15.3678L86.1423 15.0641L84.1138 10.1209L83.3737 10.4246ZM85.7722 15.6159H85.8745V14.8159H85.7722V15.6159ZM86.2445 15.3678L88.2729 10.4246L87.5328 10.1209L85.5044 15.0641L86.2445 15.3678ZM87.9029 10.6727H90.8517V9.87273H87.9029V10.6727ZM90.4517 10.2727V19H91.2517V10.2727H90.4517ZM90.8517 18.6H88.5336V19.4H90.8517V18.6ZM88.9336 19V13.9545H88.1336V19H88.9336ZM88.5336 13.5545H88.4654V14.3545H88.5336V13.5545ZM88.0928 13.8091L86.1496 18.7863L86.8948 19.0773L88.838 14.1L88.0928 13.8091ZM86.5222 18.5318H85.1245V19.3318H86.5222V18.5318ZM85.4974 18.7872L83.5542 13.7758L82.8083 14.0651L84.7515 19.0764L85.4974 18.7872ZM83.1813 13.5205H83.1131V14.3205H83.1813V13.5205ZM82.7131 13.9205V19H83.5131V13.9205H82.7131ZM83.1131 18.6H80.7949V19.4H83.1131V18.6ZM81.1949 19V10.2727H80.3949V19H81.1949ZM91.9746 19H91.5746V19.4H91.9746V19ZM91.9746 10.2727V9.87273H91.5746V10.2727H91.9746ZM98.2644 10.2727H98.6644V9.87273H98.2644V10.2727ZM98.2644 12.1818V12.5818H98.6644V12.1818H98.2644ZM94.3439 12.1818V11.7818H93.9439V12.1818H94.3439ZM94.3439 13.6818H93.9439V14.0818H94.3439V13.6818ZM97.9405 13.6818H98.3405V13.2818H97.9405V13.6818ZM97.9405 15.5909V15.9909H98.3405V15.5909H97.9405ZM94.3439 15.5909V15.1909H93.9439V15.5909H94.3439ZM94.3439 17.0909H93.9439V17.4909H94.3439V17.0909ZM98.2473 17.0909H98.6473V16.6909H98.2473V17.0909ZM98.2473 19V19.4H98.6473V19H98.2473ZM92.3746 19V10.2727H91.5746V19H92.3746ZM91.9746 10.6727H98.2644V9.87273H91.9746V10.6727ZM97.8644 10.2727V12.1818H98.6644V10.2727H97.8644ZM98.2644 11.7818H94.3439V12.5818H98.2644V11.7818ZM93.9439 12.1818V13.6818H94.7439V12.1818H93.9439ZM94.3439 14.0818H97.9405V13.2818H94.3439V14.0818ZM97.5405 13.6818V15.5909H98.3405V13.6818H97.5405ZM97.9405 15.1909H94.3439V15.9909H97.9405V15.1909ZM93.9439 15.5909V17.0909H94.7439V15.5909H93.9439ZM94.3439 17.4909H98.2473V16.6909H94.3439V17.4909ZM97.8473 17.0909V19H98.6473V17.0909H97.8473ZM98.2473 18.6H91.9746V19.4H98.2473V18.6ZM101.591 12.1818H101.191V12.5818H101.591V12.1818ZM101.591 10.2727V9.87273H101.191V10.2727H101.591ZM109.177 10.2727H109.577V9.87273H109.177V10.2727ZM109.177 12.1818V12.5818H109.577V12.1818H109.177ZM106.552 12.1818V11.7818H106.152V12.1818H106.552ZM106.552 19V19.4H106.952V19H106.552ZM104.216 19H103.816V19.4H104.216V19ZM104.216 12.1818H104.616V11.7818H104.216V12.1818ZM101.991 12.1818V10.2727H101.191V12.1818H101.991ZM101.591 10.6727H109.177V9.87273H101.591V10.6727ZM108.777 10.2727V12.1818H109.577V10.2727H108.777ZM109.177 11.7818H106.552V12.5818H109.177V11.7818ZM106.152 12.1818V19H106.952V12.1818H106.152ZM106.552 18.6H104.216V19.4H106.552V18.6ZM104.616 19V12.1818H103.816V19H104.616ZM104.216 11.7818H101.591V12.5818H104.216V11.7818ZM117.546 17.0952L117.894 17.2928L117.894 17.2922L117.546 17.0952ZM116.016 18.608L116.204 18.9612L116.205 18.9606L116.016 18.608ZM111.712 18.6037L111.522 18.9553L111.523 18.9563L111.712 18.6037ZM110.187 17.0866L109.838 17.2825L109.839 17.2843L110.187 17.0866ZM110.187 12.1818L109.838 11.9848L109.838 11.9853L110.187 12.1818ZM111.712 10.669L111.9 11.022L111.901 11.0217L111.712 10.669ZM116.016 10.669L115.827 11.0217L115.829 11.0223L116.016 10.669ZM117.546 12.1818L117.198 12.3788L117.198 12.3795L117.546 12.1818ZM115.466 13.3153L115.092 13.4568L115.094 13.4603L115.466 13.3153ZM114.857 12.4972L114.627 12.8245L114.631 12.8273L114.857 12.4972ZM112.876 12.4972L113.103 12.8262L113.104 12.8257L112.876 12.4972ZM112.266 13.3153L111.893 13.1714L111.892 13.1729L112.266 13.3153ZM112.266 15.9616L111.892 16.1031L111.893 16.1066L112.266 15.9616ZM112.876 16.7798L112.646 17.1072L112.65 17.11L112.876 16.7798ZM114.857 16.7798L115.085 17.1088L115.085 17.1083L114.857 16.7798ZM115.466 15.9616L115.093 15.8177L115.093 15.8192L115.466 15.9616ZM117.713 14.6364C117.713 15.557 117.534 16.3046 117.198 16.8982L117.894 17.2922C118.314 16.5505 118.513 15.6589 118.513 14.6364H117.713ZM117.198 16.8975C116.856 17.5001 116.399 17.949 115.827 18.2553L116.205 18.9606C116.917 18.5794 117.481 18.0198 117.894 17.2928L117.198 16.8975ZM115.829 18.2547C115.249 18.5623 114.599 18.7193 113.868 18.7193V19.5193C114.718 19.5193 115.499 19.3354 116.204 18.9612L115.829 18.2547ZM113.868 18.7193C113.133 18.7193 112.48 18.5609 111.901 18.2511L111.523 18.9563C112.229 19.334 113.013 19.5193 113.868 19.5193V18.7193ZM111.903 18.2521C111.333 17.943 110.877 17.4923 110.534 16.889L109.839 17.2843C110.252 18.0106 110.813 18.5712 111.522 18.9553L111.903 18.2521ZM110.535 16.8908C110.202 16.2967 110.024 15.5513 110.024 14.6364H109.224C109.224 15.6533 109.422 16.5414 109.838 17.2825L110.535 16.8908ZM110.024 14.6364C110.024 13.7152 110.202 12.9689 110.535 12.3783L109.838 11.9853C109.421 12.7243 109.224 13.6143 109.224 14.6364H110.024ZM110.535 12.3788C110.877 11.7732 111.332 11.325 111.9 11.022L111.524 10.3161C110.814 10.6949 110.251 11.2552 109.839 11.9848L110.535 12.3788ZM111.901 11.0217C112.48 10.7118 113.133 10.5534 113.868 10.5534V9.75341C113.013 9.75341 112.229 9.93875 111.523 10.3164L111.901 11.0217ZM113.868 10.5534C114.598 10.5534 115.248 10.7116 115.827 11.0217L116.205 10.3164C115.5 9.93897 114.718 9.75341 113.868 9.75341V10.5534ZM115.829 11.0223C116.4 11.3255 116.855 11.7737 117.198 12.3788L117.894 11.9848C117.481 11.2547 116.917 10.6944 116.204 10.3157L115.829 11.0223ZM117.198 12.3795C117.534 12.9698 117.713 13.7157 117.713 14.6364H118.513C118.513 13.6139 118.314 12.7234 117.894 11.9842L117.198 12.3795ZM116.075 14.6364C116.075 14.0808 116.002 13.5879 115.839 13.1704L115.094 13.4603C115.21 13.7587 115.275 14.1465 115.275 14.6364H116.075ZM115.841 13.1739C115.681 12.7506 115.432 12.4058 115.083 12.167L114.631 12.8273C114.822 12.9579 114.98 13.1585 115.092 13.4568L115.841 13.1739ZM115.087 12.1698C114.74 11.9262 114.326 11.8159 113.868 11.8159V12.6159C114.195 12.6159 114.44 12.6932 114.627 12.8245L115.087 12.1698ZM113.868 11.8159C113.411 11.8159 112.996 11.9262 112.647 12.1687L113.104 12.8257C113.295 12.6931 113.542 12.6159 113.868 12.6159V11.8159ZM112.648 12.1682C112.303 12.4066 112.055 12.7503 111.893 13.1714L112.639 13.4593C112.755 13.1588 112.914 12.957 113.103 12.8262L112.648 12.1682ZM111.892 13.1729C111.734 13.5896 111.662 14.0815 111.662 14.6364H112.462C112.462 14.1457 112.526 13.7569 112.64 13.4577L111.892 13.1729ZM111.662 14.6364C111.662 15.1913 111.734 15.6842 111.892 16.1031L112.64 15.8202C112.526 15.5175 112.462 15.1268 112.462 14.6364H111.662ZM111.893 16.1066C112.056 16.5249 112.303 16.8668 112.646 17.1072L113.105 16.4525C112.914 16.3179 112.755 16.1144 112.639 15.8167L111.893 16.1066ZM112.65 17.11C112.998 17.3485 113.412 17.4568 113.868 17.4568V16.6568C113.541 16.6568 113.292 16.5804 113.101 16.4497L112.65 17.11ZM113.868 17.4568C114.325 17.4568 114.738 17.3486 115.085 17.1088L114.63 16.4508C114.442 16.5804 114.196 16.6568 113.868 16.6568V17.4568ZM115.085 17.1083C115.432 16.8676 115.68 16.5245 115.84 16.104L115.093 15.8192C114.98 16.1147 114.822 16.317 114.629 16.4513L115.085 17.1083ZM115.84 16.1056C116.002 15.6859 116.075 15.1921 116.075 14.6364H115.275C115.275 15.1261 115.21 15.5158 115.093 15.8177L115.84 16.1056Z" fill="#3B3B3B" mask="url(#path-5-outside-1_48_2071)"/>
</g>
<defs>
<filter id="filter0_dd_48_2071" x="33.0229" y="9.45342" width="86.4897" height="11.7659" filterUnits="userSpaceOnUse" color-interpolation-filters="sRGB">
<feFlood flood-opacity="0" result="BackgroundImageFix"/>
<feColorMatrix in="SourceAlpha" type="matrix" values="0 0 0 0 0 0 0 0 0 0 0 0 0 0 0 0 0 0 127 0" result="hardAlpha"/>
<feOffset dy="0.5"/>
<feComposite in2="hardAlpha" operator="out"/>
<feColorMatrix type="matrix" values="0 0 0 0 0 0 0 0 0 0 0 0 0 0 0 0 0 0 1 0"/>
<feBlend mode="normal" in2="BackgroundImageFix" result="effect1_dropShadow_48_2071"/>
<feColorMatrix in="SourceAlpha" type="matrix" values="0 0 0 0 0 0 0 0 0 0 0 0 0 0 0 0 0 0 127 0" result="hardAlpha"/>
<feOffset dy="0.7"/>
<feGaussianBlur stdDeviation="0.5"/>
<feComposite in2="hardAlpha" operator="out"/>
<feColorMatrix type="matrix" values="0 0 0 0 0 0 0 0 0 0 0 0 0 0 0 0 0 0 0.8 0"/>
<feBlend mode="normal" in2="effect1_dropShadow_48_2071" result="effect2_dropShadow_48_2071"/>
<feBlend mode="normal" in="SourceGraphic" in2="effect2_dropShadow_48_2071" result="shape"/>
</filter>
</defs>
</svg>
