<svg width="40" height="40" viewBox="0 0 40 40" fill="none" xmlns="http://www.w3.org/2000/svg">
<g clip-path="url(#clip0_70_22580)">
<rect width="40" height="40" rx="20" fill="#003343"/>
<path d="M5.87354 17.5817L10.3927 25.4643H29.9251L33.9162 17.3418L5.87354 17.5817Z" fill="#892E00"/>
<path d="M29.9255 13.6542H10.3926V25.4643H29.9255V13.6542Z" fill="#44170B"/>
<path d="M10.1456 25.9253L5.67993 18.0618H6.58626L11.1066 25.9253H10.1456Z" fill="#E27600"/>
<path d="M30.2121 25.925L34.3749 17.7776H33.4686L29.2517 25.925H30.2121Z" fill="#E27600"/>
<path d="M29.9248 25.0023H10.146V25.9253H29.9248V25.0023Z" fill="#894919"/>
<path d="M9.09001 9.26896C9.09001 9.26896 19.5603 8.66435 30.5734 9.26896L32.0303 9.63244L32.8648 17.6498L6.08179 17.4081L7.32071 9.99414L9.09001 9.26837V9.26896Z" fill="url(#paint0_linear_70_22580)"/>
<path d="M33.3273 9.65926C33.12 9.24945 32.7435 9 32.3361 9H30.7634C30.5828 9 30.4771 9.23935 30.5828 9.4104C32.9662 13.2863 32.2048 16.8588 32.2048 16.8588H7.79574C7.79574 16.8588 7.03433 13.2863 9.41775 9.4104C9.52347 9.23935 9.41775 9 9.23779 9H7.66508C7.25705 9 6.88051 9.24945 6.67323 9.65926C5.96468 11.0627 4.506 14.0602 5.16823 17.4604C5.27216 17.9932 5.68078 18.3697 6.1482 18.3697H33.8518C34.3192 18.3697 34.7278 17.9932 34.8317 17.4604C35.494 14.0596 34.0359 11.0627 33.3267 9.65926H33.3273Z" fill="url(#paint1_linear_70_22580)"/>
<path opacity="0.7" d="M32.0628 13.0688H7.92578L8.04575 12.6276L31.991 12.7505L32.0628 13.0688Z" fill="#602000"/>
<path d="M14.9832 25.5955C14.5211 24.9583 13.1984 24.1125 11.5289 23.4461C9.85939 22.7797 8.31816 22.4816 7.54427 22.6259L7.2188 22.4958L6.89333 23.3107C6.65161 23.9153 8.26708 25.1287 10.5014 26.0208C12.7352 26.9129 14.742 27.1451 14.9838 26.5405L15.3092 25.7256L14.9838 25.5955H14.9832Z" fill="#F56C01"/>
<path d="M15.3088 25.7255C15.0671 26.3302 13.0608 26.0979 10.8265 25.2059C8.59276 24.3138 6.97729 23.101 7.21842 22.4958C7.46015 21.8912 9.46642 22.1234 11.7008 23.0155C13.9351 23.9075 15.55 25.1203 15.3088 25.7255Z" fill="url(#paint2_linear_70_22580)"/>
<path d="M13.9344 25.1769C13.7752 25.576 12.4502 25.4228 10.9749 24.8336C9.49956 24.2445 8.43347 23.4439 8.59264 23.0441C8.75182 22.645 10.0769 22.7983 11.5522 23.3874C13.0269 23.976 14.0936 24.7772 13.9344 25.1769Z" fill="#DD5900"/>
<path d="M18.7014 22.3631C18.0362 21.9426 16.4938 21.6475 14.6965 21.6475C12.8993 21.6475 11.3569 21.942 10.6917 22.3631H10.3413V23.241C10.3413 23.8925 12.2912 24.4205 14.6965 24.4205C17.1019 24.4205 19.0518 23.8925 19.0518 23.241V22.3631H18.7014Z" fill="#F56C01"/>
<path d="M19.0523 22.3634C19.0523 23.0149 17.1024 23.5429 14.697 23.5429C12.2916 23.5429 10.3418 23.0149 10.3418 22.3634C10.3418 21.7118 12.2916 21.1838 14.697 21.1838C17.1024 21.1838 19.0523 21.7118 19.0523 22.3634Z" fill="url(#paint3_linear_70_22580)"/>
<path d="M17.5724 22.3635C17.5724 22.7935 16.2847 23.1421 14.6966 23.1421C13.1084 23.1421 11.8208 22.7935 11.8208 22.3635C11.8208 21.9335 13.1084 21.5848 14.6966 21.5848C16.2847 21.5848 17.5724 21.9335 17.5724 22.3635Z" fill="#F56C01"/>
<path d="M28.017 23.1805C27.3519 22.76 25.8094 22.4648 24.0122 22.4648C22.215 22.4648 20.6726 22.76 20.0074 23.1805H19.657V24.0583C19.657 24.7099 21.6068 25.2379 24.0122 25.2379C26.4176 25.2379 28.3675 24.7099 28.3675 24.0583V23.1805H28.017Z" fill="#F56C01"/>
<path d="M24.0122 24.3602C26.4176 24.3602 28.3675 23.8321 28.3675 23.1806C28.3675 22.5292 26.4176 22.0011 24.0122 22.0011C21.6069 22.0011 19.657 22.5292 19.657 23.1806C19.657 23.8321 21.6069 24.3602 24.0122 24.3602Z" fill="url(#paint4_linear_70_22580)"/>
<path d="M24.0125 23.9592C25.6007 23.9592 26.8883 23.6106 26.8883 23.1806C26.8883 22.7506 25.6007 22.402 24.0125 22.402C22.4242 22.402 21.1367 22.7506 21.1367 23.1806C21.1367 23.6106 22.4242 23.9592 24.0125 23.9592Z" fill="#DB5800"/>
<path d="M33.71 23.1282C33.0608 22.6827 31.5309 22.33 29.7349 22.2622C27.9388 22.1945 26.3863 22.4309 25.7057 22.8265L25.3553 22.8134L25.322 23.69C25.2977 24.341 27.2261 24.942 29.6297 25.0329C32.0333 25.1238 34.0022 24.6694 34.0265 24.0185L34.0598 23.1413L33.7094 23.1282H33.71Z" fill="#F56C01"/>
<path d="M34.0605 23.141C34.0361 23.792 32.0673 24.2457 29.6637 24.1555C27.2601 24.0646 25.331 23.4635 25.356 22.8126C25.3803 22.1617 27.3492 21.7079 29.7528 21.7982C32.1564 21.8891 34.0854 22.4901 34.0605 23.141Z" fill="url(#paint5_linear_70_22580)"/>
<path d="M32.5818 23.0852C32.5657 23.5146 31.2656 23.8145 29.6787 23.7545C28.0917 23.6945 26.8183 23.2978 26.8344 22.8678C26.8504 22.4384 28.1505 22.1384 29.7375 22.1984C31.3244 22.2584 32.5978 22.6552 32.5818 23.0852Z" fill="#F56C01"/>
<path d="M26.3003 20.7903C25.5804 20.4713 24.0119 20.4048 22.2337 20.6667C20.4555 20.9292 18.973 21.446 18.3761 21.9591L18.0293 22.0102L18.1576 22.8785C18.2526 23.5229 20.2589 23.7605 22.6387 23.4095C25.0186 23.0585 26.8704 22.2513 26.7754 21.6069L26.6471 20.7386L26.3003 20.7897V20.7903Z" fill="#F56C01"/>
<path d="M26.6472 20.7395C26.7422 21.3839 24.8904 22.1911 22.5105 22.5421C20.1307 22.8931 18.1244 22.6555 18.0294 22.0111C17.9344 21.3667 19.7862 20.5602 22.1661 20.2086C24.5459 19.8576 26.5522 20.0951 26.6472 20.7395Z" fill="url(#paint6_linear_70_22580)"/>
<path d="M25.1833 20.9552C25.2463 21.3805 24.0234 21.9132 22.4519 22.1455C20.8803 22.3777 19.5559 22.2203 19.4935 21.795C19.4306 21.3698 20.6535 20.837 22.225 20.6048C23.7959 20.3732 25.121 20.53 25.1833 20.9552Z" fill="#F56C01"/>
<path d="M22.2158 23.8753C21.5506 23.4548 20.0082 23.1597 18.211 23.1597C16.4137 23.1597 14.8713 23.4548 14.2061 23.8753H13.8557V24.7532C13.8557 25.4047 15.8056 25.9327 18.211 25.9327C20.6163 25.9327 22.5662 25.4047 22.5662 24.7532V23.8753H22.2158Z" fill="#F56C01"/>
<path d="M22.5659 23.8757C22.5659 24.5272 20.6161 25.0546 18.2107 25.0546C15.8053 25.0546 13.8555 24.5266 13.8555 23.8757C13.8555 23.2248 15.8053 22.6962 18.2107 22.6962C20.6161 22.6962 22.5659 23.2242 22.5659 23.8757Z" fill="url(#paint7_linear_70_22580)"/>
<path d="M21.0863 23.8754C21.0863 24.3054 19.7986 24.6541 18.2105 24.6541C16.6223 24.6541 15.3347 24.3054 15.3347 23.8754C15.3347 23.4454 16.6223 23.0968 18.2105 23.0968C19.7986 23.0968 21.0863 23.4454 21.0863 23.8754Z" fill="#F56C01"/>
<path d="M34.9688 24.4355H5.17578V42.0448H34.9688V24.4355Z" fill="url(#paint8_linear_70_22580)"/>
<g opacity="0.7">
<path d="M34.9304 35.9192H5.52051V36.2934H34.9304V35.9192Z" fill="#602000"/>
</g>
<g opacity="0.7">
<path d="M34.6702 31.7576H5.26025V32.1317H34.6702V31.7576Z" fill="#602000"/>
</g>
<g style="mix-blend-mode:multiply" opacity="0.7">
<path d="M24.6465 31.5436C24.6465 31.8774 24.5236 32.1482 24.3721 32.1482H15.7739C15.6225 32.1482 15.4995 31.8774 15.4995 31.5436" stroke="#6D3400" stroke-width="0.720068" stroke-miterlimit="10"/>
</g>
<path d="M31.754 24.4355H8.39142H5.17651V42.0454H34.9695V24.4361H31.7546L31.754 24.4355ZM31.754 38.8299H8.39142V27.6505H31.754V38.8299Z" fill="url(#paint9_linear_70_22580)"/>
<path d="M15.3665 24.4346H24.7795V31.4577C24.7795 31.6252 24.6435 31.7606 24.4766 31.7606H15.67C15.5025 31.7606 15.367 31.6246 15.367 31.4577V24.4346H15.3665Z" fill="url(#paint10_linear_70_22580)"/>
<path d="M15.3665 24.4346H24.7795V31.4577C24.7795 31.6252 24.6435 31.7606 24.4766 31.7606H15.67C15.5025 31.7606 15.367 31.6246 15.367 31.4577V24.4346H15.3665Z" stroke="#FFCD52" stroke-width="0.499497" stroke-miterlimit="10"/>
<path d="M21.3879 26.6914C21.3879 25.965 20.7987 25.3759 20.0724 25.3759C19.346 25.3759 18.7568 25.965 18.7568 26.6914C18.7568 27.1731 19.0164 27.5936 19.403 27.8228L18.9695 30.2003H21.1753L20.7417 27.8228C21.1284 27.5936 21.3879 27.1737 21.3879 26.6914Z" fill="#44170B"/>
<path d="M12.7432 19.4071L12.9552 20.0818C13.0277 20.3128 13.1964 20.5017 13.4173 20.6003L14.0635 20.8883L13.3247 21.1206C13.134 21.1805 12.979 21.3189 12.8976 21.5013L12.5823 22.2086L12.4457 21.7733C12.3251 21.3902 12.0459 21.0766 11.6789 20.9133L11.262 20.7274L11.9551 20.5094C12.1742 20.4405 12.3536 20.2807 12.4474 20.0705L12.7432 19.4065V19.4071Z" fill="#FFFFFA"/>
<path d="M21.869 20.4399L22.1713 21.3932C22.2746 21.7198 22.5134 21.9859 22.827 22.1249L23.7416 22.5294L22.6981 22.8602C22.4291 22.9457 22.2099 23.1423 22.0959 23.4001L21.6528 24.4014L21.458 23.7867C21.2864 23.245 20.8902 22.8032 20.3705 22.5733L19.7808 22.312L20.7601 22.0014C21.0702 21.9028 21.3226 21.6765 21.4544 21.3795L21.8702 20.4399H21.869Z" fill="#FFFFFA"/>
<path d="M33.3357 21.4709L33.4901 21.9615C33.543 22.1296 33.6653 22.2668 33.8263 22.3387L34.2961 22.5483L33.7586 22.717C33.6202 22.7603 33.5067 22.8613 33.4479 22.9938L33.2187 23.5081L33.1189 23.1915C33.031 22.9124 32.8279 22.6849 32.5612 22.5655L32.2583 22.4307L32.7625 22.2721C32.9223 22.2222 33.0524 22.1058 33.1207 21.9532L33.3357 21.4703V21.4709Z" fill="#FFFFFA"/>
<path d="M10.7291 21.3545L10.8645 21.6627C10.9108 21.7685 11.0005 21.8492 11.1104 21.8843L11.4311 21.987L11.0931 22.1355C11.0058 22.1735 10.9399 22.2478 10.9108 22.338L10.7986 22.6896L10.7113 22.4907C10.634 22.3155 10.4856 22.1818 10.3032 22.123L10.0959 22.0571L10.4131 21.9175C10.5135 21.8736 10.5901 21.7887 10.6234 21.6841L10.7291 21.3545Z" fill="#FFFFFA"/>
</g>
<defs>
<linearGradient id="paint0_linear_70_22580" x1="19.4712" y1="17.3131" x2="19.3952" y2="11.4677" gradientUnits="userSpaceOnUse">
<stop stop-color="#FF6C12"/>
<stop offset="1" stop-color="#CE5414"/>
</linearGradient>
<linearGradient id="paint1_linear_70_22580" x1="20.0306" y1="18.5194" x2="19.8833" y2="4.81818" gradientUnits="userSpaceOnUse">
<stop offset="0.08" stop-color="#FFD049"/>
<stop offset="0.19" stop-color="#FFB541"/>
<stop offset="0.52" stop-color="#FF820E"/>
<stop offset="0.93" stop-color="#FF820E"/>
</linearGradient>
<linearGradient id="paint2_linear_70_22580" x1="10.2585" y1="21.7694" x2="12.7091" y2="27.4787" gradientUnits="userSpaceOnUse">
<stop stop-color="#FFB541"/>
<stop offset="1" stop-color="#FF820E"/>
</linearGradient>
<linearGradient id="paint3_linear_70_22580" x1="12.8963" y1="20.5632" x2="17.2901" y2="24.957" gradientUnits="userSpaceOnUse">
<stop stop-color="#FFB541"/>
<stop offset="1" stop-color="#FF820E"/>
</linearGradient>
<linearGradient id="paint4_linear_70_22580" x1="22.2114" y1="21.3804" x2="26.6053" y2="25.7743" gradientUnits="userSpaceOnUse">
<stop stop-color="#FFB541"/>
<stop offset="1" stop-color="#FF820E"/>
</linearGradient>
<linearGradient id="paint5_linear_70_22580" x1="27.9768" y1="21.1099" x2="32.2019" y2="25.6662" gradientUnits="userSpaceOnUse">
<stop stop-color="#FFB541"/>
<stop offset="1" stop-color="#FF820E"/>
</linearGradient>
<linearGradient id="paint6_linear_70_22580" x1="20.2947" y1="19.8549" x2="25.2833" y2="23.5597" gradientUnits="userSpaceOnUse">
<stop stop-color="#FFB541"/>
<stop offset="1" stop-color="#FF820E"/>
</linearGradient>
<linearGradient id="paint7_linear_70_22580" x1="15.8968" y1="21.5624" x2="20.2906" y2="25.9556" gradientUnits="userSpaceOnUse">
<stop stop-color="#FFDA9E"/>
<stop offset="0.34" stop-color="#FFB541"/>
<stop offset="1" stop-color="#FF820E"/>
</linearGradient>
<linearGradient id="paint8_linear_70_22580" x1="20.1842" y1="53.8846" x2="20.0227" y2="24.0923" gradientUnits="userSpaceOnUse">
<stop offset="0.05" stop-color="#FD8711"/>
<stop offset="0.69" stop-color="#B03E05"/>
</linearGradient>
<linearGradient id="paint9_linear_70_22580" x1="2.98969" y1="16.1568" x2="33.3231" y2="46.4903" gradientUnits="userSpaceOnUse">
<stop offset="0.08" stop-color="#FFD836"/>
<stop offset="0.58" stop-color="#F7941D"/>
<stop offset="1" stop-color="#F56C01"/>
</linearGradient>
<linearGradient id="paint10_linear_70_22580" x1="24.9583" y1="33.6701" x2="15.6426" y2="22.8636" gradientUnits="userSpaceOnUse">
<stop offset="0.19" stop-color="#E86104"/>
<stop offset="0.73" stop-color="#FFB541"/>
</linearGradient>
<clipPath id="clip0_70_22580">
<rect width="40" height="40" rx="20" fill="white"/>
</clipPath>
</defs>
</svg>
