<svg width="38" height="38" viewBox="0 0 38 38" fill="none" xmlns="http://www.w3.org/2000/svg">
<rect x="0.804688" y="0.839844" width="37" height="37" fill="black"/>
<rect x="3.80469" y="3.81287" width="31" height="31" fill="#078EF8"/>
<path d="M3.80469 21.6078L34.8047 16.5341V34.8129H3.80469V21.6078Z" fill="#0967BC"/>
<path fill-rule="evenodd" clip-rule="evenodd" d="M28.4148 29.404C32.0261 27.169 34.0708 23.5485 34.0708 18.9602C34.0708 12.2268 27.4598 5.14368 19.3047 5.14368C11.1496 5.14368 4.53857 12.2268 4.53857 18.9602C4.53857 23.6186 6.64624 27.545 10.3612 29.8159C10.5308 31.8689 12.2507 33.4821 14.3474 33.4821H24.4148C26.624 33.4821 28.4148 31.6912 28.4148 29.4821V29.404Z" fill="#1451AE"/>
<path fill-rule="evenodd" clip-rule="evenodd" d="M26.9313 28.7545C30.587 26.7771 32.6738 23.3631 32.6738 18.9638C32.6738 12.8832 26.6883 6.48669 19.3047 6.48669C11.9211 6.48669 5.93555 12.8832 5.93555 18.9638C5.93555 23.3478 8.00797 27.0139 11.6401 29.0183V29.1916C11.6401 30.8484 12.9832 32.1916 14.6401 32.1916H23.9313C25.5882 32.1916 26.9313 30.8484 26.9313 29.1916V28.7545Z" fill="#011D3E"/>
<path fill-rule="evenodd" clip-rule="evenodd" d="M25.4385 26.9394C29.003 25.2931 31.0547 22.24 31.0547 18.2393C31.0547 13.0109 25.794 7.51086 19.3047 7.51086C12.8153 7.51086 7.55469 13.0109 7.55469 18.2393C7.55469 22.24 9.60634 25.5454 13.1709 27.1853V28.8607C13.1709 29.413 13.6186 29.8607 14.1709 29.8607H24.4385C24.9908 29.8607 25.4385 29.413 25.4385 28.8607V26.9394ZM15.7832 15.8612C16.0904 15.5833 16.5647 15.607 16.8426 15.9142L18.5222 17.7709C18.8001 18.0781 18.7764 18.5523 18.4692 18.8302C18.1621 19.1081 17.6878 19.0844 17.4099 18.7772L15.7302 16.9205C15.4523 16.6133 15.4761 16.1391 15.7832 15.8612ZM21.7859 16.0404C22.0637 15.7333 22.538 15.7095 22.8452 15.9874C23.1524 16.2653 23.1761 16.7396 22.8982 17.0467L21.2185 18.9034C20.9406 19.2106 20.4664 19.2343 20.1592 18.9564C19.852 18.6786 19.8283 18.2043 20.1062 17.8971L21.7859 16.0404ZM17.5842 21.1884C17.5842 23.1214 16.0172 24.6884 14.0842 24.6884C12.1512 24.6884 10.5842 23.1214 10.5842 21.1884C10.5842 19.2554 12.1512 17.6884 14.0842 17.6884C16.0172 17.6884 17.5842 19.2554 17.5842 21.1884ZM24.8047 24.6884C26.7377 24.6884 28.3047 23.1214 28.3047 21.1884C28.3047 19.2554 26.7377 17.6884 24.8047 17.6884C22.8717 17.6884 21.3047 19.2554 21.3047 21.1884C21.3047 23.1214 22.8717 24.6884 24.8047 24.6884ZM19.3047 22.5109L21.0367 25.5109H17.5726L19.3047 22.5109Z" fill="white"/>
</svg>
