<svg width="41" height="40" viewBox="0 0 41 40" fill="none" xmlns="http://www.w3.org/2000/svg">
<g clip-path="url(#clip0_50_23679)">
<path style="mix-blend-mode:screen" fill-rule="evenodd" clip-rule="evenodd" d="M35.5439 15.2952L28.4318 13.762L18.5547 15.2801C18.5547 15.2801 20.782 17.64 20.9664 17.64C21.1507 17.64 35.5439 15.2952 35.5439 15.2952Z" fill="url(#paint0_linear_50_23679)"/>
<path style="mix-blend-mode:color-burn" fill-rule="evenodd" clip-rule="evenodd" d="M25.49 14.2129L18.5469 15.2801C18.5469 15.2801 20.7742 17.64 20.9585 17.64C21.0814 17.64 24.9985 17.0613 29.2688 16.3699C30.2059 16.2196 31.7036 15.5432 30.0676 14.6563C28.4317 13.7695 25.49 14.2129 25.49 14.2129Z" fill="url(#paint1_linear_50_23679)"/>
<path style="mix-blend-mode:color-burn" fill-rule="evenodd" clip-rule="evenodd" d="M24.3151 14.3933L18.5547 15.2802C18.5547 15.2802 20.782 17.6401 20.9664 17.6401C21.0508 17.6401 22.6407 17.2117 25.1599 16.7307C28.0862 16.1745 26.8573 14.8593 24.3151 14.3933Z" fill="url(#paint2_linear_50_23679)"/>
<path style="mix-blend-mode:screen" fill-rule="evenodd" clip-rule="evenodd" d="M16.4656 22.5179C16.4656 22.5179 17.272 36.1062 17.3104 36.5872C17.3488 37.0682 17.4256 37.6394 17.4564 37.6544C17.4871 37.6769 19.0232 38.0076 19.0232 38.0076C19.1307 37.6544 26.2352 22.4878 26.2352 22.4878L16.4733 22.5179H16.4656Z" fill="url(#paint3_linear_50_23679)"/>
<path style="mix-blend-mode:multiply" fill-rule="evenodd" clip-rule="evenodd" d="M17.3104 36.5796C17.3488 37.0606 17.4256 37.6318 17.4563 37.6468C17.487 37.6694 19.0231 38.0001 19.0231 38.0001C19.0462 37.9324 19.292 37.3763 19.6913 36.5195C18.7159 37.2635 17.8096 37.6393 17.2874 36.2339C17.295 36.4143 17.3104 36.542 17.3104 36.5796Z" fill="url(#paint4_linear_50_23679)"/>
<path style="mix-blend-mode:color-burn" fill-rule="evenodd" clip-rule="evenodd" d="M24.5147 22.4878L16.4656 22.5179C16.4656 22.5179 16.7574 27.3955 16.9955 31.4089C17.3949 35.3621 23.7774 28.4928 24.5147 22.4953V22.4878Z" fill="url(#paint5_linear_50_23679)"/>
<path style="mix-blend-mode:screen" fill-rule="evenodd" clip-rule="evenodd" d="M26.5961 3.29269C24.7835 2.78163 22.6022 2.3382 19.8526 2L5.66675 5.29937L9.06153 22.653L12.9095 24.1336L26.5961 3.29269Z" fill="url(#paint6_linear_50_23679)"/>
<path style="mix-blend-mode:color-burn" fill-rule="evenodd" clip-rule="evenodd" d="M14.2229 7.17088C14.4533 7.12579 21.12 5.5475 22.9172 4.9237C24.7145 4.2999 26.5578 3.32287 26.4886 3.36796C26.4195 3.41306 24.8297 3.30784 21.3504 4.21723C17.8711 5.13414 14.2229 7.1784 14.2229 7.1784V7.17088Z" fill="url(#paint7_linear_50_23679)"/>
<path style="mix-blend-mode:color-burn" fill-rule="evenodd" clip-rule="evenodd" d="M19.8449 2L5.66675 5.29937C5.66675 5.29937 18.3165 2.36075 20.7436 2.63132C23.1706 2.90188 26.5961 3.29269 26.5961 3.29269C24.7835 2.78163 22.6022 2.3382 19.8526 2H19.8449Z" fill="url(#paint8_linear_50_23679)"/>
<path fill-rule="evenodd" clip-rule="evenodd" d="M11.6114 7.95229C11.6114 7.95229 10.9279 7.89968 10.252 7.6216C8.77735 7.01283 6.5116 5.83288 5.66675 5.29175L9.06153 22.6454L12.9095 24.126L11.6191 7.95229H11.6114Z" fill="url(#paint9_linear_50_23679)"/>
<path style="mix-blend-mode:color-burn" fill-rule="evenodd" clip-rule="evenodd" d="M11.9032 16.6556L11.0814 8.98964C11.0814 8.98964 6.53454 5.96834 6.39629 6.1863C6.25804 6.41177 8.49307 17.0088 8.66972 18.0385C8.84637 19.0681 11.6267 20.0452 11.9032 16.6556Z" fill="url(#paint10_linear_50_23679)"/>
<path fill-rule="evenodd" clip-rule="evenodd" d="M27.0185 3.66851L26.596 3.29272C22.6252 4.99126 17.871 6.27644 12.126 7.05807L11.6575 8.00504L12.9094 24.1261L13.3165 24.3291L20.5745 23.1341C20.5745 23.1341 19.0538 36.5044 19.0384 37.0531C19.0231 37.6092 19.0307 38 19.0307 38C19.0307 38 19.169 37.9549 19.192 37.9249C24.2535 29.4622 29.6529 21.8564 35.659 15.4831L35.5438 15.2952L24.5837 16.9036L27.0185 3.67602V3.66851Z" fill="url(#paint11_radial_50_23679)"/>
<path style="mix-blend-mode:color-burn" fill-rule="evenodd" clip-rule="evenodd" d="M35.6514 15.4831C35.6514 15.4831 24.6222 18.5345 23.9386 18.0685C23.6007 17.8355 24.6068 14.3031 25.3749 10.7858C26.1736 7.14823 26.7343 3.5332 26.7343 3.5332L26.9724 3.85638L24.5761 16.9036L35.5131 15.2952L35.6514 15.4831Z" fill="url(#paint12_linear_50_23679)"/>
<path style="mix-blend-mode:color-burn" fill-rule="evenodd" clip-rule="evenodd" d="M35.6207 15.4455C35.5976 15.4981 35.5515 15.5733 35.4824 15.6635V15.6785C32.9709 18.3541 30.5669 21.2401 28.2474 24.3215C28.6007 23.7353 29.6837 22.0217 30.8895 20.3833C32.464 18.2338 33.2551 17.2568 33.3933 16.5954C33.5316 15.934 25.0139 16.8885 25.0139 16.8885C25.0139 16.8885 34.7297 15.3478 35.5592 15.3328C35.6053 15.3328 35.6437 15.3328 35.6591 15.3328C35.6821 15.3328 35.6591 15.3779 35.6207 15.4455Z" fill="url(#paint13_linear_50_23679)"/>
<path style="mix-blend-mode:color-burn" fill-rule="evenodd" clip-rule="evenodd" d="M27.0186 3.66851L26.5961 3.29272C25.7743 3.64596 24.9064 3.97665 24.0078 4.29231C27.1952 4.63803 25.3749 11.3345 24.9141 15.1224L27.0262 3.66851H27.0186Z" fill="url(#paint14_linear_50_23679)"/>
<path style="mix-blend-mode:color-burn" fill-rule="evenodd" clip-rule="evenodd" d="M19.0307 38.0001C19.0307 38.0001 19.0307 37.6092 19.0307 37.0531C19.0461 36.5044 20.5668 23.1341 20.5668 23.1341L13.3164 24.3291C13.3164 24.3291 13.3625 24.299 13.4316 24.2765C14.5146 23.7654 20.682 21.2176 22.1029 21.3829C23.6083 21.5633 19.0307 38.0001 19.0307 38.0001Z" fill="url(#paint15_linear_50_23679)"/>
<path fill-rule="evenodd" clip-rule="evenodd" d="M19.722 30.6572C19.3687 33.7987 19.0461 36.7975 19.0384 37.053C19.023 37.6092 19.0307 38 19.0307 38C19.0307 38 19.169 37.9549 19.192 37.9248C20.7972 35.2342 22.4485 32.6413 24.1383 30.1311C22.8633 31.6342 19.9908 36.5119 19.553 36.4743C19.1075 36.4443 19.7297 31.7094 19.7297 30.6572H19.722Z" fill="white"/>
<path fill-rule="evenodd" clip-rule="evenodd" d="M12.9017 24.1261L13.3088 24.329L14.6989 24.096C12.1951 24.6522 12.8095 19.0004 12.2104 15.2952L12.894 24.1261H12.9017Z" fill="white"/>
<path style="mix-blend-mode:screen" fill-rule="evenodd" clip-rule="evenodd" d="M35.6514 15.4831L35.5362 15.2952L24.5762 16.9035C24.5762 16.9035 29.8373 17.0613 35.6438 15.4831H35.6514Z" fill="url(#paint16_radial_50_23679)"/>
<path style="mix-blend-mode:screen" fill-rule="evenodd" clip-rule="evenodd" d="M20.5669 23.134C20.5669 23.134 19.0462 36.5043 19.0308 37.053C19.0155 37.6091 19.0232 38 19.0232 38C19.0232 38 19.1614 37.9549 19.1845 37.9248C20.8281 35.1741 20.5669 23.1265 20.5669 23.1265V23.134Z" fill="url(#paint17_radial_50_23679)"/>
<path style="mix-blend-mode:screen" fill-rule="evenodd" clip-rule="evenodd" d="M27.0185 3.66851L26.596 3.29272C22.6252 4.99126 17.871 6.27644 12.126 7.05807L11.6575 8.00504C17.487 6.61464 22.8095 5.17164 27.0185 3.66851Z" fill="url(#paint18_radial_50_23679)"/>
<path fill-rule="evenodd" clip-rule="evenodd" d="M12.1184 7.05811L9.44556 7.23097C10.0677 7.68942 10.7896 7.97502 11.6499 8.00508C12.6099 7.66687 12.5638 7.35873 12.1184 7.05811Z" fill="white"/>
<path style="mix-blend-mode:screen" fill-rule="evenodd" clip-rule="evenodd" d="M12.6791 8.88441C11.8572 10.0193 12.8173 23.0514 13.9079 23.1191C14.9986 23.1867 21.2812 18.6397 23.0554 16.5053C24.8296 14.3708 27.2182 4.41259 25.9202 4.9462C24.6222 5.47981 13.4932 7.74954 12.6714 8.89192L12.6791 8.88441Z" fill="url(#paint19_linear_50_23679)"/>
<path style="mix-blend-mode:screen" fill-rule="evenodd" clip-rule="evenodd" d="M21.6268 21.7811C21.527 21.969 19.5761 34.1444 19.5761 35.0087C19.5761 35.873 19.4379 37.0154 19.6453 36.6772C19.7451 36.5193 22.5562 30.7623 26.1353 25.8546C29.9909 20.5636 33.8542 17.0989 33.5086 16.7682C33.1629 16.4375 22.1722 20.7139 21.6268 21.7811Z" fill="url(#paint20_linear_50_23679)"/>
<path style="mix-blend-mode:screen" fill-rule="evenodd" clip-rule="evenodd" d="M23.2858 4.71304C21.7804 5.34435 11.9494 7.65918 11.7651 7.69675C11.742 7.69675 11.8265 7.9598 11.6575 7.99738C11.6575 7.99738 10.9202 7.89968 10.252 7.61408C8.76199 7.00531 6.5116 5.83287 5.66675 5.29174C5.66675 5.29174 13.5853 3.38277 17.9171 3.51053C22.2412 3.64582 24.7912 4.08924 23.2858 4.71304Z" fill="url(#paint21_linear_50_23679)"/>
<path fill-rule="evenodd" clip-rule="evenodd" d="M10.0984 7.62166C10.0984 7.62166 11.4732 8.29056 11.7497 8.25298C12.0262 8.2154 16.0969 6.90016 16.3349 6.80997C16.573 6.71979 12.2182 7.86968 11.7651 7.85465C11.3119 7.83962 10.0984 7.62166 10.0984 7.62166Z" fill="white"/>
<path style="mix-blend-mode:screen" fill-rule="evenodd" clip-rule="evenodd" d="M9.06161 22.6454C9.06161 22.6454 8.53166 19.9623 10.0447 20.1051C11.5578 20.2479 13.3857 24.3139 13.3089 24.3289C13.2321 24.3439 9.05393 22.6454 9.05393 22.6454H9.06161Z" fill="url(#paint22_linear_50_23679)"/>
</g>
<defs>
<linearGradient id="paint0_linear_50_23679" x1="30.6361" y1="12.9428" x2="23.2484" y2="17.9759" gradientUnits="userSpaceOnUse">
<stop stop-color="#E52EA8"/>
<stop offset="1"/>
</linearGradient>
<linearGradient id="paint1_linear_50_23679" x1="29.7143" y1="14.1152" x2="23.4014" y2="16.0701" gradientUnits="userSpaceOnUse">
<stop stop-color="#FFF7F5"/>
<stop offset="0.16" stop-color="#F8EEF2"/>
<stop offset="0.41" stop-color="#E7D8ED"/>
<stop offset="0.73" stop-color="#CBB3E4"/>
<stop offset="1" stop-color="#AE8EDB"/>
</linearGradient>
<linearGradient id="paint2_linear_50_23679" x1="27.2336" y1="15.3177" x2="21.0496" y2="16.2978" gradientUnits="userSpaceOnUse">
<stop stop-color="#FFF7F5"/>
<stop offset="0.16" stop-color="#F8EEF2"/>
<stop offset="0.41" stop-color="#E7D8ED"/>
<stop offset="0.73" stop-color="#CBB3E4"/>
<stop offset="1" stop-color="#AE8EDB"/>
</linearGradient>
<linearGradient id="paint3_linear_50_23679" x1="22.6637" y1="40.0519" x2="21.2807" y2="23.0014" gradientUnits="userSpaceOnUse">
<stop stop-color="#E52EA8"/>
<stop offset="1"/>
</linearGradient>
<linearGradient id="paint4_linear_50_23679" x1="18.6775" y1="33.5583" x2="18.4054" y2="37.8205" gradientUnits="userSpaceOnUse">
<stop stop-color="#FFF7F5"/>
<stop offset="0.16" stop-color="#F8EEF2"/>
<stop offset="0.41" stop-color="#E7D8ED"/>
<stop offset="0.73" stop-color="#CBB3E4"/>
<stop offset="1" stop-color="#AE8EDB"/>
</linearGradient>
<linearGradient id="paint5_linear_50_23679" x1="19.6837" y1="33.9191" x2="20.5076" y2="21.7563" gradientUnits="userSpaceOnUse">
<stop stop-color="#FFF7F5"/>
<stop offset="0.16" stop-color="#F8EEF2"/>
<stop offset="0.41" stop-color="#E7D8ED"/>
<stop offset="0.73" stop-color="#CBB3E4"/>
<stop offset="1" stop-color="#AE8EDB"/>
</linearGradient>
<linearGradient id="paint6_linear_50_23679" x1="16.1199" y1="5.03633" x2="16.0316" y2="14.0101" gradientUnits="userSpaceOnUse">
<stop stop-color="#E52EA8"/>
<stop offset="1"/>
</linearGradient>
<linearGradient id="paint7_linear_50_23679" x1="21.9111" y1="7.20095" x2="18.8987" y2="3.26694" gradientUnits="userSpaceOnUse">
<stop stop-color="#FFF7F5"/>
<stop offset="0.16" stop-color="#F8EEF2"/>
<stop offset="0.41" stop-color="#E7D8ED"/>
<stop offset="0.73" stop-color="#CBB3E4"/>
<stop offset="1" stop-color="#AE8EDB"/>
</linearGradient>
<linearGradient id="paint8_linear_50_23679" x1="16.189" y1="0.28643" x2="16.0934" y2="6.86269" gradientUnits="userSpaceOnUse">
<stop stop-color="#FFF7F5"/>
<stop offset="0.16" stop-color="#F8EEF2"/>
<stop offset="0.41" stop-color="#E7D8ED"/>
<stop offset="0.73" stop-color="#CBB3E4"/>
<stop offset="1" stop-color="#AE8EDB"/>
</linearGradient>
<linearGradient id="paint9_linear_50_23679" x1="8.17827" y1="41.0588" x2="9.32563" y2="12.4672" gradientUnits="userSpaceOnUse">
<stop stop-color="#FF91A7"/>
<stop offset="0.1" stop-color="#FB89A8"/>
<stop offset="0.24" stop-color="#F274AE"/>
<stop offset="0.42" stop-color="#E253B6"/>
<stop offset="0.62" stop-color="#CD24C2"/>
<stop offset="0.76" stop-color="#BD00CC"/>
<stop offset="1" stop-color="#8B00CC"/>
</linearGradient>
<linearGradient id="paint10_linear_50_23679" x1="10.9662" y1="18.6397" x2="7.55513" y2="1.85037" gradientUnits="userSpaceOnUse">
<stop stop-color="#FFF7F5"/>
<stop offset="0.16" stop-color="#F8EEF2"/>
<stop offset="0.41" stop-color="#E7D8ED"/>
<stop offset="0.73" stop-color="#CBB3E4"/>
<stop offset="1" stop-color="#AE8EDB"/>
</linearGradient>
<radialGradient id="paint11_radial_50_23679" cx="0" cy="0" r="1" gradientUnits="userSpaceOnUse" gradientTransform="translate(21.5883 17.828) scale(18.0031 17.6167)">
<stop stop-color="#FF76DE"/>
<stop offset="0.11" stop-color="#FA6EDC"/>
<stop offset="0.28" stop-color="#EF59D9"/>
<stop offset="0.48" stop-color="#DC38D4"/>
<stop offset="0.71" stop-color="#C209CD"/>
<stop offset="0.76" stop-color="#BD00CC"/>
<stop offset="1" stop-color="#8B00CC"/>
</radialGradient>
<linearGradient id="paint12_linear_50_23679" x1="23.9693" y1="19.9173" x2="27.1299" y2="15.1563" gradientUnits="userSpaceOnUse">
<stop stop-color="#FFF7F5"/>
<stop offset="0.16" stop-color="#F8EEF2"/>
<stop offset="0.41" stop-color="#E7D8ED"/>
<stop offset="0.73" stop-color="#CBB3E4"/>
<stop offset="1" stop-color="#AE8EDB"/>
</linearGradient>
<linearGradient id="paint13_linear_50_23679" x1="26.7727" y1="20.496" x2="33.7341" y2="15.1123" gradientUnits="userSpaceOnUse">
<stop stop-color="#FFF7F5"/>
<stop offset="0.16" stop-color="#F8EEF2"/>
<stop offset="0.41" stop-color="#E7D8ED"/>
<stop offset="0.73" stop-color="#CBB3E4"/>
<stop offset="1" stop-color="#AE8EDB"/>
</linearGradient>
<linearGradient id="paint14_linear_50_23679" x1="24.3381" y1="9.77874" x2="29.2255" y2="6.73078" gradientUnits="userSpaceOnUse">
<stop stop-color="#FFF7F5"/>
<stop offset="0.16" stop-color="#F8EEF2"/>
<stop offset="0.41" stop-color="#E7D8ED"/>
<stop offset="0.73" stop-color="#CBB3E4"/>
<stop offset="1" stop-color="#AE8EDB"/>
</linearGradient>
<linearGradient id="paint15_linear_50_23679" x1="23.2857" y1="17.8731" x2="18.1866" y2="27.8246" gradientUnits="userSpaceOnUse">
<stop stop-color="#FFF7F5"/>
<stop offset="0.16" stop-color="#F8EEF2"/>
<stop offset="0.41" stop-color="#E7D8ED"/>
<stop offset="0.73" stop-color="#CBB3E4"/>
<stop offset="1" stop-color="#AE8EDB"/>
</linearGradient>
<radialGradient id="paint16_radial_50_23679" cx="0" cy="0" r="1" gradientUnits="userSpaceOnUse" gradientTransform="translate(26.8266 17.2643) scale(19.2012 18.7891)">
<stop stop-color="#FFE3C7"/>
<stop offset="0.11" stop-color="#FADEC3"/>
<stop offset="0.23" stop-color="#ECD2B8"/>
<stop offset="0.36" stop-color="#D6BEA7"/>
<stop offset="0.5" stop-color="#B6A28E"/>
<stop offset="0.64" stop-color="#8E7E6E"/>
<stop offset="0.78" stop-color="#5C5248"/>
<stop offset="0.92" stop-color="#221F1B"/>
<stop offset="1"/>
</radialGradient>
<radialGradient id="paint17_radial_50_23679" cx="0" cy="0" r="1" gradientUnits="userSpaceOnUse" gradientTransform="translate(20.6898 33.4154) scale(18.5177 18.1203)">
<stop stop-color="#FFE3C7"/>
<stop offset="0.11" stop-color="#FADEC3"/>
<stop offset="0.23" stop-color="#ECD2B8"/>
<stop offset="0.36" stop-color="#D6BEA7"/>
<stop offset="0.5" stop-color="#B6A28E"/>
<stop offset="0.64" stop-color="#8E7E6E"/>
<stop offset="0.78" stop-color="#5C5248"/>
<stop offset="0.92" stop-color="#221F1B"/>
<stop offset="1"/>
</radialGradient>
<radialGradient id="paint18_radial_50_23679" cx="0" cy="0" r="1" gradientUnits="userSpaceOnUse" gradientTransform="translate(19.6989 6.77247) scale(14.616 14.3023)">
<stop stop-color="#FFBBEC"/>
<stop offset="0.12" stop-color="#FAB7E7"/>
<stop offset="0.24" stop-color="#ECADDB"/>
<stop offset="0.37" stop-color="#D69DC6"/>
<stop offset="0.5" stop-color="#B686A9"/>
<stop offset="0.64" stop-color="#8E6883"/>
<stop offset="0.78" stop-color="#5C4355"/>
<stop offset="0.92" stop-color="#221920"/>
<stop offset="1"/>
</radialGradient>
<linearGradient id="paint19_linear_50_23679" x1="18.1706" y1="21.8639" x2="19.2741" y2="8.47456" gradientUnits="userSpaceOnUse">
<stop stop-color="#E52EA8"/>
<stop offset="1"/>
</linearGradient>
<linearGradient id="paint20_linear_50_23679" x1="24.2536" y1="34.2346" x2="26.8768" y2="21.9153" gradientUnits="userSpaceOnUse">
<stop stop-color="#E52EA8"/>
<stop offset="1"/>
</linearGradient>
<linearGradient id="paint21_linear_50_23679" x1="5.66675" y1="5.75771" x2="23.7236" y2="5.75771" gradientUnits="userSpaceOnUse">
<stop stop-color="#E52EA8"/>
<stop offset="1"/>
</linearGradient>
<linearGradient id="paint22_linear_50_23679" x1="11.143" y1="25.3661" x2="11.143" y2="20.8642" gradientUnits="userSpaceOnUse">
<stop stop-color="#E52EA8"/>
<stop offset="1"/>
</linearGradient>
<clipPath id="clip0_50_23679">
<rect width="30" height="36" fill="white" transform="translate(5.66675 2)"/>
</clipPath>
</defs>
</svg>
