<svg width="33" height="35" viewBox="0 0 33 35" fill="none" xmlns="http://www.w3.org/2000/svg">
<rect x="0.5" y="0.5" width="32" height="34" rx="4.5" fill="#A3172E"/>
<rect x="0.5" y="0.5" width="32" height="34" rx="4.5" stroke="black"/>
<path d="M0 6C0 3.23858 2.23858 1 5 1H28C30.7614 1 33 3.23858 33 6V26C33 28.7614 30.7614 31 28 31H5C2.23858 31 0 28.7614 0 26V6Z" fill="url(#paint0_radial_79_19911)"/>
<path d="M25.34 9.37159L25.3399 9.36424L25.3396 9.35689C25.3056 8.6809 25.0443 8.00868 24.517 7.48372C23.4005 6.37209 21.5998 6.37209 20.4833 7.48372L16.9536 10.9981C16.7002 11.2503 16.2912 11.2504 16.0378 10.9983C16.0377 10.9982 16.0376 10.9982 16.0376 10.9981L12.5182 7.48407L12.5182 7.48407L12.5165 7.48246C11.4003 6.38247 9.60162 6.38247 8.48543 7.48246L8.48543 7.48245L8.48416 7.48372C7.9569 8.00868 7.69554 8.6809 7.66159 9.35689L7.66115 9.36566V9.37445V10.609C7.66115 11.321 7.94935 12.0256 8.48156 12.5668L8.48155 12.5668L8.48416 12.5694L11.9348 16.005L8.48535 19.4394C7.90179 20.0098 7.62994 20.7812 7.65115 21.5355V22.7351V22.7538L7.65316 22.7725C7.72069 23.4001 7.98086 24.0251 8.47416 24.5163C9.59065 25.6279 11.3913 25.6279 12.5078 24.5163L16.0376 21.0019C16.291 20.7496 16.7002 20.7496 16.9536 21.0019L20.4833 24.5163C21.5998 25.6279 23.4005 25.6279 24.517 24.5163C25.0324 24.0031 25.3055 23.3319 25.3396 22.6531L25.34 22.6443V22.6355V21.4957C25.3613 20.7477 25.0869 19.9981 24.517 19.4306L21.0664 15.995L24.517 12.5594C25.0662 12.0126 25.3273 11.3177 25.3498 10.6102L25.3501 10.6102L25.35 10.5961L25.34 9.37159Z" fill="#AEAEAE"/>
<path d="M25.34 9.37159L25.3399 9.36424L25.3396 9.35689C25.3056 8.6809 25.0443 8.00868 24.517 7.48372C23.4005 6.37209 21.5998 6.37209 20.4833 7.48372L16.9536 10.9981C16.7002 11.2503 16.2912 11.2504 16.0378 10.9983C16.0377 10.9982 16.0376 10.9982 16.0376 10.9981L12.5182 7.48407L12.5182 7.48407L12.5165 7.48246C11.4003 6.38247 9.60162 6.38247 8.48543 7.48246L8.48543 7.48245L8.48416 7.48372C7.9569 8.00868 7.69554 8.6809 7.66159 9.35689L7.66115 9.36566V9.37445V10.609C7.66115 11.321 7.94935 12.0256 8.48156 12.5668L8.48155 12.5668L8.48416 12.5694L11.9348 16.005L8.48535 19.4394C7.90179 20.0098 7.62994 20.7812 7.65115 21.5355V22.7351V22.7538L7.65316 22.7725C7.72069 23.4001 7.98086 24.0251 8.47416 24.5163C9.59065 25.6279 11.3913 25.6279 12.5078 24.5163L16.0376 21.0019C16.291 20.7496 16.7002 20.7496 16.9536 21.0019L20.4833 24.5163C21.5998 25.6279 23.4005 25.6279 24.517 24.5163C25.0324 24.0031 25.3055 23.3319 25.3396 22.6531L25.34 22.6443V22.6355V21.4957C25.3613 20.7477 25.0869 19.9981 24.517 19.4306L21.0664 15.995L24.517 12.5594C25.0662 12.0126 25.3273 11.3177 25.3498 10.6102L25.3501 10.6102L25.35 10.5961L25.34 9.37159Z" stroke="#A6A6A6" stroke-width="0.7" style="mix-blend-mode:multiply"/>
<path fill-rule="evenodd" clip-rule="evenodd" d="M8.73414 7.73414C9.71298 6.76528 11.2911 6.76528 12.27 7.73414L15.7958 11.26C16.1854 11.6495 16.8146 11.6495 17.2042 11.26L20.73 7.73414C21.7089 6.75529 23.287 6.75529 24.2659 7.73414C25.2447 8.71298 25.2447 10.2911 24.2659 11.27L20.74 14.7958C20.3505 15.1854 20.3505 15.8146 20.74 16.2042L24.2659 19.73C25.2447 20.7089 25.2447 22.287 24.2659 23.2659C23.287 24.2447 21.7089 24.2447 20.73 23.2659L17.2042 19.74C16.8146 19.3505 16.1854 19.3505 15.7958 19.74L12.27 23.2659C11.2911 24.2447 9.71298 24.2447 8.73414 23.2659C7.75529 22.287 7.75529 20.7089 8.73414 19.73L12.26 16.2042C12.6495 15.8146 12.6495 15.1854 12.26 14.7958L8.73414 11.27C7.76528 10.2911 7.76528 8.71298 8.73414 7.73414Z" fill="white"/>
<defs>
<radialGradient id="paint0_radial_79_19911" cx="0" cy="0" r="1" gradientUnits="userSpaceOnUse" gradientTransform="translate(16.5 16) rotate(90) scale(15 16.5)">
<stop offset="0.394407" stop-color="#FF556A"/>
<stop offset="1" stop-color="#D63A47"/>
</radialGradient>
</defs>
</svg>
