<svg width="28" height="32" viewBox="0 0 28 32" fill="none" xmlns="http://www.w3.org/2000/svg">
<g clip-path="url(#clip0_56_18829)">
<path d="M4.79663 3.53564C5.02795 4.2045 5.49579 5.23519 6.46724 6.19806C8.48628 8.19921 11.1445 8.38474 11.8292 8.41349C12.0265 8.28275 12.2238 8.15148 12.4211 8.02074C11.7785 7.19023 10.552 5.83732 8.55665 4.79091C7.10006 4.02658 5.74385 3.69296 4.79663 3.53619V3.53564Z" fill="url(#paint0_linear_56_18829)"/>
<path d="M13.2547 7.84947C13.2206 6.98044 13.0631 5.78051 12.5249 4.45255C11.5817 2.12375 9.98786 0.682421 9.11333 0C8.82432 0.0829971 8.29533 0.275572 7.79057 0.720393C7.56444 0.92002 7.39254 1.12616 7.26332 1.31493C7.07468 1.58996 6.79548 1.80153 6.4632 1.89808C6.31091 1.94257 6.14708 2.00549 5.98036 2.095C5.14333 2.5447 4.8647 3.32368 4.79663 3.53524C5.58348 3.82872 6.42744 4.19325 7.30312 4.64838C9.48541 5.78159 11.1364 7.09761 12.3248 8.22431C12.7799 8.04041 12.8001 8.03228 13.2547 7.84892V7.84947Z" fill="url(#paint1_linear_56_18829)"/>
<path d="M11.5156 8.02074C11.0484 7.5412 10.4559 7.02586 9.71637 6.5474C7.42044 5.06322 5.03682 4.80012 3.75156 4.75781C3.50062 4.95581 3.14816 5.28129 2.84703 5.76192C2.69474 6.00494 2.58513 6.24091 2.50553 6.45627C2.35035 6.87614 2.15652 7.28353 1.90097 7.65783C1.83117 7.75981 1.7631 7.86993 1.69849 7.98819C1.19546 8.90984 1.20411 9.79351 1.24565 10.247C2.17498 10.0604 3.21623 9.91177 4.35496 9.84342C7.4689 9.65627 10.1035 10.1418 12.0031 10.6729C11.8404 9.78917 11.6783 8.90496 11.5156 8.02128V8.02074Z" fill="url(#paint2_linear_56_18829)"/>
<g style="mix-blend-mode:multiply" opacity="0.45">
<path d="M10.0885 10.8357C10.239 10.7647 10.464 10.679 10.7501 10.6394C11.0991 10.5911 11.3887 10.6323 11.5681 10.6719C11.5595 10.8086 11.5531 10.9507 11.5508 11.0977C11.5468 11.3516 11.5537 11.5919 11.5681 11.8181C11.6841 11.6928 11.8 11.567 11.916 11.4417C12.0129 11.5648 12.1179 11.6326 12.1946 11.6706C12.7138 11.9293 13.3333 11.5252 13.361 11.5068C13.3207 10.1647 13.2797 8.8221 13.2393 7.48005C13.0357 7.33195 12.7455 7.09652 12.4559 6.75965C12.0331 6.26764 11.7943 5.87598 11.7943 5.87598C11.7943 5.87598 12.0694 6.41573 12.0377 7.10357C12.0244 7.39868 11.9483 7.64061 11.8808 7.80715C11.6702 7.91727 11.3564 8.06048 10.9584 8.16735C9.45621 8.56931 8.06885 8.21671 8.06885 8.21671C8.06885 8.21671 10.134 8.74887 10.3838 9.78823C10.479 10.1837 10.2777 10.5683 10.0879 10.8357H10.0885Z" fill="#C73451"/>
</g>
<path d="M22.9992 3.53564C22.7679 4.2045 22.3001 5.23519 21.3286 6.19806C19.3096 8.19921 16.6514 8.38474 15.9666 8.41349C15.7693 8.28275 15.572 8.15148 15.3748 8.02074C16.0174 7.19023 17.2438 5.83732 19.2392 4.79091C20.6958 4.02658 22.052 3.69296 22.9992 3.53619V3.53564Z" fill="url(#paint3_linear_56_18829)"/>
<path d="M14.5413 7.84941C14.5753 6.98038 14.7328 5.78045 15.271 4.4525C16.2148 2.12424 17.8086 0.682909 18.6826 0.000488281C18.9716 0.0834854 19.5006 0.27606 20.0053 0.720882C20.1784 0.873314 20.3197 1.03009 20.434 1.17981C20.7057 1.53458 21.0876 1.79822 21.5191 1.96096C21.6154 1.9973 21.7146 2.04178 21.8156 2.09549C22.6526 2.54519 22.9312 3.32417 22.9993 3.53573C22.2124 3.82921 21.3685 4.19374 20.4928 4.64887C18.3105 5.78208 16.6595 7.0981 15.4712 8.2248C15.016 8.0409 14.9958 8.03277 14.5413 7.84941Z" fill="url(#paint4_linear_56_18829)"/>
<path d="M16.2799 8.02074C16.7472 7.5412 17.3396 7.02586 18.0792 6.5474C20.3751 5.06322 22.7587 4.80012 24.044 4.75781C24.2949 4.95581 24.6474 5.28129 24.9485 5.76192C25.1274 6.04779 25.2479 6.32337 25.3293 6.56748C25.4492 6.92604 25.6177 7.26943 25.8415 7.5808C25.9298 7.70394 26.0163 7.83901 26.0976 7.98765C26.6001 8.9093 26.592 9.79297 26.5499 10.2465C25.6206 10.0599 24.5793 9.91123 23.4406 9.84288C20.3267 9.65573 17.6921 10.1412 15.7925 10.6723C15.9552 9.78863 16.1173 8.90441 16.2799 8.02074Z" fill="url(#paint5_linear_56_18829)"/>
<g style="mix-blend-mode:multiply" opacity="0.45">
<path d="M17.7077 10.8357C17.5572 10.7647 17.3322 10.679 17.046 10.6394C16.697 10.5911 16.4075 10.6323 16.2281 10.6719C16.2367 10.8086 16.243 10.9507 16.2454 11.0977C16.2494 11.3516 16.2425 11.5919 16.2281 11.8181C16.1121 11.6928 15.9962 11.567 15.8796 11.4417C15.7827 11.5648 15.6777 11.6326 15.601 11.6706C15.0818 11.9293 14.4623 11.5252 14.4346 11.5068C14.475 10.1647 14.5159 8.8221 14.5563 7.48005C14.7599 7.33195 15.0501 7.09652 15.3397 6.75965C15.7625 6.26764 16.0013 5.87598 16.0013 5.87598C16.0013 5.87598 15.7268 6.41573 15.7579 7.10357C15.7712 7.39868 15.8473 7.64061 15.9148 7.80715C16.1254 7.91727 16.4392 8.06048 16.8372 8.16735C18.3394 8.56931 19.7268 8.21671 19.7268 8.21671C19.7268 8.21671 17.6616 8.74887 17.4118 9.78823C17.3166 10.1837 17.5179 10.5683 17.7077 10.8357Z" fill="#C73451"/>
</g>
<path d="M13.8969 9.95145C15.4962 9.95145 16.7927 9.39163 16.7927 8.70106C16.7927 8.0105 15.4962 7.45068 13.8969 7.45068C12.2975 7.45068 11.001 8.0105 11.001 8.70106C11.001 9.39163 12.2975 9.95145 13.8969 9.95145Z" fill="url(#paint6_radial_56_18829)"/>
<path d="M26.4697 14.0867H1.53052V31.9999H26.4697V14.0867Z" fill="url(#paint7_linear_56_18829)"/>
<g style="mix-blend-mode:multiply" opacity="0.55">
<path d="M26.4697 14.0867H1.53052V15.0376H26.4697V14.0867Z" fill="#4F4F4F"/>
</g>
<path d="M28 9.38965H0V14.0869H28V9.38965Z" fill="url(#paint8_linear_56_18829)"/>
<path d="M16.9225 9.38965H11.0776V32.0001H16.9225V9.38965Z" fill="url(#paint9_linear_56_18829)"/>
<g style="mix-blend-mode:soft-light">
<path d="M13.9004 8.88841C14.8979 8.88841 15.7066 8.61323 15.7066 8.27379C15.7066 7.93435 14.8979 7.65918 13.9004 7.65918C12.9029 7.65918 12.0942 7.93435 12.0942 8.27379C12.0942 8.61323 12.9029 8.88841 13.9004 8.88841Z" fill="white"/>
</g>
<path d="M15.1973 7.98233C15.1973 7.81525 14.6314 7.68018 13.934 7.68018C13.2366 7.68018 12.6707 7.81525 12.6707 7.98233C12.6707 8.14941 13.2366 8.28448 13.934 8.28448C14.6314 8.28448 15.1973 8.14941 15.1973 7.98233Z" fill="white"/>
<g style="mix-blend-mode:overlay" opacity="0.4">
<path d="M4.03648 5.37737C3.68402 5.24718 3.33674 5.95401 3.00331 6.75198C2.66931 7.54995 2.20378 8.28119 2.55624 8.41138C2.90871 8.54157 3.94592 8.02243 4.27992 7.22393C4.61393 6.42542 4.38895 5.50757 4.03648 5.37737Z" fill="white"/>
</g>
<g style="mix-blend-mode:overlay" opacity="0.4">
<path d="M23.7014 5.33777C24.0591 5.21951 24.3781 5.93773 24.6804 6.74709C24.9827 7.55591 25.4199 8.30288 25.0623 8.42059C24.7046 8.53885 23.6887 7.98391 23.3859 7.17455C23.0836 6.36574 23.3438 5.45548 23.7009 5.33722L23.7014 5.33777Z" fill="white"/>
</g>
<g style="mix-blend-mode:overlay" opacity="0.7">
<path d="M9.02974 1.08373C8.79034 0.807617 8.11944 1.26437 7.41336 1.80684C6.70669 2.3493 5.92042 2.77242 6.15982 3.04854C6.39922 3.32465 7.5743 3.34852 8.28096 2.80606C8.98763 2.26359 9.26972 1.3593 9.02974 1.08373Z" fill="white"/>
</g>
<g style="mix-blend-mode:overlay" opacity="0.7">
<path d="M21.403 3.29355C21.6407 3.01636 21.0269 2.49342 20.3162 1.95584C19.606 1.41771 19.0032 0.781943 18.7655 1.05914C18.5279 1.33634 18.7459 2.42236 19.4561 2.96048C20.1662 3.49861 21.1653 3.57075 21.403 3.29355Z" fill="white"/>
</g>
<g style="mix-blend-mode:multiply" opacity="0.35">
<path d="M26.4697 23.1253V31.9995H1.53052V22.7363C3.9101 24.4115 7.23631 26.0058 11.7393 26.6882C17.1031 27.5008 22.8371 25.5447 26.4697 23.1253Z" fill="#C13333"/>
</g>
</g>
<defs>
<linearGradient id="paint0_linear_56_18829" x1="4.79663" y1="5.97457" x2="12.4211" y2="5.97457" gradientUnits="userSpaceOnUse">
<stop stop-color="#B03E05"/>
<stop offset="1" stop-color="#CE5414"/>
</linearGradient>
<linearGradient id="paint1_linear_56_18829" x1="7.19352" y1="1.6735" x2="11.4492" y2="8.53499" gradientUnits="userSpaceOnUse">
<stop offset="0.29" stop-color="#FFBE1D"/>
<stop offset="1" stop-color="#FF820E"/>
</linearGradient>
<linearGradient id="paint2_linear_56_18829" x1="1.27161" y1="7.35459" x2="11.9606" y2="8.63949" gradientUnits="userSpaceOnUse">
<stop offset="0.32" stop-color="#FFBE1D"/>
<stop offset="1" stop-color="#FF820E"/>
</linearGradient>
<linearGradient id="paint3_linear_56_18829" x1="15.3748" y1="-0.000141467" x2="22.9992" y2="-0.000141467" gradientUnits="userSpaceOnUse">
<stop stop-color="#B03E05"/>
<stop offset="1" stop-color="#CE5414"/>
</linearGradient>
<linearGradient id="paint4_linear_56_18829" x1="20.2701" y1="1.66694" x2="17.0629" y2="9.00063" gradientUnits="userSpaceOnUse">
<stop offset="0.29" stop-color="#FFBE1D"/>
<stop offset="1" stop-color="#FF820E"/>
</linearGradient>
<linearGradient id="paint5_linear_56_18829" x1="16.3953" y1="9.70943" x2="26.6584" y2="6.60808" gradientUnits="userSpaceOnUse">
<stop offset="0.16" stop-color="#FF820E"/>
<stop offset="0.68" stop-color="#FFBE1D"/>
</linearGradient>
<radialGradient id="paint6_radial_56_18829" cx="0" cy="0" r="1" gradientUnits="userSpaceOnUse" gradientTransform="translate(13.9632 5.95212) scale(2.25324 1.05943)">
<stop stop-color="#FF9813"/>
<stop offset="0.43" stop-color="#FF9211"/>
<stop offset="0.94" stop-color="#FF840E"/>
<stop offset="1" stop-color="#FF820E"/>
</radialGradient>
<linearGradient id="paint7_linear_56_18829" x1="-3.11442" y1="6.94946" x2="17.5291" y2="28.9022" gradientUnits="userSpaceOnUse">
<stop stop-color="#FF4545"/>
<stop offset="1" stop-color="#E42121"/>
</linearGradient>
<linearGradient id="paint8_linear_56_18829" x1="-2.62706" y1="-3.89749" x2="12.8576" y2="12.5692" gradientUnits="userSpaceOnUse">
<stop stop-color="#FF4545"/>
<stop offset="1" stop-color="#E42121"/>
</linearGradient>
<linearGradient id="paint9_linear_56_18829" x1="14.3773" y1="9.01101" x2="13.6554" y2="34.2893" gradientUnits="userSpaceOnUse">
<stop stop-color="#FFBE1D"/>
<stop offset="1" stop-color="#FF820E"/>
</linearGradient>
<clipPath id="clip0_56_18829">
<rect width="28" height="32" fill="white"/>
</clipPath>
</defs>
</svg>
