<svg width="40" height="40" viewBox="0 0 40 40" fill="none" xmlns="http://www.w3.org/2000/svg">
<path d="M38.0002 2L27.5842 5.07795L12.9385 22.1545L17.3444 26.65L34.7127 12.3517L38.0002 2Z" fill="#E4E4E4"/>
<path d="M17.4448 26.6495L34.7125 12.3517L38 2L15.0225 24.5923L17.4448 26.6495Z" fill="url(#paint0_linear_50_23474)"/>
<path d="M12.9385 22.1545L17.3444 26.65L17.5126 26.6047L15.3137 24.3323L38.0002 2L27.5842 5.07795L12.9385 22.1545Z" fill="url(#paint1_linear_50_23474)"/>
<path d="M16.9897 26.289L13.2915 22.5151L5.1029 30.5396L8.8011 34.3134L16.9897 26.289Z" fill="url(#paint2_linear_50_23474)"/>
<path d="M5.35729 30.4264L8.91885 34.0608C9.46054 34.6136 9.45155 35.5018 8.89878 36.0435L8.71302 36.2256C8.05692 36.8685 7.00224 36.8578 6.35929 36.2017L3.16501 32.9421C2.52205 32.286 2.53273 31.2313 3.18884 30.5884L3.3746 30.4064C3.92737 29.8647 4.8156 29.8737 5.35729 30.4264Z" fill="url(#paint3_linear_50_23474)"/>
<mask id="mask0_50_23474" style="mask-type:luminance" maskUnits="userSpaceOnUse" x="5" y="22" width="12" height="13">
<path d="M16.9897 26.289L13.2915 22.5151L5.1029 30.5396L8.8011 34.3134L16.9897 26.289Z" fill="white"/>
</mask>
<g mask="url(#mask0_50_23474)">
<g style="mix-blend-mode:multiply" opacity="0.3">
<path d="M12.7992 31.43L6.03125 28.0068L5.75475 28.5535L12.5227 31.9767L12.7992 31.43Z" fill="#834921"/>
<path d="M13.817 30.8364L8.02148 25.9441L7.62632 26.4122L13.4218 31.3046L13.817 30.8364Z" fill="#834921"/>
<path d="M10.918 34.041L5.12256 29.1487L4.72739 29.6168L10.5229 34.5091L10.918 34.041Z" fill="#834921"/>
<path d="M15.5035 29.4898L9.70801 24.5974L9.31284 25.0655L15.1083 29.9579L15.5035 29.4898Z" fill="#834921"/>
</g>
</g>
<path d="M14.9898 29.7341L9.75828 24.4113C9.4293 24.076 9.33514 23.565 9.51427 23.0844L10.4203 20.6593C10.581 20.2281 11.1264 20.0725 11.4221 20.3728L19.0564 28.1409C19.3516 28.4412 19.1862 28.9843 18.7527 29.1376L16.3121 30.0011C15.8286 30.1722 15.3188 30.0694 14.9898 29.7341Z" fill="url(#paint4_linear_50_23474)"/>
<path d="M4.42942 30.4963C4.17392 30.3792 3.81911 30.6071 3.63653 31.0056C3.45396 31.4034 3.51309 31.8214 3.76858 31.9385C4.02407 32.0557 4.37889 31.8277 4.56147 31.4293C4.74404 31.0314 4.68491 30.6134 4.42942 30.4963Z" fill="white"/>
<path d="M11.6915 21.4029C11.3999 21.2869 10.696 21.4614 10.3837 22.248C10.0713 23.0346 10.2694 24.1358 10.5611 24.2518C10.8527 24.3677 11.3425 23.8234 11.6548 23.0369C11.9671 22.2503 11.9832 21.5189 11.6915 21.4029Z" fill="white"/>
<path d="M33.889 5.13677C33.7587 4.73315 32.0851 4.28533 30.2794 4.86922C28.4738 5.45312 27.2193 6.84885 27.3502 7.2519C27.4805 7.65552 29.0502 7.50854 30.8559 6.92464C32.6615 6.34074 34.0194 5.53982 33.889 5.13677Z" fill="white"/>
<path d="M2.00007 2L12.4161 5.07795L27.0618 22.1545L22.6558 26.65L5.28758 12.3517L2.00007 2Z" fill="#E4E4E4"/>
<path d="M22.5552 26.6495L5.28747 12.3517L1.99996 2L24.9775 24.5923L22.5552 26.6495Z" fill="url(#paint5_linear_50_23474)"/>
<path d="M27.0618 22.1545L22.6558 26.65L22.4876 26.6047L24.6866 24.3323L2.00007 2L12.4161 5.07795L27.0618 22.1545Z" fill="url(#paint6_linear_50_23474)"/>
<path d="M23.0105 26.289L26.7087 22.5151L34.8973 30.5396L31.1991 34.3134L23.0105 26.289Z" fill="url(#paint7_linear_50_23474)"/>
<path d="M34.6427 30.4264L31.0811 34.0608C30.5395 34.6136 30.5485 35.5018 31.1012 36.0435L31.287 36.2256C31.9431 36.8685 32.9978 36.8578 33.6407 36.2017L36.835 32.9421C37.4779 32.286 37.4673 31.2313 36.8112 30.5884L36.6254 30.4064C36.0726 29.8647 35.1844 29.8737 34.6427 30.4264Z" fill="url(#paint8_linear_50_23474)"/>
<mask id="mask1_50_23474" style="mask-type:luminance" maskUnits="userSpaceOnUse" x="23" y="22" width="12" height="13">
<path d="M23.0105 26.289L26.7087 22.5151L34.8973 30.5396L31.1991 34.3134L23.0105 26.289Z" fill="white"/>
</mask>
<g mask="url(#mask1_50_23474)">
<g style="mix-blend-mode:multiply" opacity="0.3">
<path d="M27.2013 31.43L33.9692 28.0068L34.2457 28.5535L27.4778 31.9767L27.2013 31.43Z" fill="#834921"/>
<path d="M26.1833 30.8364L31.9788 25.9441L32.3739 26.4122L26.5785 31.3046L26.1833 30.8364Z" fill="#834921"/>
<path d="M29.0825 34.041L34.8779 29.1487L35.2731 29.6168L29.4776 34.5091L29.0825 34.041Z" fill="#834921"/>
<path d="M24.4968 29.4898L30.2922 24.5974L30.6874 25.0655L24.8919 29.9579L24.4968 29.4898Z" fill="#834921"/>
</g>
</g>
<path d="M25.0104 29.7341L30.242 24.4113C30.5709 24.076 30.6651 23.565 30.486 23.0844L29.58 20.6593C29.4192 20.2281 28.8738 20.0725 28.5781 20.3728L20.9438 28.1409C20.6487 28.4412 20.814 28.9843 21.2475 29.1376L23.6882 30.0011C24.1716 30.1722 24.6814 30.0694 25.0104 29.7341Z" fill="url(#paint9_linear_50_23474)"/>
<path d="M35.5706 30.4963C35.8261 30.3792 36.1809 30.6071 36.3635 31.0056C36.546 31.4034 36.4869 31.8214 36.2314 31.9385C35.9759 32.0557 35.6211 31.8277 35.4385 31.4293C35.256 31.0314 35.3151 30.6134 35.5706 30.4963Z" fill="white"/>
<path d="M28.3082 21.4029C28.5999 21.2869 29.3038 21.4614 29.6161 22.248C29.9284 23.0346 29.7303 24.1358 29.4387 24.2518C29.147 24.3677 28.6573 23.8234 28.345 23.0369C28.0326 22.2503 28.0165 21.5189 28.3082 21.4029Z" fill="white"/>
<path d="M6.11095 5.13677C6.24128 4.73315 7.9149 4.28533 9.72056 4.86922C11.5262 5.45312 12.7807 6.84885 12.6498 7.2519C12.5195 7.65552 10.9498 7.50854 9.14413 6.92464C7.33846 6.34074 5.98062 5.53982 6.11095 5.13677Z" fill="white"/>
<defs>
<linearGradient id="paint0_linear_50_23474" x1="53.4546" y1="25.3178" x2="22.4566" y2="21.4913" gradientUnits="userSpaceOnUse">
<stop stop-color="#F0F0F0"/>
<stop offset="0.24" stop-color="#ECECEC"/>
<stop offset="0.46" stop-color="#E0E0E0"/>
<stop offset="0.68" stop-color="#CDCDCD"/>
<stop offset="0.9" stop-color="#B2B2B2"/>
<stop offset="1" stop-color="#A4A4A4"/>
</linearGradient>
<linearGradient id="paint1_linear_50_23474" x1="25.8486" y1="14.9254" x2="28.8657" y2="31.8289" gradientUnits="userSpaceOnUse">
<stop stop-color="#F0F0F0"/>
<stop offset="0.24" stop-color="#ECECEC"/>
<stop offset="0.46" stop-color="#E0E0E0"/>
<stop offset="0.68" stop-color="#CDCDCD"/>
<stop offset="0.9" stop-color="#B2B2B2"/>
<stop offset="1" stop-color="#A4A4A4"/>
</linearGradient>
<linearGradient id="paint2_linear_50_23474" x1="7.04861" y1="24.439" x2="14.282" y2="31.6492" gradientUnits="userSpaceOnUse">
<stop offset="0.08" stop-color="#CE5414"/>
<stop offset="0.28" stop-color="#CA5214"/>
<stop offset="0.43" stop-color="#C14F14"/>
<stop offset="0.57" stop-color="#B04915"/>
<stop offset="0.7" stop-color="#994116"/>
<stop offset="0.8" stop-color="#7F3818"/>
</linearGradient>
<linearGradient id="paint3_linear_50_23474" x1="8.50351" y1="36.1343" x2="3.49869" y2="30.7978" gradientUnits="userSpaceOnUse">
<stop stop-color="#FCB523"/>
<stop offset="0.04" stop-color="#F19E21"/>
<stop offset="0.08" stop-color="#E88A1F"/>
<stop offset="0.13" stop-color="#E17B1E"/>
<stop offset="0.2" stop-color="#DE731E"/>
<stop offset="0.3" stop-color="#DD711E"/>
<stop offset="0.37" stop-color="#E0791E"/>
<stop offset="0.47" stop-color="#EB8F20"/>
<stop offset="0.61" stop-color="#FCB523"/>
<stop offset="0.73" stop-color="#FCB824"/>
<stop offset="0.83" stop-color="#FDC128"/>
<stop offset="0.92" stop-color="#FED22E"/>
<stop offset="0.95" stop-color="#FFDB32"/>
</linearGradient>
<linearGradient id="paint4_linear_50_23474" x1="21.1527" y1="29.1919" x2="10.6357" y2="19.9472" gradientUnits="userSpaceOnUse">
<stop stop-color="#F9B022"/>
<stop offset="0.07" stop-color="#EA8D20"/>
<stop offset="0.12" stop-color="#E0781E"/>
<stop offset="0.16" stop-color="#DD711E"/>
<stop offset="0.21" stop-color="#E0791E"/>
<stop offset="0.28" stop-color="#EB8F20"/>
<stop offset="0.38" stop-color="#FCB523"/>
<stop offset="0.49" stop-color="#FCB824"/>
<stop offset="0.58" stop-color="#FDC128"/>
<stop offset="0.65" stop-color="#FED22E"/>
<stop offset="0.68" stop-color="#FFDB32"/>
</linearGradient>
<linearGradient id="paint5_linear_50_23474" x1="-13.4546" y1="25.3178" x2="17.5434" y2="21.4913" gradientUnits="userSpaceOnUse">
<stop stop-color="#F0F0F0"/>
<stop offset="0.24" stop-color="#ECECEC"/>
<stop offset="0.46" stop-color="#E0E0E0"/>
<stop offset="0.68" stop-color="#CDCDCD"/>
<stop offset="0.9" stop-color="#B2B2B2"/>
<stop offset="1" stop-color="#A4A4A4"/>
</linearGradient>
<linearGradient id="paint6_linear_50_23474" x1="14.1517" y1="14.9254" x2="11.1346" y2="31.8289" gradientUnits="userSpaceOnUse">
<stop stop-color="#F0F0F0"/>
<stop offset="0.24" stop-color="#ECECEC"/>
<stop offset="0.46" stop-color="#E0E0E0"/>
<stop offset="0.68" stop-color="#CDCDCD"/>
<stop offset="0.9" stop-color="#B2B2B2"/>
<stop offset="1" stop-color="#A4A4A4"/>
</linearGradient>
<linearGradient id="paint7_linear_50_23474" x1="32.9516" y1="24.439" x2="25.7183" y2="31.6492" gradientUnits="userSpaceOnUse">
<stop offset="0.08" stop-color="#CE5414"/>
<stop offset="0.28" stop-color="#CA5214"/>
<stop offset="0.43" stop-color="#C14F14"/>
<stop offset="0.57" stop-color="#B04915"/>
<stop offset="0.7" stop-color="#994116"/>
<stop offset="0.8" stop-color="#7F3818"/>
</linearGradient>
<linearGradient id="paint8_linear_50_23474" x1="31.4965" y1="36.1343" x2="36.5013" y2="30.7978" gradientUnits="userSpaceOnUse">
<stop stop-color="#FCB523"/>
<stop offset="0.04" stop-color="#F19E21"/>
<stop offset="0.08" stop-color="#E88A1F"/>
<stop offset="0.13" stop-color="#E17B1E"/>
<stop offset="0.2" stop-color="#DE731E"/>
<stop offset="0.3" stop-color="#DD711E"/>
<stop offset="0.37" stop-color="#E0791E"/>
<stop offset="0.47" stop-color="#EB8F20"/>
<stop offset="0.61" stop-color="#FCB523"/>
<stop offset="0.73" stop-color="#FCB824"/>
<stop offset="0.83" stop-color="#FDC128"/>
<stop offset="0.92" stop-color="#FED22E"/>
<stop offset="0.95" stop-color="#FFDB32"/>
</linearGradient>
<linearGradient id="paint9_linear_50_23474" x1="18.8475" y1="29.1919" x2="29.3645" y2="19.9472" gradientUnits="userSpaceOnUse">
<stop stop-color="#F9B022"/>
<stop offset="0.07" stop-color="#EA8D20"/>
<stop offset="0.12" stop-color="#E0781E"/>
<stop offset="0.16" stop-color="#DD711E"/>
<stop offset="0.21" stop-color="#E0791E"/>
<stop offset="0.28" stop-color="#EB8F20"/>
<stop offset="0.38" stop-color="#FCB523"/>
<stop offset="0.49" stop-color="#FCB824"/>
<stop offset="0.58" stop-color="#FDC128"/>
<stop offset="0.65" stop-color="#FED22E"/>
<stop offset="0.68" stop-color="#FFDB32"/>
</linearGradient>
</defs>
</svg>
