<svg width="41" height="40" viewBox="0 0 41 40" fill="none" xmlns="http://www.w3.org/2000/svg">
<g clip-path="url(#clip0_50_23501)">
<path fill-rule="evenodd" clip-rule="evenodd" d="M3.85571 16.7185C4.02834 16.6592 11.663 20.4814 15.8766 18.1185C18.4738 20.9407 20.4826 23.3481 20.4826 23.3481L20.1922 30.3333L8.72058 27.5999L3.85571 16.7185Z" fill="url(#paint0_linear_50_23501)"/>
<path fill-rule="evenodd" clip-rule="evenodd" d="M20.4826 23.3481L20.1922 30.3407L8.72058 27.6148L3.85571 16.7185C3.94987 16.6814 6.11552 17.7333 8.75981 18.3851C8.75981 18.3851 8.75981 18.3851 8.7755 18.3851C10.9882 18.9333 13.5462 19.2 15.4843 18.3111C15.6177 18.2518 15.7432 18.1851 15.8688 18.1185C18.466 20.9481 20.4747 23.3481 20.4747 23.3481H20.4826Z" fill="url(#paint1_linear_50_23501)"/>
<path style="mix-blend-mode:multiply" opacity="0.5" fill-rule="evenodd" clip-rule="evenodd" d="M20.4826 23.3481L20.1922 30.3407L8.72058 27.6148L3.85571 16.7185C3.85571 16.7185 4.35789 16.9037 5.08762 17.1926C5.18963 17.237 5.29163 17.2741 5.40148 17.3185C5.87228 17.4963 6.42938 17.7037 7.04926 17.9037C7.0728 17.9555 7.59067 18.5852 9.25414 19.1407C10.7607 19.6518 13.1931 19.4074 14.2053 18.7185C14.6212 18.637 15.0135 18.5259 15.3823 18.3555C15.4215 18.3407 15.4608 18.3259 15.4922 18.3111C15.6255 18.2518 15.7511 18.1852 15.8766 18.1185C18.4738 20.9481 20.4826 23.3481 20.4826 23.3481Z" fill="url(#paint2_linear_50_23501)"/>
<path fill-rule="evenodd" clip-rule="evenodd" d="M3.9263 16.7258C3.9263 16.7258 8.18698 19.3258 11.0353 19.7481C13.7031 20.1481 14.3073 18.9999 14.3073 18.9999C14.3073 18.9999 14.1111 20.4369 13.3343 20.7999C12.5575 21.1629 10.8391 20.9777 8.62639 20.4369C6.41366 19.8962 3.91846 16.7258 3.91846 16.7258H3.9263Z" fill="url(#paint3_linear_50_23501)"/>
<path fill-rule="evenodd" clip-rule="evenodd" d="M36.7641 16.7186C36.5914 16.6593 28.9567 20.4816 24.7431 18.1186C22.1459 20.9408 20.1372 23.3482 20.1372 23.3482L20.4275 30.3334L31.8992 27.6001L36.7641 16.7112V16.7186Z" fill="url(#paint4_linear_50_23501)"/>
<path fill-rule="evenodd" clip-rule="evenodd" d="M20.1372 23.348L20.4275 30.3406L31.8992 27.6147L36.7641 16.7258C36.6699 16.6888 34.5043 17.7406 31.86 18.3925C31.86 18.3925 31.86 18.3925 31.8443 18.3925C29.6315 18.9406 27.0736 19.2073 25.1355 18.3184C25.0021 18.2591 24.8765 18.1925 24.751 18.1258C22.1538 20.9554 20.1451 23.3554 20.1451 23.3554L20.1372 23.348Z" fill="url(#paint5_linear_50_23501)"/>
<path style="mix-blend-mode:multiply" opacity="0.5" fill-rule="evenodd" clip-rule="evenodd" d="M20.1372 23.3481L20.4275 30.3406L31.8992 27.6147L36.7641 16.7258C36.7641 16.7258 36.2619 16.911 35.5322 17.1999C35.4301 17.2443 35.3281 17.2814 35.2183 17.3258C34.7475 17.5036 34.1904 17.711 33.5705 17.911C33.547 17.9629 33.0291 18.5925 31.3656 19.1481C29.8591 19.6592 27.4267 19.4147 26.4145 18.7258C25.9986 18.6443 25.6063 18.5332 25.2375 18.3629C25.1982 18.3481 25.159 18.3332 25.1276 18.3184C24.9942 18.2592 24.8687 18.1925 24.7431 18.1258C22.1459 20.9555 20.1372 23.3555 20.1372 23.3555V23.3481Z" fill="url(#paint6_linear_50_23501)"/>
<path fill-rule="evenodd" clip-rule="evenodd" d="M36.6935 16.7258C36.6935 16.7258 32.4328 19.3258 29.5845 19.7481C26.9167 20.1481 26.3125 18.9999 26.3125 18.9999C26.3125 18.9999 26.5087 20.4369 27.2855 20.7999C28.0623 21.1629 29.7807 20.9777 31.9934 20.4369C34.2061 19.8962 36.7013 16.7258 36.7013 16.7258H36.6935Z" fill="url(#paint7_linear_50_23501)"/>
<path style="mix-blend-mode:screen" fill-rule="evenodd" clip-rule="evenodd" d="M36.6935 16.7258C36.6935 16.7258 32.4328 19.3258 29.5845 19.7481C26.9167 20.1481 26.3125 18.9999 26.3125 18.9999C26.3125 18.9999 26.5087 20.4369 27.2855 20.7999C28.0623 21.1629 29.7807 20.9777 31.9934 20.4369C34.2061 19.8962 36.7013 16.7258 36.7013 16.7258H36.6935Z" fill="url(#paint8_radial_50_23501)"/>
<path fill-rule="evenodd" clip-rule="evenodd" d="M20.3411 33.3333C20.3411 33.3333 20.3411 33.3333 20.3411 33.3407V33.3333H9.63843L9.87382 34.7555C10.1485 35.5333 14.417 35.9999 20.349 35.9999C26.281 35.9999 30.5495 35.5333 30.8241 34.7555L31.0595 33.3333H20.3568H20.3411Z" fill="url(#paint9_radial_50_23501)"/>
<path style="mix-blend-mode:multiply" opacity="0.5" fill-rule="evenodd" clip-rule="evenodd" d="M20.3412 33.3333C20.3412 33.3333 20.3412 33.3333 20.3412 33.3407V33.3333H10.9646C13.3656 33.6592 15.751 34.5555 17.6734 35.9703C18.513 35.9925 19.4075 36.0073 20.3412 36.0073C26.2732 36.0073 30.5418 35.5407 30.8164 34.7629L31.0518 33.3407H20.3491L20.3412 33.3333Z" fill="url(#paint10_linear_50_23501)"/>
<path fill-rule="evenodd" clip-rule="evenodd" d="M4.0911 16.8518C4.0911 16.8518 9.4503 21.1036 13.4834 20.7777C15.8217 20.5925 16.881 14.5703 16.881 14.5703C16.881 14.5703 16.0806 19.7036 14.6604 21.437C13.2402 23.1629 5.4564 22.5036 4.55405 20.9481C3.65169 19.3925 4.0911 16.8592 4.0911 16.8592V16.8518Z" fill="url(#paint11_linear_50_23501)"/>
<path fill-rule="evenodd" clip-rule="evenodd" d="M38.2 16.6741C37.8626 16.2296 37.2741 16.2667 36.4031 16.9852C34.4886 18.5778 29.4275 20.8815 27.4267 20.0148C24.9628 18.9481 22.3029 7.74815 21.9341 6.18519C21.581 4.68889 20.3726 4.00741 20.3334 4C20.302 4.00741 19.0936 4.68889 18.7248 6.18519C18.3639 7.74815 15.7039 18.9481 13.2322 20.0148C11.2314 20.8815 6.17033 18.5778 4.25577 16.9852C3.39265 16.2667 2.79631 16.2296 2.45891 16.6741C2.20782 17.0074 2.36475 17.6667 2.53738 18.0741L9.61497 33.3333C9.69344 33.5333 10.0858 33.7111 10.7135 33.8667C12.5339 34.3259 16.2924 34.5481 20.0901 34.5481C20.1607 34.5481 20.2392 34.5481 20.3098 34.5481H20.3412C20.4118 34.5481 20.4903 34.5481 20.5609 34.5481C24.3586 34.5481 28.1171 34.3185 29.9376 33.8667C30.5653 33.7111 30.9576 33.5407 31.0361 33.3333L38.1137 18.0741C38.2863 17.6667 38.4511 17.0074 38.1921 16.6741H38.2Z" fill="url(#paint12_radial_50_23501)"/>
<path style="mix-blend-mode:multiply" opacity="0.5" fill-rule="evenodd" clip-rule="evenodd" d="M38.2 16.6741C37.8626 16.2296 37.2741 16.2667 36.4031 16.9852C34.4886 18.5778 29.4275 20.8815 27.4267 20.0148C24.9628 18.9481 22.3029 7.74815 21.9341 6.18519C21.581 4.68889 20.3726 4.00741 20.3334 4C20.302 4.00741 19.0936 4.68889 18.7248 6.18519C18.3639 7.74815 15.7039 18.9481 13.2322 20.0148C11.2314 20.8815 6.17033 18.5778 4.25577 16.9852C3.39265 16.2667 2.79631 16.2296 2.45891 16.6741C2.20782 17.0074 2.36475 17.6667 2.53738 18.0741L9.61497 33.3333C9.69344 33.5333 10.0858 33.7111 10.7135 33.8667C12.5339 34.3259 16.2924 34.5481 20.0901 34.5481C20.1607 34.5481 20.2392 34.5481 20.3098 34.5481H20.3412C20.4118 34.5481 20.4903 34.5481 20.5609 34.5481C24.3586 34.5481 28.1171 34.3185 29.9376 33.8667C30.5653 33.7111 30.9576 33.5407 31.0361 33.3333L38.1137 18.0741C38.2863 17.6667 38.4511 17.0074 38.1921 16.6741H38.2Z" fill="url(#paint13_linear_50_23501)"/>
<path style="mix-blend-mode:screen" d="M14.5113 34.4963L14.4721 35.8148C13.3265 35.7185 12.3692 35.6148 11.6238 35.4667L11.6081 34.0593C11.6081 34.0593 11.6081 34.0593 11.6081 34.0444C11.5767 33.9704 11.4826 33.7185 11.3335 33.3259C10.5645 31.2444 6.87662 21.1778 5.71533 17.9778C7.68482 19.163 9.34044 19.6815 10.9176 20.0667C10.949 20.1852 13.4207 31.4222 14.1111 33.3333C14.2838 33.8148 14.4093 34.1852 14.4721 34.363C14.5113 34.4519 14.5192 34.5037 14.5192 34.5037L14.5113 34.4963Z" fill="url(#paint14_radial_50_23501)"/>
<path style="mix-blend-mode:multiply" opacity="0.5" fill-rule="evenodd" clip-rule="evenodd" d="M26.4223 28.2074L24.0291 32.5704L20.506 33.6963L20.3098 17.1778L20.3255 4C20.3255 4 20.3804 4.02963 20.4667 4.07407C20.5138 4.11111 20.5766 4.15556 20.6394 4.21481C20.7178 4.26667 20.7963 4.34074 20.8748 4.40741C21.2592 4.76296 21.73 5.34074 21.9341 6.18519C21.9341 6.20741 21.9341 6.22963 21.9576 6.25185C22.3735 8.04444 24.9942 18.9704 27.4266 20.0222C27.7091 20.1481 28.0622 20.2 28.4624 20.2074C27.2305 23.6963 26.1398 28.4889 26.4223 28.2148V28.2074Z" fill="url(#paint15_linear_50_23501)"/>
<path d="M30.4867 33.6518C30.2749 33.711 30.0552 33.7629 29.8276 33.7925C29.3804 33.8666 28.9331 33.911 28.4859 33.9407C27.5835 34.0147 26.6811 34.0592 25.7788 34.0888C23.9662 34.1481 22.1537 34.1777 20.3411 34.1777C18.5286 34.1851 16.716 34.1629 14.9035 34.1036C14.0011 34.0666 13.0909 34.0295 12.1964 33.9481C11.7492 33.911 11.2941 33.8666 10.8546 33.7925C10.6349 33.7555 10.4152 33.711 10.2034 33.6444C9.99152 33.5777 9.77182 33.511 9.63843 33.3333C9.88167 33.7258 10.3917 33.8444 10.8076 33.9851C11.247 34.1184 11.6942 34.2221 12.1493 34.311C13.0517 34.4814 13.9619 34.5925 14.8721 34.6814C16.6925 34.8592 18.5207 34.9184 20.349 34.9258C22.1772 34.9184 24.0055 34.8518 25.8259 34.674C26.7361 34.5851 27.6463 34.474 28.5486 34.3036C28.9959 34.2147 29.451 34.1184 29.8904 33.9851C30.1101 33.9184 30.3298 33.8444 30.5417 33.7555C30.7378 33.6518 30.9811 33.5481 31.0595 33.3333C30.9418 33.5258 30.7064 33.5851 30.5024 33.6518H30.4867Z" fill="url(#paint16_radial_50_23501)"/>
<path d="M30.4867 33.6518C30.2749 33.711 30.0552 33.7629 29.8276 33.7925C29.3804 33.8666 28.9331 33.911 28.4859 33.9407C27.5835 34.0147 26.6811 34.0592 25.7788 34.0888C23.9662 34.1481 22.1537 34.1777 20.3411 34.1777C18.5286 34.1851 16.716 34.1629 14.9035 34.1036C14.0011 34.0666 13.0909 34.0295 12.1964 33.9481C11.7492 33.911 11.2941 33.8666 10.8546 33.7925C10.6349 33.7555 10.4152 33.711 10.2034 33.6444C9.99152 33.5777 9.77182 33.511 9.63843 33.3333C9.88167 33.7258 10.3917 33.8444 10.8076 33.9851C11.247 34.1184 11.6942 34.2221 12.1493 34.311C13.0517 34.4814 13.9619 34.5925 14.8721 34.6814C16.6925 34.8592 18.5207 34.9184 20.349 34.9258C22.1772 34.9184 24.0055 34.8518 25.8259 34.674C26.7361 34.5851 27.6463 34.474 28.5486 34.3036C28.9959 34.2147 29.451 34.1184 29.8904 33.9851C30.1101 33.9184 30.3298 33.8444 30.5417 33.7555C30.7378 33.6518 30.9811 33.5481 31.0595 33.3333C30.9418 33.5258 30.7064 33.5851 30.5024 33.6518H30.4867Z" fill="url(#paint17_radial_50_23501)"/>
<path style="mix-blend-mode:multiply" opacity="0.5" d="M20.2392 34.6814C15.1311 34.6814 12.2436 34.3036 10.8312 33.9258C9.80327 33.6518 9.63065 33.3407 9.6228 33.3333C9.86605 33.7258 11.043 35.1481 20.2549 35.1481C29.4667 35.1481 30.9576 33.6221 31.0361 33.3481C31.0125 33.3925 30.7536 33.6444 30.2592 33.8147C29.1058 34.2147 26.3909 34.6814 20.2392 34.6814Z" fill="url(#paint18_linear_50_23501)"/>
<path style="mix-blend-mode:screen" fill-rule="evenodd" clip-rule="evenodd" d="M20.3335 4.01498C19.5566 5.16312 19.0152 7.27424 17.9873 10.8965C16.8025 15.052 15.806 20.215 13.86 21.1261C9.8583 22.652 2.92194 16.452 2.90625 16.4002C3.00041 16.3853 3.09457 16.3853 3.20442 16.4002C3.49474 16.452 3.83999 16.6372 4.24801 16.9779C6.16257 18.5705 11.2236 20.8742 13.2245 20.0076C14.5819 19.4224 16.0022 15.7409 17.0536 12.3039C17.9246 9.51127 18.5444 6.88164 18.7014 6.17794C18.8818 5.42979 19.2742 4.88905 19.6273 4.53349C19.9333 4.21498 20.2079 4.0372 20.2864 4.00757C20.3021 4.00757 20.3099 4.02238 20.3099 4.00757L20.3335 4.01498Z" fill="url(#paint19_radial_50_23501)"/>
<path style="mix-blend-mode:screen" opacity="0.65" fill-rule="evenodd" clip-rule="evenodd" d="M20.1842 4.08154C20.0272 4.54821 19.4309 5.5408 19.015 7.24451C18.2696 10.2815 16.8494 14.5927 15.3271 17.0815C15.9627 15.6815 16.5591 13.9704 17.0612 12.3112C17.9322 9.51858 18.5521 6.88895 18.709 6.18525C18.8895 5.4371 19.2818 4.89636 19.6349 4.5408C19.8468 4.31858 20.0508 4.17043 20.1763 4.08154H20.1842Z" fill="url(#paint20_radial_50_23501)"/>
<path style="mix-blend-mode:multiply" opacity="0.5" fill-rule="evenodd" clip-rule="evenodd" d="M37.0544 18.8593C36.1756 18.489 28.7292 21.9556 27.6935 23.163C26.6577 24.3704 25.4023 33.2519 25.9986 33.6741C26.5871 34.0964 30.3613 33.6741 30.7536 33.1186C31.1459 32.563 37.2819 18.9556 37.0622 18.8593H37.0544Z" fill="url(#paint21_linear_50_23501)"/>
<path style="mix-blend-mode:screen" opacity="0.65" d="M12.3848 34.2075C12.3848 34.2075 14.8015 34.6816 20.2392 34.6816C25.6768 34.6816 27.7954 34.326 27.7954 34.326C27.7954 34.326 22.2793 34.5112 20.1607 34.4446C18.0421 34.3779 12.3848 34.2075 12.3848 34.2075Z" fill="url(#paint22_radial_50_23501)"/>
<path fill-rule="evenodd" clip-rule="evenodd" d="M25.5436 27.7408L20.3334 16.5852L15.1155 27.7408L16.9594 31.7334L20.3334 33.1556L23.6996 31.7334L25.5436 27.7408Z" fill="url(#paint23_linear_50_23501)"/>
<path fill-rule="evenodd" clip-rule="evenodd" d="M25.9908 27.8518L20.3334 15.8296L14.676 27.8518L16.6769 31.9037L20.3334 33.3481L23.982 31.9037L25.9908 27.8518Z" fill="url(#paint24_linear_50_23501)"/>
<path style="mix-blend-mode:multiply" opacity="0.8" fill-rule="evenodd" clip-rule="evenodd" d="M25.9908 27.8518L20.3334 15.8296L14.676 27.8518L14.7074 27.8963H25.9515L25.9908 27.8518Z" fill="url(#paint25_linear_50_23501)"/>
<path style="mix-blend-mode:screen" fill-rule="evenodd" clip-rule="evenodd" d="M14.7075 27.8962L16.677 31.9036L20.3335 33.3481L23.9821 31.9036L25.9516 27.8962H14.7075Z" fill="url(#paint26_radial_50_23501)"/>
<path fill-rule="evenodd" clip-rule="evenodd" d="M25.5436 27.7408L20.3334 16.5852L15.1155 27.7408L16.9594 31.7334L20.3334 33.1556L23.6996 31.7334L25.5436 27.7408Z" fill="url(#paint27_linear_50_23501)"/>
<path style="mix-blend-mode:multiply" opacity="0.5" fill-rule="evenodd" clip-rule="evenodd" d="M25.5436 27.7408L20.3335 16.5852V19.8L23.425 27.7185L22.1225 31.2074L20.2236 31.7556L18.4817 31.163L16.9595 31.7334L20.3335 33.1556L23.6997 31.7334L25.5436 27.7408Z" fill="url(#paint28_linear_50_23501)"/>
<path style="mix-blend-mode:multiply" opacity="0.8" d="M25.5356 27.7481L23.417 27.7258L22.1223 31.2073L23.6916 31.7406L25.5356 27.7481Z" fill="url(#paint29_linear_50_23501)"/>
<path style="mix-blend-mode:color-dodge" fill-rule="evenodd" clip-rule="evenodd" d="M20.3335 19.8L17.1792 27.7852L18.4817 31.163L20.2237 31.7556L22.1225 31.2075L23.4251 27.7186L20.3335 19.8Z" fill="url(#paint30_linear_50_23501)"/>
<path opacity="0.75" fill-rule="evenodd" clip-rule="evenodd" d="M15.1155 27.7408L17.1791 27.7852L20.3334 19.8V16.5852L15.1155 27.7408Z" fill="white"/>
<path fill-rule="evenodd" clip-rule="evenodd" d="M18.4817 31.1628L20.2236 31.7554L20.8043 31.5925L18.4817 31.1628Z" fill="white"/>
<path fill-rule="evenodd" clip-rule="evenodd" d="M16.0178 27.7777L17.1791 27.7851L18.3718 24.8369L16.0178 27.7777Z" fill="white"/>
<path fill-rule="evenodd" clip-rule="evenodd" d="M20.3334 16.5852L18.5601 20.7926L20.3098 19.8815L20.3334 16.5852Z" fill="white"/>
<path style="mix-blend-mode:multiply" opacity="0.8" d="M20.2235 31.7554L20.3333 33.1554C20.3333 33.1554 16.9829 31.7554 16.9672 31.7332C16.9515 31.711 18.4894 31.1628 18.4894 31.1628L20.2313 31.7554H20.2235Z" fill="url(#paint31_linear_50_23501)"/>
<path style="mix-blend-mode:screen" fill-rule="evenodd" clip-rule="evenodd" d="M20.3256 4C18.9289 17.363 15.2959 19.4667 13.4285 19.9037C14.7231 19.0815 16.0649 15.5926 17.0693 12.3037C17.9402 9.51111 18.5601 6.88148 18.717 6.17778C18.8975 5.42963 19.2898 4.88889 19.6429 4.53333C19.949 4.21481 20.2236 4.03704 20.302 4.00741H20.3177L20.3256 4Z" fill="url(#paint32_radial_50_23501)"/>
<path style="mix-blend-mode:screen" opacity="0.65" fill-rule="evenodd" clip-rule="evenodd" d="M17.0692 12.311C16.5827 15.1333 15.5077 19.6888 13.4911 20.7703C10.9724 22.1184 5.00902 17.7851 3.21216 16.4073C3.50248 16.4592 3.84773 16.6444 4.25575 16.9851C6.17031 18.5777 11.2313 20.8814 13.2322 20.0147C14.5897 19.4296 16.0099 15.7481 17.0613 12.311H17.0692Z" fill="url(#paint33_radial_50_23501)"/>
<path style="mix-blend-mode:multiply" opacity="0.5" fill-rule="evenodd" clip-rule="evenodd" d="M20.8278 5.06655C20.6317 5.0221 20.6317 15.6665 21.0711 16.6369C21.5105 17.6073 23.425 22.2814 24.0606 22.0962C24.6962 21.911 25.9752 20.1554 25.8261 19.8295C25.677 19.5036 21.024 5.11099 20.8278 5.06655Z" fill="url(#paint34_linear_50_23501)"/>
<path style="mix-blend-mode:screen" fill-rule="evenodd" clip-rule="evenodd" d="M14.9506 19.6443C14.9506 19.6443 16.7161 21.911 17.1555 21.7703C17.5949 21.6295 19.6585 17.0517 19.7998 16.5851C19.9489 16.1258 20.5844 4.74063 20.0901 4.92582C19.6036 5.111 18.0343 12.0073 17.5871 12.8888C17.1398 13.7703 14.5975 19.1851 14.9428 19.6443H14.9506Z" fill="url(#paint35_radial_50_23501)"/>
</g>
<defs>
<linearGradient id="paint0_linear_50_23501" x1="12.3771" y1="22.2148" x2="11.6912" y2="14.1336" gradientUnits="userSpaceOnUse">
<stop stop-color="#F63F00"/>
<stop offset="0.55" stop-color="#F66A00"/>
<stop offset="1" stop-color="#FA9300"/>
</linearGradient>
<linearGradient id="paint1_linear_50_23501" x1="12.3771" y1="22.2074" x2="11.6912" y2="14.1336" gradientUnits="userSpaceOnUse">
<stop stop-color="#F63F00"/>
<stop offset="0.55" stop-color="#F66A00"/>
<stop offset="1" stop-color="#FA9300"/>
</linearGradient>
<linearGradient id="paint2_linear_50_23501" x1="12.7459" y1="20.6815" x2="11.5923" y2="25.8004" gradientUnits="userSpaceOnUse">
<stop stop-color="#DE376D"/>
<stop offset="0.99" stop-color="white"/>
</linearGradient>
<linearGradient id="paint3_linear_50_23501" x1="8.32822" y1="21.1777" x2="8.72193" y2="19.3456" gradientUnits="userSpaceOnUse">
<stop stop-color="#F63F00"/>
<stop offset="0.55" stop-color="#F66A00"/>
<stop offset="1" stop-color="#FA9300"/>
</linearGradient>
<linearGradient id="paint4_linear_50_23501" x1="28.2349" y1="22.2149" x2="28.9207" y2="14.1338" gradientUnits="userSpaceOnUse">
<stop stop-color="#F63F00"/>
<stop offset="0.55" stop-color="#F66A00"/>
<stop offset="1" stop-color="#FA9300"/>
</linearGradient>
<linearGradient id="paint5_linear_50_23501" x1="28.2349" y1="22.2073" x2="28.9208" y2="14.1336" gradientUnits="userSpaceOnUse">
<stop stop-color="#F63F00"/>
<stop offset="0.55" stop-color="#F66A00"/>
<stop offset="1" stop-color="#FA9300"/>
</linearGradient>
<linearGradient id="paint6_linear_50_23501" x1="27.8739" y1="3.9999" x2="29.1529" y2="3.9999" gradientUnits="userSpaceOnUse">
<stop stop-color="#DE376D"/>
<stop offset="0.99" stop-color="white"/>
</linearGradient>
<linearGradient id="paint7_linear_50_23501" x1="31.6011" y1="18.5036" x2="32.1408" y2="22.3275" gradientUnits="userSpaceOnUse">
<stop stop-color="#F63F00"/>
<stop offset="0.55" stop-color="#F66A00"/>
<stop offset="1" stop-color="#FA9300"/>
</linearGradient>
<radialGradient id="paint8_radial_50_23501" cx="0" cy="0" r="1" gradientUnits="userSpaceOnUse" gradientTransform="translate(33.8217 16.5925) scale(4.40192 4.15556)">
<stop stop-color="#FFF261"/>
<stop offset="0.11" stop-color="#FAED5F"/>
<stop offset="0.23" stop-color="#ECE05A"/>
<stop offset="0.36" stop-color="#D6CB51"/>
<stop offset="0.5" stop-color="#B6AD45"/>
<stop offset="0.64" stop-color="#8E8636"/>
<stop offset="0.78" stop-color="#5C5723"/>
<stop offset="0.92" stop-color="#22210D"/>
<stop offset="1"/>
</radialGradient>
<radialGradient id="paint9_radial_50_23501" cx="0" cy="0" r="1" gradientUnits="userSpaceOnUse" gradientTransform="translate(20.3333 -8.05677) scale(18.2275 2.92526)">
<stop stop-color="#F63F00"/>
<stop offset="0.55" stop-color="#F66A00"/>
<stop offset="1" stop-color="#FA9300"/>
</radialGradient>
<linearGradient id="paint10_linear_50_23501" x1="21.9419" y1="34.7184" x2="25.7128" y2="40.909" gradientUnits="userSpaceOnUse">
<stop stop-color="#DE376D"/>
<stop offset="0.99" stop-color="white"/>
</linearGradient>
<linearGradient id="paint11_linear_50_23501" x1="-1.00132" y1="25.8444" x2="13.6247" y2="15.3049" gradientUnits="userSpaceOnUse">
<stop stop-color="#F63F00"/>
<stop offset="0.55" stop-color="#F66A00"/>
<stop offset="1" stop-color="#FA9300"/>
</linearGradient>
<radialGradient id="paint12_radial_50_23501" cx="0" cy="0" r="1" gradientUnits="userSpaceOnUse" gradientTransform="translate(10.7056 17.2148) scale(18.5571 17.5185)">
<stop stop-color="#FCF800"/>
<stop offset="1" stop-color="#FC9700"/>
</radialGradient>
<linearGradient id="paint13_linear_50_23501" x1="7.14331" y1="33.4889" x2="13.8176" y2="26.8829" gradientUnits="userSpaceOnUse">
<stop stop-color="#DE376D"/>
<stop offset="0.99" stop-color="white"/>
</linearGradient>
<radialGradient id="paint14_radial_50_23501" cx="0" cy="0" r="1" gradientUnits="userSpaceOnUse" gradientTransform="translate(6.85308 26.1259) scale(11.401 10.763)">
<stop stop-color="#FFF261"/>
<stop offset="0.11" stop-color="#FAED5F"/>
<stop offset="0.23" stop-color="#ECE05A"/>
<stop offset="0.36" stop-color="#D6CB51"/>
<stop offset="0.5" stop-color="#B6AD45"/>
<stop offset="0.64" stop-color="#8E8636"/>
<stop offset="0.78" stop-color="#5C5723"/>
<stop offset="0.92" stop-color="#22210D"/>
<stop offset="1"/>
</radialGradient>
<linearGradient id="paint15_linear_50_23501" x1="25.7239" y1="7.28889" x2="20.7548" y2="28.2096" gradientUnits="userSpaceOnUse">
<stop stop-color="#DE376D"/>
<stop offset="0.99" stop-color="white"/>
</linearGradient>
<radialGradient id="paint16_radial_50_23501" cx="0" cy="0" r="1" gradientUnits="userSpaceOnUse" gradientTransform="translate(20.3333 34.0444) scale(7.86225 7.42223)">
<stop stop-color="#FCF800"/>
<stop offset="1" stop-color="#FC9700"/>
</radialGradient>
<radialGradient id="paint17_radial_50_23501" cx="0" cy="0" r="1" gradientUnits="userSpaceOnUse" gradientTransform="translate(20.3333 34.0444) scale(7.86225 7.42223)">
<stop stop-color="#FCF800"/>
<stop offset="1" stop-color="#FC9700"/>
</radialGradient>
<linearGradient id="paint18_linear_50_23501" x1="20.1529" y1="34.8073" x2="19.9498" y2="36.721" gradientUnits="userSpaceOnUse">
<stop stop-color="#DE376D"/>
<stop offset="0.99" stop-color="white"/>
</linearGradient>
<radialGradient id="paint19_radial_50_23501" cx="0" cy="0" r="1" gradientUnits="userSpaceOnUse" gradientTransform="translate(8.24191 14.7409) scale(8.1918 7.73333)">
<stop stop-color="#FFF261"/>
<stop offset="0.11" stop-color="#FAED5F"/>
<stop offset="0.23" stop-color="#ECE05A"/>
<stop offset="0.36" stop-color="#D6CB51"/>
<stop offset="0.5" stop-color="#B6AD45"/>
<stop offset="0.64" stop-color="#8E8636"/>
<stop offset="0.78" stop-color="#5C5723"/>
<stop offset="0.92" stop-color="#22210D"/>
<stop offset="1"/>
</radialGradient>
<radialGradient id="paint20_radial_50_23501" cx="0" cy="0" r="1" gradientUnits="userSpaceOnUse" gradientTransform="translate(16.9749 11.9556) scale(8.23889 7.77778)">
<stop stop-color="#FFF0B0"/>
<stop offset="1"/>
</radialGradient>
<linearGradient id="paint21_linear_50_23501" x1="35.4145" y1="41.7927" x2="31.6514" y2="25.0358" gradientUnits="userSpaceOnUse">
<stop stop-color="#DE376D"/>
<stop offset="0.99" stop-color="white"/>
</linearGradient>
<radialGradient id="paint22_radial_50_23501" cx="0" cy="0" r="1" gradientUnits="userSpaceOnUse" gradientTransform="translate(18.3325 34.6668) scale(5.66521 5.34814)">
<stop stop-color="#FFF0B0"/>
<stop offset="1"/>
</radialGradient>
<linearGradient id="paint23_linear_50_23501" x1="20.5374" y1="21.9037" x2="20.0479" y2="37.4167" gradientUnits="userSpaceOnUse">
<stop stop-color="#F03A07"/>
<stop offset="0.09" stop-color="#F0360F"/>
<stop offset="0.23" stop-color="#F02B25"/>
<stop offset="0.4" stop-color="#F01A48"/>
<stop offset="0.53" stop-color="#F00C68"/>
<stop offset="0.71" stop-color="#D2096F"/>
<stop offset="1" stop-color="#9E057D"/>
</linearGradient>
<linearGradient id="paint24_linear_50_23501" x1="20.7257" y1="25.2666" x2="20.0179" y2="30.456" gradientUnits="userSpaceOnUse">
<stop stop-color="#F63F00"/>
<stop offset="0.55" stop-color="#F66A00"/>
<stop offset="1" stop-color="#FA9300"/>
</linearGradient>
<linearGradient id="paint25_linear_50_23501" x1="20.3334" y1="20.6" x2="20.3334" y2="27.4444" gradientUnits="userSpaceOnUse">
<stop stop-color="#960066"/>
<stop offset="1" stop-color="white"/>
</linearGradient>
<radialGradient id="paint26_radial_50_23501" cx="0" cy="0" r="1" gradientUnits="userSpaceOnUse" gradientTransform="translate(20.1632 32.638) scale(5.33268 2.24933)">
<stop stop-color="#FFF261"/>
<stop offset="0.11" stop-color="#FAED5F"/>
<stop offset="0.23" stop-color="#ECE05A"/>
<stop offset="0.36" stop-color="#D6CB51"/>
<stop offset="0.5" stop-color="#B6AD45"/>
<stop offset="0.64" stop-color="#8E8636"/>
<stop offset="0.78" stop-color="#5C5723"/>
<stop offset="0.92" stop-color="#22210D"/>
<stop offset="1"/>
</radialGradient>
<linearGradient id="paint27_linear_50_23501" x1="20.5374" y1="21.9037" x2="20.0479" y2="37.4167" gradientUnits="userSpaceOnUse">
<stop stop-color="#F03A07"/>
<stop offset="0.09" stop-color="#F0360F"/>
<stop offset="0.23" stop-color="#F02B25"/>
<stop offset="0.4" stop-color="#F01A48"/>
<stop offset="0.53" stop-color="#F00C68"/>
<stop offset="0.71" stop-color="#D2096F"/>
<stop offset="1" stop-color="#9E057D"/>
</linearGradient>
<linearGradient id="paint28_linear_50_23501" x1="21.534" y1="21.9334" x2="21.0445" y2="37.4463" gradientUnits="userSpaceOnUse">
<stop stop-color="#960066"/>
<stop offset="1" stop-color="white"/>
</linearGradient>
<linearGradient id="paint29_linear_50_23501" x1="22.4519" y1="28.5258" x2="25.2359" y2="30.6938" gradientUnits="userSpaceOnUse">
<stop stop-color="#960066"/>
<stop offset="1" stop-color="white"/>
</linearGradient>
<linearGradient id="paint30_linear_50_23501" x1="20.2394" y1="25.526" x2="20.582" y2="38.3715" gradientUnits="userSpaceOnUse">
<stop stop-color="#FF818F"/>
<stop offset="1"/>
</linearGradient>
<linearGradient id="paint31_linear_50_23501" x1="20.6158" y1="31.7258" x2="16.8752" y2="33.224" gradientUnits="userSpaceOnUse">
<stop stop-color="#960066"/>
<stop offset="1" stop-color="white"/>
</linearGradient>
<radialGradient id="paint32_radial_50_23501" cx="0" cy="0" r="1" gradientUnits="userSpaceOnUse" gradientTransform="translate(16.8731 11.9556) scale(6.43418 6.07407)">
<stop stop-color="#FFF261"/>
<stop offset="0.11" stop-color="#FAED5F"/>
<stop offset="0.23" stop-color="#ECE05A"/>
<stop offset="0.36" stop-color="#D6CB51"/>
<stop offset="0.5" stop-color="#B6AD45"/>
<stop offset="0.64" stop-color="#8E8636"/>
<stop offset="0.78" stop-color="#5C5723"/>
<stop offset="0.92" stop-color="#22210D"/>
<stop offset="1"/>
</radialGradient>
<radialGradient id="paint33_radial_50_23501" cx="0" cy="0" r="1" gradientUnits="userSpaceOnUse" gradientTransform="translate(8.82245 18.6296) scale(8.24673 7.78518)">
<stop stop-color="#FFF0B0"/>
<stop offset="1"/>
</radialGradient>
<linearGradient id="paint34_linear_50_23501" x1="45.0423" y1="11.7184" x2="17.6597" y2="14.2594" gradientUnits="userSpaceOnUse">
<stop stop-color="#DE376D"/>
<stop offset="0.99" stop-color="white"/>
</linearGradient>
<radialGradient id="paint35_radial_50_23501" cx="0" cy="0" r="1" gradientUnits="userSpaceOnUse" gradientTransform="translate(11.5138 7.65915) scale(13.5667 12.8074)">
<stop stop-color="#FFF261"/>
<stop offset="0.11" stop-color="#FAED5F"/>
<stop offset="0.23" stop-color="#ECE05A"/>
<stop offset="0.36" stop-color="#D6CB51"/>
<stop offset="0.5" stop-color="#B6AD45"/>
<stop offset="0.64" stop-color="#8E8636"/>
<stop offset="0.78" stop-color="#5C5723"/>
<stop offset="0.92" stop-color="#22210D"/>
<stop offset="1"/>
</radialGradient>
<clipPath id="clip0_50_23501">
<rect width="36" height="32" fill="white" transform="translate(2.33325 4)"/>
</clipPath>
</defs>
</svg>
