<svg width="33" height="33" viewBox="0 0 33 33" fill="none" xmlns="http://www.w3.org/2000/svg">
<g clip-path="url(#clip0_55_18616)">
<path d="M31.8448 4.08121H1.55694C0.919023 4.08121 0.401855 3.50213 0.401855 2.78816C0.401855 2.07419 0.919023 1.49512 1.55694 1.49512H31.8448C32.4828 1.49512 32.9999 2.07419 32.9999 2.78816C32.9999 3.50213 32.4828 4.08121 31.8448 4.08121Z" fill="url(#paint0_linear_55_18616)"/>
<path d="M31.443 31.5032H1.15508C0.517167 31.5032 0 30.9241 0 30.2102C0 29.4962 0.517167 28.9171 1.15508 28.9171H31.443C32.0809 28.9171 32.5981 29.4962 32.5981 30.2102C32.5981 30.9241 32.0809 31.5032 31.443 31.5032Z" fill="url(#paint1_linear_55_18616)"/>
<path d="M5.1281 1.42126C5.56422 1.55841 6.00254 1.69556 6.43866 1.83046C6.6559 1.89931 6.87258 1.96761 7.08926 2.03364C10.1548 2.99312 13.2181 3.95035 16.2841 4.90983C19.541 4.02316 22.7978 3.13874 26.0546 2.25206C26.2735 2.1928 26.4902 2.1341 26.7091 2.07484C27.1865 1.94334 27.6618 1.81409 28.1393 1.68484C27.9039 4.11515 27.7153 6.67133 27.5885 9.34603C27.5885 9.34603 27.5736 24.7203 27.873 28.6028C20.1381 28.6153 12.4026 28.6277 4.66772 28.6401C5.01508 24.6453 5.25822 20.3993 5.35581 15.9213C5.37345 15.0685 5.3095 4.83702 5.12865 1.42126H5.1281Z" fill="url(#paint2_linear_55_18616)"/>
<path d="M3.3467 27.2172C3.69846 27.2353 4.05298 27.2528 4.40915 27.2686C4.64899 27.2816 4.88662 27.294 5.12646 27.3042H5.12866C8.52829 27.4571 12.0476 27.5508 15.6843 27.5689C19.337 27.5869 22.8739 27.5282 26.2928 27.4063C26.5679 27.3967 26.8436 27.3871 27.1165 27.3758C27.6717 27.355 28.2203 27.3312 28.7689 27.3075C29.022 27.6027 29.741 28.5182 29.8386 29.914C29.9527 31.5225 29.1648 32.6615 28.9509 32.9516C28.421 32.9149 27.8862 32.8799 27.3453 32.85C27.0967 32.833 26.848 32.8201 26.5972 32.8071C23.2339 32.618 19.6882 32.5181 15.9776 32.5283C12.3337 32.5412 8.85083 32.6632 5.54052 32.8663C5.31778 32.8804 5.09779 32.8951 4.87945 32.9092C4.43672 32.938 3.99784 32.9685 3.56173 32.9995C3.26124 32.6372 2.89294 32.0908 2.67736 31.3526C2.09182 29.3337 3.13167 27.5666 3.34615 27.2167L3.3467 27.2172Z" fill="url(#paint3_linear_55_18616)"/>
<path d="M26.2928 27.4068C26.568 27.3972 26.8436 27.3876 27.1166 27.3763C27.4821 27.9656 27.9982 29.0385 27.9656 30.4427C27.9403 31.5106 27.6062 32.3482 27.3454 32.8505C27.0967 32.8335 26.8481 32.8206 26.5972 32.8076C26.8789 32.2251 27.2494 31.2081 27.148 29.9336C27.0576 28.78 26.6198 27.9153 26.2928 27.4068Z" fill="url(#paint4_linear_55_18616)"/>
<path d="M4.40923 27.2686C4.64907 27.2815 4.8867 27.294 5.12654 27.3041C4.90103 27.9272 4.65072 28.9087 4.73563 30.1075C4.82054 31.3215 5.21365 32.2646 5.54115 32.8669C5.31841 32.881 5.09842 32.8956 4.88008 32.9097C4.55148 32.3702 4.13135 31.4942 3.99902 30.3428C3.84795 29.0052 4.15506 27.9142 4.40923 27.2686Z" fill="url(#paint5_linear_55_18616)"/>
<path d="M29.5707 5.78291C29.219 5.76484 28.8644 5.74735 28.5083 5.73154C28.2684 5.71856 28.0308 5.70615 27.791 5.69599H27.7888C24.3891 5.54303 20.8699 5.44934 17.2331 5.43128C13.5804 5.41322 10.0435 5.47192 6.6246 5.59383C6.34948 5.60343 6.0738 5.61302 5.80088 5.62431C5.24567 5.64519 4.69708 5.6689 4.14848 5.6926C3.89541 5.39742 3.17645 4.48196 3.07886 3.08619C2.96473 1.47765 3.75261 0.338687 3.96654 0.0485845C4.49639 0.0852706 5.0312 0.120264 5.57207 0.150177C5.82073 0.167109 6.06939 0.18009 6.32025 0.193071C9.6835 0.382146 13.2292 0.482045 16.9398 0.471886C20.5837 0.458904 24.0666 0.336994 27.3769 0.133809C27.5996 0.119699 27.8196 0.105025 28.038 0.0909146C28.4807 0.0621301 28.9196 0.0316524 29.3557 0.000610352C29.6562 0.362956 30.0245 0.909297 30.2401 1.64753C30.8256 3.6664 29.7857 5.43354 29.5713 5.78347L29.5707 5.78291Z" fill="url(#paint6_linear_55_18616)"/>
<path d="M6.6247 5.59331C6.34958 5.60291 6.0739 5.6125 5.80099 5.62379C5.43544 5.03455 4.91938 3.96106 4.9519 2.5574C4.97727 1.48955 5.31139 0.651976 5.57217 0.149658C5.82083 0.16659 6.06949 0.179571 6.32036 0.192553C6.03862 0.775015 5.66811 1.79207 5.76956 3.06649C5.85998 4.22012 6.29775 5.08479 6.6247 5.59331Z" fill="url(#paint7_linear_55_18616)"/>
<path d="M28.5083 5.73153C28.2684 5.71855 28.0308 5.70613 27.791 5.69597C28.0165 5.07287 28.2668 4.09138 28.1819 2.89259C28.097 1.67856 27.7038 0.735443 27.3763 0.133227C27.5991 0.119117 27.8191 0.104442 28.0374 0.090332C28.366 0.6299 28.7861 1.50585 28.9185 2.65723C29.0695 3.99486 28.7624 5.08585 28.5083 5.73153Z" fill="url(#paint8_linear_55_18616)"/>
<g style="mix-blend-mode:soft-light" opacity="0.85">
<path d="M16.5333 1.13788C23.2526 1.13788 28.8482 0.698212 28.8482 1.21125C28.8482 1.72429 23.2449 2.46818 16.5255 2.46818C9.80623 2.46818 4.93945 1.74743 4.93945 1.23383C4.93945 0.720224 9.81394 1.13788 16.5327 1.13788H16.5333Z" fill="white"/>
</g>
<g style="mix-blend-mode:soft-light" opacity="0.85">
<path d="M15.6771 28.3544C22.7537 28.3544 28.6471 27.9148 28.6471 28.4278C28.6471 28.9408 22.7454 29.6847 15.6688 29.6847C8.59222 29.6847 3.46631 28.964 3.46631 28.4504C3.46631 27.9368 8.59994 28.3544 15.6771 28.3544Z" fill="white"/>
</g>
<g style="mix-blend-mode:multiply" opacity="0.35">
<path d="M24.5791 10.6079H8.96267C8.54916 10.6079 8.21118 10.4781 8.21118 10.3201C8.21118 10.1615 8.54916 10.0322 8.96267 10.0322H24.5791C24.9926 10.0322 25.3306 10.162 25.3306 10.3201C25.3306 10.4787 24.9926 10.6079 24.5791 10.6079Z" fill="url(#paint9_linear_55_18616)"/>
<path d="M25.0257 20.8394H9.40921C8.99569 20.8394 8.65771 20.7095 8.65771 20.5515C8.65771 20.3929 8.99569 20.2637 9.40921 20.2637H25.0257C25.4392 20.2637 25.7772 20.3935 25.7772 20.5515C25.7772 20.7101 25.4392 20.8394 25.0257 20.8394Z" fill="url(#paint10_linear_55_18616)"/>
<path d="M24.6685 24.4741H9.05203C8.63851 24.4741 8.30054 24.3443 8.30054 24.1863C8.30054 24.0277 8.63851 23.8984 9.05203 23.8984H24.6685C25.082 23.8984 25.42 24.0283 25.42 24.1863C25.42 24.3449 25.082 24.4741 24.6685 24.4741Z" fill="url(#paint11_linear_55_18616)"/>
<path d="M24.8951 12.6448H7.57547C7.16195 12.6448 6.82397 12.515 6.82397 12.3569C6.82397 12.1983 7.16195 12.0691 7.57547 12.0691H24.8956C25.3091 12.0691 25.6471 12.1989 25.6471 12.3569C25.6471 12.5155 25.3091 12.6448 24.8956 12.6448H24.8951Z" fill="url(#paint12_linear_55_18616)"/>
<path d="M25.4278 14.2941H9.8113C9.39779 14.2941 9.05981 14.1643 9.05981 14.0062C9.05981 13.8476 9.39779 13.7184 9.8113 13.7184H25.4278C25.8413 13.7184 26.1793 13.8482 26.1793 14.0062C26.1793 14.1648 25.8413 14.2941 25.4278 14.2941Z" fill="url(#paint13_linear_55_18616)"/>
<path d="M25.1183 19.2872H7.79812C7.38461 19.2872 7.04663 19.1574 7.04663 18.9994C7.04663 18.8408 7.38461 18.7115 7.79812 18.7115H25.1183C25.5318 18.7115 25.8697 18.8414 25.8697 18.9994C25.8697 19.158 25.5318 19.2872 25.1183 19.2872Z" fill="url(#paint14_linear_55_18616)"/>
</g>
</g>
<defs>
<linearGradient id="paint0_linear_55_18616" x1="16.7009" y1="-1.34495" x2="16.7009" y2="4.46951" gradientUnits="userSpaceOnUse">
<stop offset="0.33" stop-color="#D68807"/>
<stop offset="0.59" stop-color="#FBDC3A"/>
<stop offset="0.72" stop-color="#F3A800"/>
<stop offset="0.84" stop-color="#C77000"/>
<stop offset="1" stop-color="#FFBF00"/>
</linearGradient>
<linearGradient id="paint1_linear_55_18616" x1="16.299" y1="26.077" x2="16.299" y2="31.8921" gradientUnits="userSpaceOnUse">
<stop offset="0.33" stop-color="#D68807"/>
<stop offset="0.59" stop-color="#FBDC3A"/>
<stop offset="0.72" stop-color="#F3A800"/>
<stop offset="0.84" stop-color="#C77000"/>
<stop offset="1" stop-color="#FFBF00"/>
</linearGradient>
<linearGradient id="paint2_linear_55_18616" x1="16.2621" y1="42.6474" x2="16.4787" y2="2.39434" gradientUnits="userSpaceOnUse">
<stop stop-color="#EFD8AD"/>
<stop offset="0.08" stop-color="#EED5AA"/>
<stop offset="0.13" stop-color="#ECCDA1"/>
<stop offset="0.17" stop-color="#EABF93"/>
<stop offset="0.21" stop-color="#E6AC7E"/>
<stop offset="0.24" stop-color="#E19464"/>
<stop offset="0.26" stop-color="#DF8655"/>
<stop offset="0.29" stop-color="#E19161"/>
<stop offset="0.4" stop-color="#E8B78A"/>
<stop offset="0.48" stop-color="#EDCFA3"/>
<stop offset="0.53" stop-color="#EFD8AD"/>
<stop offset="0.55" stop-color="#EFDAB1"/>
<stop offset="0.58" stop-color="#EFE5C3"/>
<stop offset="0.64" stop-color="#EDE1BE"/>
<stop offset="0.7" stop-color="#E8D6B2"/>
<stop offset="0.76" stop-color="#E0C59D"/>
<stop offset="0.83" stop-color="#D5AC80"/>
<stop offset="0.89" stop-color="#C78C5B"/>
<stop offset="0.93" stop-color="#BB723C"/>
</linearGradient>
<linearGradient id="paint3_linear_55_18616" x1="16.2202" y1="24.3687" x2="15.9943" y2="52.3646" gradientUnits="userSpaceOnUse">
<stop offset="0.11" stop-color="#EFD8AD"/>
<stop offset="0.15" stop-color="#E8C79B"/>
<stop offset="0.23" stop-color="#D69C6C"/>
<stop offset="0.25" stop-color="#D08D5C"/>
<stop offset="0.31" stop-color="#DFB183"/>
<stop offset="0.38" stop-color="#EFD8AD"/>
<stop offset="0.55" stop-color="#EDD5AA"/>
<stop offset="0.65" stop-color="#E9CDA1"/>
<stop offset="0.74" stop-color="#E3C093"/>
<stop offset="0.82" stop-color="#D9AE7E"/>
<stop offset="0.89" stop-color="#CD9563"/>
<stop offset="0.96" stop-color="#BE7843"/>
<stop offset="0.97" stop-color="#BB723C"/>
</linearGradient>
<linearGradient id="paint4_linear_55_18616" x1="27.1348" y1="26.9129" x2="27.0943" y2="33.0055" gradientUnits="userSpaceOnUse">
<stop stop-color="#EFAE10"/>
<stop offset="0.24" stop-color="#FBCF28"/>
<stop offset="0.5" stop-color="#FFD114"/>
<stop offset="0.64" stop-color="#F3B400"/>
<stop offset="0.84" stop-color="#E48100"/>
<stop offset="1" stop-color="#FFBF00"/>
</linearGradient>
<linearGradient id="paint5_linear_55_18616" x1="4.37607" y1="27.0144" x2="5.03316" y2="33.3826" gradientUnits="userSpaceOnUse">
<stop stop-color="#EAA107"/>
<stop offset="0.24" stop-color="#FBCF28"/>
<stop offset="0.5" stop-color="#FFD114"/>
<stop offset="0.64" stop-color="#F3B400"/>
<stop offset="0.84" stop-color="#E48100"/>
<stop offset="1" stop-color="#FFBF00"/>
</linearGradient>
<linearGradient id="paint6_linear_55_18616" x1="16.7127" y1="-3.00144" x2="16.8577" y2="24.9945" gradientUnits="userSpaceOnUse">
<stop offset="0.08" stop-color="#EFD8AD"/>
<stop offset="0.14" stop-color="#EDD5AA"/>
<stop offset="0.17" stop-color="#E9CDA1"/>
<stop offset="0.2" stop-color="#E2C093"/>
<stop offset="0.23" stop-color="#D9AD7E"/>
<stop offset="0.25" stop-color="#D09C6B"/>
<stop offset="0.35" stop-color="#DBB283"/>
<stop offset="0.54" stop-color="#EFD8AD"/>
<stop offset="0.66" stop-color="#EDD5AA"/>
<stop offset="0.74" stop-color="#E9CDA1"/>
<stop offset="0.8" stop-color="#E3C093"/>
<stop offset="0.86" stop-color="#D9AE7E"/>
<stop offset="0.91" stop-color="#CD9563"/>
<stop offset="0.96" stop-color="#BE7843"/>
<stop offset="0.97" stop-color="#BB723C"/>
</linearGradient>
<linearGradient id="paint7_linear_55_18616" x1="5.81098" y1="-0.661759" x2="5.79355" y2="5.86798" gradientUnits="userSpaceOnUse">
<stop stop-color="#EAA107"/>
<stop offset="0.24" stop-color="#FBCF28"/>
<stop offset="0.5" stop-color="#FFD114"/>
<stop offset="0.64" stop-color="#F3B400"/>
<stop offset="0.84" stop-color="#E48100"/>
<stop offset="1" stop-color="#FFBF00"/>
</linearGradient>
<linearGradient id="paint8_linear_55_18616" x1="28.1848" y1="-0.177569" x2="28.1686" y2="5.91362" gradientUnits="userSpaceOnUse">
<stop stop-color="#EAA107"/>
<stop offset="0.24" stop-color="#FBCF28"/>
<stop offset="0.43" stop-color="#FFD114"/>
<stop offset="0.64" stop-color="#F3B400"/>
<stop offset="0.77" stop-color="#E48100"/>
<stop offset="1" stop-color="#FFBF00"/>
</linearGradient>
<linearGradient id="paint9_linear_55_18616" x1="16.7709" y1="-2.56239" x2="16.7709" y2="7.99361" gradientUnits="userSpaceOnUse">
<stop stop-color="#EFD8AD"/>
<stop offset="0.08" stop-color="#EED5AA"/>
<stop offset="0.13" stop-color="#ECCDA1"/>
<stop offset="0.17" stop-color="#EABF93"/>
<stop offset="0.21" stop-color="#E6AC7E"/>
<stop offset="0.24" stop-color="#E19464"/>
<stop offset="0.26" stop-color="#DF8655"/>
<stop offset="0.28" stop-color="#E19161"/>
<stop offset="0.38" stop-color="#E8B78A"/>
<stop offset="0.45" stop-color="#EDCFA3"/>
<stop offset="0.49" stop-color="#EFD8AD"/>
<stop offset="0.57" stop-color="#EDD4A8"/>
<stop offset="0.66" stop-color="#E7C89C"/>
<stop offset="0.74" stop-color="#DDB687"/>
<stop offset="0.83" stop-color="#D09B6A"/>
<stop offset="0.91" stop-color="#BF7A45"/>
<stop offset="0.93" stop-color="#BB723C"/>
</linearGradient>
<linearGradient id="paint10_linear_55_18616" x1="17.2174" y1="2.42969" x2="17.2174" y2="12.9851" gradientUnits="userSpaceOnUse">
<stop stop-color="#EFD8AD"/>
<stop offset="0.08" stop-color="#EED5AA"/>
<stop offset="0.13" stop-color="#ECCDA1"/>
<stop offset="0.17" stop-color="#EABF93"/>
<stop offset="0.21" stop-color="#E6AC7E"/>
<stop offset="0.24" stop-color="#E19464"/>
<stop offset="0.26" stop-color="#DF8655"/>
<stop offset="0.28" stop-color="#E19161"/>
<stop offset="0.38" stop-color="#E8B78A"/>
<stop offset="0.45" stop-color="#EDCFA3"/>
<stop offset="0.49" stop-color="#EFD8AD"/>
<stop offset="0.57" stop-color="#EDD4A8"/>
<stop offset="0.66" stop-color="#E7C89C"/>
<stop offset="0.74" stop-color="#DDB687"/>
<stop offset="0.83" stop-color="#D09B6A"/>
<stop offset="0.91" stop-color="#BF7A45"/>
<stop offset="0.93" stop-color="#BB723C"/>
</linearGradient>
<linearGradient id="paint11_linear_55_18616" x1="16.8603" y1="6.06445" x2="16.8603" y2="16.6199" gradientUnits="userSpaceOnUse">
<stop stop-color="#EFD8AD"/>
<stop offset="0.08" stop-color="#EED5AA"/>
<stop offset="0.13" stop-color="#ECCDA1"/>
<stop offset="0.17" stop-color="#EABF93"/>
<stop offset="0.21" stop-color="#E6AC7E"/>
<stop offset="0.24" stop-color="#E19464"/>
<stop offset="0.26" stop-color="#DF8655"/>
<stop offset="0.28" stop-color="#E19161"/>
<stop offset="0.38" stop-color="#E8B78A"/>
<stop offset="0.45" stop-color="#EDCFA3"/>
<stop offset="0.49" stop-color="#EFD8AD"/>
<stop offset="0.57" stop-color="#EDD4A8"/>
<stop offset="0.66" stop-color="#E7C89C"/>
<stop offset="0.74" stop-color="#DDB687"/>
<stop offset="0.83" stop-color="#D09B6A"/>
<stop offset="0.91" stop-color="#BF7A45"/>
<stop offset="0.93" stop-color="#BB723C"/>
</linearGradient>
<linearGradient id="paint12_linear_55_18616" x1="16.2355" y1="-1.83494" x2="16.2355" y2="8.7205" gradientUnits="userSpaceOnUse">
<stop stop-color="#EFD8AD"/>
<stop offset="0.08" stop-color="#EED5AA"/>
<stop offset="0.13" stop-color="#ECCDA1"/>
<stop offset="0.17" stop-color="#EABF93"/>
<stop offset="0.21" stop-color="#E6AC7E"/>
<stop offset="0.24" stop-color="#E19464"/>
<stop offset="0.26" stop-color="#DF8655"/>
<stop offset="0.28" stop-color="#E19161"/>
<stop offset="0.38" stop-color="#E8B78A"/>
<stop offset="0.45" stop-color="#EDCFA3"/>
<stop offset="0.49" stop-color="#EFD8AD"/>
<stop offset="0.57" stop-color="#EDD4A8"/>
<stop offset="0.66" stop-color="#E7C89C"/>
<stop offset="0.74" stop-color="#DDB687"/>
<stop offset="0.83" stop-color="#D09B6A"/>
<stop offset="0.91" stop-color="#BF7A45"/>
<stop offset="0.93" stop-color="#BB723C"/>
</linearGradient>
<linearGradient id="paint13_linear_55_18616" x1="17.6195" y1="-1.49562" x2="17.6195" y2="9.05981" gradientUnits="userSpaceOnUse">
<stop stop-color="#EFD8AD"/>
<stop offset="0.08" stop-color="#EED5AA"/>
<stop offset="0.13" stop-color="#ECCDA1"/>
<stop offset="0.17" stop-color="#EABF93"/>
<stop offset="0.21" stop-color="#E6AC7E"/>
<stop offset="0.24" stop-color="#E19464"/>
<stop offset="0.26" stop-color="#DF8655"/>
<stop offset="0.28" stop-color="#E19161"/>
<stop offset="0.38" stop-color="#E8B78A"/>
<stop offset="0.45" stop-color="#EDCFA3"/>
<stop offset="0.49" stop-color="#EFD8AD"/>
<stop offset="0.57" stop-color="#EDD4A8"/>
<stop offset="0.66" stop-color="#E7C89C"/>
<stop offset="0.74" stop-color="#DDB687"/>
<stop offset="0.83" stop-color="#D09B6A"/>
<stop offset="0.91" stop-color="#BF7A45"/>
<stop offset="0.93" stop-color="#BB723C"/>
</linearGradient>
<linearGradient id="paint14_linear_55_18616" x1="16.4582" y1="2.18754" x2="16.4582" y2="12.743" gradientUnits="userSpaceOnUse">
<stop stop-color="#EFD8AD"/>
<stop offset="0.08" stop-color="#EED5AA"/>
<stop offset="0.13" stop-color="#ECCDA1"/>
<stop offset="0.17" stop-color="#EABF93"/>
<stop offset="0.21" stop-color="#E6AC7E"/>
<stop offset="0.24" stop-color="#E19464"/>
<stop offset="0.26" stop-color="#DF8655"/>
<stop offset="0.28" stop-color="#E19161"/>
<stop offset="0.38" stop-color="#E8B78A"/>
<stop offset="0.45" stop-color="#EDCFA3"/>
<stop offset="0.49" stop-color="#EFD8AD"/>
<stop offset="0.57" stop-color="#EDD4A8"/>
<stop offset="0.66" stop-color="#E7C89C"/>
<stop offset="0.74" stop-color="#DDB687"/>
<stop offset="0.83" stop-color="#D09B6A"/>
<stop offset="0.91" stop-color="#BF7A45"/>
<stop offset="0.93" stop-color="#BB723C"/>
</linearGradient>
<clipPath id="clip0_55_18616">
<rect width="33" height="33" fill="white"/>
</clipPath>
</defs>
</svg>
