<svg width="40" height="40" viewBox="0 0 40 40" fill="none" xmlns="http://www.w3.org/2000/svg">
<path d="M33.7305 15.3477C35.1566 13.9413 35.1566 11.6589 33.7305 10.2525C32.3075 8.84928 30.0026 8.84928 28.5796 10.2525L15.7409 22.9128L11.4206 18.6525C9.99761 17.2493 7.69272 17.2493 6.2697 18.6525C4.84356 20.0589 4.84356 22.3413 6.2697 23.7477L13.1655 30.5477C14.5885 31.9509 16.8934 31.9509 18.3164 30.5477L33.7305 15.3477Z" fill="#9CFF68" stroke="black" stroke-width="0.8" stroke-linecap="round" stroke-linejoin="round"/>
<path fill-rule="evenodd" clip-rule="evenodd" d="M34.3429 12.2C34.2255 12.8091 33.9278 13.3912 33.4496 13.8627L18.0356 29.0627C16.7683 30.3124 14.7136 30.3124 13.4463 29.0627L6.55056 22.2627C6.0724 21.7912 5.77466 21.2091 5.65733 20.5999C5.46369 21.6053 5.76143 22.6845 6.55056 23.4627L13.4463 30.2627C14.7136 31.5124 16.7683 31.5124 18.0356 30.2627L33.4496 15.0627C34.2388 14.2845 34.5365 13.2053 34.3429 12.2Z" fill="#43852B"/>
</svg>
