<svg width="28" height="30" viewBox="0 0 28 30" fill="none" xmlns="http://www.w3.org/2000/svg">
<path d="M0.787354 7.73545L4.86096 14.8408H22.4676L26.0652 7.51917L0.787354 7.73545Z" fill="#892E00"/>
<path d="M22.468 4.19495H4.86084V14.8407H22.468V4.19495Z" fill="#44170B"/>
<path d="M4.63846 15.2567L0.613037 8.16846H1.43001L5.50468 15.2567H4.63846Z" fill="#E27600"/>
<path d="M22.7264 15.2568L26.4788 7.9126H25.6618L21.8607 15.2568H22.7264Z" fill="#E27600"/>
<path d="M22.4672 14.4248H4.63843V15.2568H22.4672V14.4248Z" fill="#894919"/>
<path d="M3.68673 0.242468C3.68673 0.242468 13.1247 -0.302535 23.052 0.242468L24.3653 0.570112L25.1175 7.79703L0.975098 7.57913L2.09187 0.89615L3.68673 0.241932V0.242468Z" fill="url(#paint0_linear_56_18774)"/>
<path d="M25.5344 0.594257C25.3476 0.224854 25.0082 0 24.6409 0H23.2233C23.0605 0 22.9652 0.215753 23.0605 0.369938C25.2089 3.86374 24.5226 7.08397 24.5226 7.08397H2.5201C2.5201 7.08397 1.83376 3.86374 3.98219 0.369938C4.07748 0.215753 3.98219 0 3.81997 0H2.40232C2.03452 0 1.6951 0.224854 1.50826 0.594257C0.869566 1.85933 -0.445294 4.56132 0.15164 7.6263C0.245329 8.10652 0.613661 8.44594 1.03499 8.44594H26.0072C26.4285 8.44594 26.7968 8.10652 26.8905 7.6263C27.4875 4.56079 26.1731 1.85933 25.5339 0.594257H25.5344Z" fill="url(#paint1_linear_56_18774)"/>
<path opacity="0.7" d="M24.3948 3.66719H2.63745L2.7456 3.26941L24.33 3.38023L24.3948 3.66719Z" fill="#602000"/>
<path d="M8.99888 14.9591C8.58236 14.3847 7.3901 13.6223 5.88518 13.0216C4.38027 12.4209 2.99099 12.1522 2.29341 12.2823L2.00003 12.165L1.70665 12.8996C1.48875 13.4446 2.94495 14.5383 4.959 15.3424C6.97251 16.1466 8.78152 16.3559 8.99941 15.8109L9.29279 15.0764L8.99941 14.9591H8.99888Z" fill="#F56C01"/>
<path d="M9.29253 15.0763C9.07463 15.6213 7.26616 15.412 5.25211 14.6079C3.2386 13.8038 1.7824 12.7105 1.99976 12.165C2.21765 11.62 4.02612 11.8293 6.04017 12.6335C8.05422 13.4376 9.50988 14.5308 9.29253 15.0763Z" fill="url(#paint2_linear_56_18774)"/>
<path d="M8.05364 14.5816C7.91016 14.9414 6.71576 14.8032 5.38591 14.2721C4.05606 13.7411 3.09507 13.0194 3.23855 12.6591C3.38203 12.2993 4.57643 12.4374 5.90628 12.9685C7.2356 13.4991 8.19712 14.2213 8.05364 14.5816Z" fill="#DD5900"/>
<path d="M12.3505 12.0456C11.7509 11.6666 10.3606 11.4005 8.74054 11.4005C7.12052 11.4005 5.73017 11.6661 5.13056 12.0456H4.8147V12.8369C4.8147 13.4242 6.57231 13.9001 8.74054 13.9001C10.9088 13.9001 12.6664 13.4242 12.6664 12.8369V12.0456H12.3505Z" fill="#F56C01"/>
<path d="M12.6671 12.0457C12.6671 12.633 10.9095 13.1089 8.74127 13.1089C6.57304 13.1089 4.81543 12.633 4.81543 12.0457C4.81543 11.4584 6.57304 10.9824 8.74127 10.9824C10.9095 10.9824 12.6671 11.4584 12.6671 12.0457Z" fill="url(#paint3_linear_56_18774)"/>
<path d="M11.3329 12.0457C11.3329 12.4333 10.1723 12.7476 8.74068 12.7476C7.30911 12.7476 6.14844 12.4333 6.14844 12.0457C6.14844 11.6581 7.30911 11.3439 8.74068 11.3439C10.1723 11.3439 11.3329 11.6581 11.3329 12.0457Z" fill="#F56C01"/>
<path d="M20.7477 12.7823C20.1481 12.4033 18.7578 12.1372 17.1378 12.1372C15.5177 12.1372 14.1274 12.4033 13.5278 12.7823H13.2119V13.5736C13.2119 14.1609 14.9695 14.6368 17.1378 14.6368C19.306 14.6368 21.0636 14.1609 21.0636 13.5736V12.7823H20.7477Z" fill="#F56C01"/>
<path d="M17.1378 13.8456C19.3059 13.8456 21.0636 13.3696 21.0636 12.7824C21.0636 12.1951 19.3059 11.7191 17.1378 11.7191C14.9696 11.7191 13.2119 12.1951 13.2119 12.7824C13.2119 13.3696 14.9696 13.8456 17.1378 13.8456Z" fill="url(#paint4_linear_56_18774)"/>
<path d="M17.1379 13.4843C18.5696 13.4843 19.7301 13.1701 19.7301 12.7824C19.7301 12.3948 18.5696 12.0806 17.1379 12.0806C15.7062 12.0806 14.5457 12.3948 14.5457 12.7824C14.5457 13.1701 15.7062 13.4843 17.1379 13.4843Z" fill="#DB5800"/>
<path d="M25.8792 12.7347C25.294 12.3331 23.9149 12.0151 22.296 11.9541C20.677 11.8931 19.2776 12.1061 18.664 12.4627L18.3482 12.4509L18.3182 13.2411C18.2962 13.8279 20.0346 14.3697 22.2012 14.4516C24.3678 14.5335 26.1426 14.1239 26.1645 13.5372L26.1945 12.7464L25.8786 12.7347H25.8792Z" fill="#F56C01"/>
<path d="M26.1951 12.7465C26.1731 13.3333 24.3984 13.7423 22.2317 13.6609C20.0651 13.579 18.3262 13.0372 18.3487 12.4505C18.3707 11.8637 20.1454 11.4547 22.312 11.5361C24.4787 11.618 26.2175 12.1598 26.1951 12.7465Z" fill="url(#paint5_linear_56_18774)"/>
<path d="M24.8622 12.6961C24.8477 13.0831 23.6758 13.3535 22.2453 13.2994C20.8148 13.2454 19.667 12.8877 19.6814 12.5001C19.6959 12.1131 20.8678 11.8427 22.2983 11.8968C23.7288 11.9508 24.8766 12.3085 24.8622 12.6961Z" fill="#F56C01"/>
<path d="M19.2006 10.628C18.5518 10.3405 17.1379 10.2805 15.535 10.5166C13.9321 10.7532 12.5958 11.219 12.0578 11.6816L11.7451 11.7276L11.8608 12.5103C11.9464 13.0912 13.7549 13.3053 15.9001 12.9889C18.0453 12.6725 19.7146 11.945 19.6289 11.3641L19.5133 10.5814L19.2006 10.6274V10.628Z" fill="#F56C01"/>
<path d="M19.5133 10.582C19.5989 11.1628 17.9297 11.8904 15.7844 12.2068C13.6392 12.5232 11.8308 12.3091 11.7451 11.7282C11.6594 11.1473 13.3287 10.4203 15.4739 10.1033C17.6191 9.78694 19.4276 10.0011 19.5133 10.582Z" fill="url(#paint6_linear_56_18774)"/>
<path d="M18.1937 10.7767C18.2504 11.16 17.1481 11.6403 15.7315 11.8496C14.3149 12.0589 13.1211 11.917 13.0648 11.5337C13.0081 11.1504 14.1104 10.6702 15.527 10.4608C16.943 10.2521 18.1374 10.3934 18.1937 10.7767Z" fill="#F56C01"/>
<path d="M15.5182 13.4088C14.9186 13.0297 13.5283 12.7637 11.9083 12.7637C10.2882 12.7637 8.8979 13.0297 8.29829 13.4088H7.98242V14.2001C7.98242 14.7874 9.74003 15.2633 11.9083 15.2633C14.0765 15.2633 15.8341 14.7874 15.8341 14.2001V13.4088H15.5182Z" fill="#F56C01"/>
<path d="M15.8341 13.4087C15.8341 13.996 14.0765 14.4714 11.9083 14.4714C9.74003 14.4714 7.98242 13.9955 7.98242 13.4087C7.98242 12.8219 9.74003 12.3455 11.9083 12.3455C14.0765 12.3455 15.8341 12.8214 15.8341 13.4087Z" fill="url(#paint7_linear_56_18774)"/>
<path d="M14.4999 13.4088C14.4999 13.7964 13.3392 14.1106 11.9077 14.1106C10.4761 14.1106 9.31543 13.7964 9.31543 13.4088C9.31543 13.0212 10.4761 12.7069 11.9077 12.7069C13.3392 12.7069 14.4999 13.0212 14.4999 13.4088Z" fill="#F56C01"/>
<path d="M27.0143 13.9137H0.158691V29.7868H27.0143V13.9137Z" fill="url(#paint8_linear_56_18774)"/>
<g opacity="0.7">
<path d="M26.9795 24.2649H0.469238V24.6022H26.9795V24.2649Z" fill="#602000"/>
</g>
<g opacity="0.7">
<path d="M26.7449 20.5137H0.234619V20.851H26.7449V20.5137Z" fill="#602000"/>
</g>
<g style="mix-blend-mode:multiply" opacity="0.7">
<path d="M17.7095 20.3208C17.7095 20.6217 17.5987 20.8658 17.4622 20.8658H9.71169C9.57518 20.8658 9.46436 20.6217 9.46436 20.3208" stroke="#6D3400" stroke-width="0.720068" stroke-miterlimit="10"/>
</g>
<path d="M24.1163 13.9137H3.05712H0.15918V29.7873H27.0148V13.9142H24.1168L24.1163 13.9137ZM24.1163 26.8888H3.05712V16.8116H24.1163V26.8888Z" fill="url(#paint9_linear_56_18774)"/>
<path d="M9.34448 13.9125H17.8295V20.2432C17.8295 20.3942 17.7069 20.5162 17.5565 20.5162H9.61805C9.46708 20.5162 9.34502 20.3936 9.34502 20.2432V13.9125H9.34448Z" fill="url(#paint10_linear_56_18774)"/>
<path d="M9.34448 13.9125H17.8295V20.2432C17.8295 20.3942 17.7069 20.5162 17.5565 20.5162H9.61805C9.46708 20.5162 9.34502 20.3936 9.34502 20.2432V13.9125H9.34448Z" stroke="#FFCD52" stroke-width="0.499497" stroke-miterlimit="10"/>
<path d="M14.7726 15.9469C14.7726 15.2922 14.2415 14.7611 13.5867 14.7611C12.932 14.7611 12.4009 15.2922 12.4009 15.9469C12.4009 16.3811 12.6348 16.7602 12.9834 16.9668L12.5925 19.1099H14.5809L14.1901 16.9668C14.5386 16.7602 14.7726 16.3817 14.7726 15.9469Z" fill="#44170B"/>
<path d="M6.97998 9.38115L7.17111 9.98933C7.23642 10.1976 7.38846 10.3678 7.58762 10.4567L8.1701 10.7164L7.5041 10.9257C7.33225 10.9798 7.19252 11.1045 7.11918 11.2689L6.8349 11.9065L6.71176 11.5141C6.60308 11.1687 6.35146 10.8861 6.0206 10.7388L5.64478 10.5713L6.26955 10.3748C6.4671 10.3127 6.62878 10.1687 6.71337 9.97915L6.97998 9.38062V9.38115Z" fill="#FFFFFA"/>
<path d="M15.2056 10.3121L15.4781 11.1714C15.5712 11.4658 15.7865 11.7057 16.0691 11.831L16.8936 12.1956L15.953 12.4938C15.7104 12.5708 15.5129 12.7481 15.4101 12.9804L15.0107 13.883L14.8351 13.3289C14.6804 12.8407 14.3233 12.4424 13.8549 12.2352L13.3232 11.9996L14.2061 11.7196C14.4855 11.6307 14.7131 11.4268 14.8319 11.1591L15.2067 10.3121H15.2056Z" fill="#FFFFFA"/>
<path d="M25.542 11.2416L25.6812 11.6838C25.7288 11.8353 25.8391 11.959 25.9842 12.0238L26.4076 12.2128L25.9231 12.3648C25.7984 12.4039 25.6961 12.4949 25.6431 12.6143L25.4365 13.0779L25.3465 12.7926C25.2673 12.541 25.0842 12.3359 24.8438 12.2283L24.5708 12.1068L25.0253 11.9638C25.1693 11.9189 25.2866 11.8139 25.3482 11.6763L25.542 11.2411V11.2416Z" fill="#FFFFFA"/>
<path d="M5.16421 11.1361L5.28627 11.414C5.32803 11.5093 5.40887 11.5821 5.50791 11.6137L5.79701 11.7063L5.49239 11.8401C5.41369 11.8744 5.35426 11.9413 5.32803 12.0227L5.22684 12.3396L5.14815 12.1603C5.07855 12.0023 4.94471 11.8819 4.78035 11.8289L4.59351 11.7694L4.87939 11.6436C4.96987 11.604 5.03893 11.5275 5.06891 11.4332L5.16421 11.1361Z" fill="#FFFFFA"/>
<defs>
<linearGradient id="paint0_linear_56_18774" x1="13.0444" y1="7.49347" x2="12.9759" y2="2.2244" gradientUnits="userSpaceOnUse">
<stop stop-color="#FF6C12"/>
<stop offset="1" stop-color="#CE5414"/>
</linearGradient>
<linearGradient id="paint1_linear_56_18774" x1="13.5487" y1="8.58086" x2="13.4159" y2="-3.76952" gradientUnits="userSpaceOnUse">
<stop offset="0.08" stop-color="#FFD049"/>
<stop offset="0.19" stop-color="#FFB541"/>
<stop offset="0.52" stop-color="#FF820E"/>
<stop offset="0.93" stop-color="#FF820E"/>
</linearGradient>
<linearGradient id="paint2_linear_56_18774" x1="4.74012" y1="11.5102" x2="6.94907" y2="16.6566" gradientUnits="userSpaceOnUse">
<stop stop-color="#FFB541"/>
<stop offset="1" stop-color="#FF820E"/>
</linearGradient>
<linearGradient id="paint3_linear_56_18774" x1="7.11804" y1="10.423" x2="11.0787" y2="14.3836" gradientUnits="userSpaceOnUse">
<stop stop-color="#FFB541"/>
<stop offset="1" stop-color="#FF820E"/>
</linearGradient>
<linearGradient id="paint4_linear_56_18774" x1="15.5145" y1="11.1597" x2="19.4752" y2="15.1203" gradientUnits="userSpaceOnUse">
<stop stop-color="#FFB541"/>
<stop offset="1" stop-color="#FF820E"/>
</linearGradient>
<linearGradient id="paint5_linear_56_18774" x1="20.7112" y1="10.9156" x2="24.5197" y2="15.0227" gradientUnits="userSpaceOnUse">
<stop stop-color="#FFB541"/>
<stop offset="1" stop-color="#FF820E"/>
</linearGradient>
<linearGradient id="paint6_linear_56_18774" x1="13.7871" y1="9.7845" x2="18.2838" y2="13.1241" gradientUnits="userSpaceOnUse">
<stop stop-color="#FFB541"/>
<stop offset="1" stop-color="#FF820E"/>
</linearGradient>
<linearGradient id="paint7_linear_56_18774" x1="9.82248" y1="11.3234" x2="13.7831" y2="15.2836" gradientUnits="userSpaceOnUse">
<stop stop-color="#FFDA9E"/>
<stop offset="0.34" stop-color="#FFB541"/>
<stop offset="1" stop-color="#FF820E"/>
</linearGradient>
<linearGradient id="paint8_linear_56_18774" x1="13.6874" y1="40.4593" x2="13.5418" y2="13.6043" gradientUnits="userSpaceOnUse">
<stop offset="0.05" stop-color="#FD8711"/>
<stop offset="0.69" stop-color="#B03E05"/>
</linearGradient>
<linearGradient id="paint9_linear_56_18774" x1="-1.81204" y1="6.45122" x2="25.5307" y2="33.794" gradientUnits="userSpaceOnUse">
<stop offset="0.08" stop-color="#FFD836"/>
<stop offset="0.58" stop-color="#F7941D"/>
<stop offset="1" stop-color="#F56C01"/>
</linearGradient>
<linearGradient id="paint10_linear_56_18774" x1="17.9907" y1="22.2374" x2="9.59343" y2="12.4964" gradientUnits="userSpaceOnUse">
<stop offset="0.19" stop-color="#E86104"/>
<stop offset="0.73" stop-color="#FFB541"/>
</linearGradient>
</defs>
</svg>
