<svg width="375" height="245" viewBox="0 0 375 245" fill="none" xmlns="http://www.w3.org/2000/svg">
<g clip-path="url(#clip0_48_2063)">
<g opacity="0.05">
<path fill-rule="evenodd" clip-rule="evenodd" d="M-7.48203 71.8732C0.25175 69.3801 5.22827 63.6195 6.22623 55.4004C7.53043 44.6591 -1.90521 32.0475 -15.237 30.4288C-28.5689 28.81 -40.7484 38.7971 -42.0526 49.5384C-43.0506 57.7576 -39.6602 65.0601 -32.7461 69.3183L-33.164 72.7598C-33.3017 73.8944 -32.4936 74.9259 -31.359 75.0636L-10.2651 77.6248C-9.13048 77.7626 -8.099 76.9545 -7.96124 75.8199L-7.48203 71.8732ZM-24.5545 46.7049C-23.8541 46.2106 -22.8857 46.3777 -22.3914 47.0781L-19.4038 51.3115C-18.9095 52.0119 -19.0766 52.9803 -19.7769 53.4746C-20.4773 53.9689 -21.4458 53.8018 -21.94 53.1014L-24.9277 48.868C-25.4219 48.1676 -25.2549 47.1992 -24.5545 46.7049ZM-12.2672 48.57C-11.6197 48.0083 -10.6394 48.0778 -10.0777 48.7253C-9.51593 49.3728 -9.58546 50.3531 -10.233 50.9149L-14.1469 54.3103C-14.7944 54.872 -15.7747 54.8025 -16.3364 54.155C-16.8982 53.5074 -16.8286 52.5272 -16.1811 51.9654L-12.2672 48.57ZM-22.1833 58.0984C-22.6655 62.0696 -26.2757 64.898 -30.2468 64.4158C-34.218 63.9336 -37.0464 60.3235 -36.5642 56.3523C-36.0821 52.3811 -32.4719 49.5527 -28.5007 50.0349C-24.5295 50.5171 -21.7011 54.1272 -22.1833 58.0984ZM-8.22253 67.09C-4.25134 67.5722 -0.641174 64.7438 -0.158997 60.7726C0.323181 56.8014 -2.50522 53.1912 -6.47641 52.7091C-10.4476 52.2269 -14.0578 55.0553 -14.5399 59.0265C-15.0221 62.9977 -12.1937 66.6078 -8.22253 67.09ZM-18.9787 61.2451L-16.1687 67.8404L-23.2854 66.9763L-18.9787 61.2451Z" fill="white"/>
<path fill-rule="evenodd" clip-rule="evenodd" d="M115.873 86.8507C123.607 84.3576 128.583 78.5971 129.581 70.3779C130.885 59.6366 121.45 47.0251 108.118 45.4063C94.7861 43.7876 82.6066 53.7746 81.3024 64.516C80.3044 72.7351 83.6948 80.0376 90.6089 84.2958L90.191 87.7373C90.0532 88.8719 90.8613 89.9034 91.996 90.0412L113.09 92.6024C114.225 92.7402 115.256 91.932 115.394 90.7974L115.873 86.8507ZM98.8005 61.6825C99.5009 61.1882 100.469 61.3553 100.964 62.0556L103.951 66.289C104.445 66.9894 104.278 67.9579 103.578 68.4521C102.878 68.9464 101.909 68.7793 101.415 68.079L98.4273 63.8456C97.933 63.1452 98.1001 62.1767 98.8005 61.6825ZM111.088 63.5475C111.735 62.9858 112.716 63.0553 113.277 63.7028C113.839 64.3504 113.77 65.3307 113.122 65.8924L109.208 69.2878C108.561 69.8496 107.58 69.78 107.019 69.1325C106.457 68.485 106.526 67.5047 107.174 66.943L111.088 63.5475ZM101.172 73.076C100.689 77.0471 97.0793 79.8755 93.1081 79.3934C89.137 78.9112 86.3086 75.301 86.7907 71.3298C87.2729 67.3587 90.8831 64.5303 94.8543 65.0124C98.8254 65.4946 101.654 69.1048 101.172 73.076ZM115.132 82.0675C119.104 82.5497 122.714 79.7213 123.196 75.7501C123.678 71.7789 120.85 68.1688 116.879 67.6866C112.907 67.2044 109.297 70.0328 108.815 74.004C108.333 77.9752 111.161 81.5854 115.132 82.0675ZM104.376 76.2226L107.186 82.8179L100.07 81.9538L104.376 76.2226Z" fill="white"/>
<path fill-rule="evenodd" clip-rule="evenodd" d="M239.228 101.829C246.961 99.3354 251.938 93.5749 252.936 85.3557C254.24 74.6144 244.805 62.0028 231.473 60.3841C218.141 58.7654 205.961 68.7524 204.657 79.4938C203.659 87.7129 207.05 95.0154 213.964 99.2736L213.546 102.715C213.408 103.85 214.216 104.881 215.351 105.019L236.445 107.58C237.579 107.718 238.611 106.91 238.748 105.775L239.228 101.829ZM222.155 76.6602C222.856 76.166 223.824 76.333 224.318 77.0334L227.306 81.2668C227.8 81.9672 227.633 82.9356 226.933 83.4299C226.232 83.9242 225.264 83.7571 224.77 83.0567L221.782 78.8233C221.288 78.123 221.455 77.1545 222.155 76.6602ZM234.443 78.5253C235.09 77.9636 236.07 78.0331 236.632 78.6806C237.194 79.3281 237.124 80.3084 236.477 80.8702L232.563 84.2656C231.915 84.8273 230.935 84.7578 230.373 84.1103C229.812 83.4628 229.881 82.4825 230.529 81.9207L234.443 78.5253ZM224.526 88.0537C224.044 92.0249 220.434 94.8533 216.463 94.3711C212.492 93.889 209.663 90.2788 210.145 86.3076C210.628 82.3364 214.238 79.508 218.209 79.9902C222.18 80.4724 225.009 84.0826 224.526 88.0537ZM238.487 97.0453C242.458 97.5275 246.069 94.6991 246.551 90.7279C247.033 86.7567 244.204 83.1466 240.233 82.6644C236.262 82.1822 232.652 85.0106 232.17 88.9818C231.688 92.953 234.516 96.5631 238.487 97.0453ZM227.731 91.2004L230.541 97.7957L223.424 96.9316L227.731 91.2004Z" fill="white"/>
<path fill-rule="evenodd" clip-rule="evenodd" d="M362.582 116.806C370.316 114.313 375.293 108.552 376.291 100.333C377.595 89.5919 368.159 76.9804 354.827 75.3616C341.496 73.7429 329.316 83.73 328.012 94.4713C327.014 102.69 330.404 109.993 337.318 114.251L336.9 117.693C336.763 118.827 337.571 119.859 338.705 119.997L359.799 122.558C360.934 122.695 361.965 121.887 362.103 120.753L362.582 116.806ZM345.51 91.6378C346.21 91.1435 347.179 91.3106 347.673 92.011L350.661 96.2444C351.155 96.9447 350.988 97.9132 350.288 98.4075C349.587 98.9017 348.619 98.7346 348.124 98.0343L345.137 93.8009C344.643 93.1005 344.81 92.1321 345.51 91.6378ZM357.797 93.5029C358.445 92.9411 359.425 93.0107 359.987 93.6582C360.549 94.3057 360.479 95.286 359.831 95.8477L355.918 99.2431C355.27 99.8049 354.29 99.7353 353.728 99.0878C353.166 98.4403 353.236 97.46 353.883 96.8983L357.797 93.5029ZM347.881 103.031C347.399 107.002 343.789 109.831 339.818 109.349C335.846 108.867 333.018 105.256 333.5 101.285C333.982 97.314 337.593 94.4856 341.564 94.9678C345.535 95.4499 348.363 99.0601 347.881 103.031ZM361.842 112.023C365.813 112.505 369.423 109.677 369.905 105.705C370.388 101.734 367.559 98.1241 363.588 97.6419C359.617 97.1598 356.007 99.9881 355.525 103.959C355.042 107.931 357.871 111.541 361.842 112.023ZM351.086 106.178L353.896 112.773L346.779 111.909L351.086 106.178Z" fill="white"/>
<path fill-rule="evenodd" clip-rule="evenodd" d="M100.697 211.836C108.431 209.342 113.408 203.582 114.406 195.363C115.71 184.621 106.274 172.01 92.9424 170.391C79.6106 168.772 67.431 178.76 66.1268 189.501C65.1289 197.72 68.5193 205.023 75.4333 209.281L75.0155 212.722C74.8777 213.857 75.6858 214.888 76.8204 215.026L97.9143 217.587C99.049 217.725 100.08 216.917 100.218 215.782L100.697 211.836ZM83.6249 186.667C84.3253 186.173 85.2938 186.34 85.788 187.04L88.7757 191.274C89.2699 191.974 89.1029 192.943 88.4025 193.437C87.7021 193.931 86.7337 193.764 86.2394 193.064L83.2518 188.83C82.7575 188.13 82.9246 187.162 83.6249 186.667ZM95.9122 188.532C96.5598 187.971 97.54 188.04 98.1018 188.688C98.6635 189.335 98.594 190.316 97.9465 190.877L94.0325 194.273C93.385 194.834 92.4047 194.765 91.843 194.117C91.2813 193.47 91.3508 192.49 91.9983 191.928L95.9122 188.532ZM85.9961 198.061C85.514 202.032 81.9038 204.86 77.9326 204.378C73.9614 203.896 71.133 200.286 71.6152 196.315C72.0974 192.344 75.7075 189.515 79.6787 189.997C83.6499 190.479 86.4783 194.09 85.9961 198.061ZM99.9569 207.052C103.928 207.535 107.538 204.706 108.02 200.735C108.503 196.764 105.674 193.154 101.703 192.671C97.7319 192.189 94.1217 195.018 93.6395 198.989C93.1573 202.96 95.9857 206.57 99.9569 207.052ZM89.2007 201.207L92.0107 207.803L84.894 206.939L89.2007 201.207Z" fill="white"/>
<path fill-rule="evenodd" clip-rule="evenodd" d="M224.052 226.813C231.786 224.32 236.762 218.56 237.76 210.341C239.065 199.599 229.629 186.988 216.297 185.369C202.965 183.75 190.786 193.737 189.482 204.479C188.484 212.698 191.874 220 198.788 224.258L198.37 227.7C198.232 228.835 199.041 229.866 200.175 230.004L221.269 232.565C222.404 232.703 223.435 231.895 223.573 230.76L224.052 226.813ZM206.98 201.645C207.68 201.151 208.648 201.318 209.143 202.018L212.13 206.252C212.625 206.952 212.458 207.921 211.757 208.415C211.057 208.909 210.088 208.742 209.594 208.042L206.607 203.808C206.112 203.108 206.279 202.139 206.98 201.645ZM219.267 203.51C219.914 202.948 220.895 203.018 221.457 203.665C222.018 204.313 221.949 205.293 221.301 205.855L217.387 209.25C216.74 209.812 215.759 209.743 215.198 209.095C214.636 208.448 214.706 207.467 215.353 206.906L219.267 203.51ZM209.351 213.039C208.869 217.01 205.259 219.838 201.287 219.356C197.316 218.874 194.488 215.264 194.97 211.292C195.452 207.321 199.062 204.493 203.033 204.975C207.005 205.457 209.833 209.067 209.351 213.039ZM223.312 222.03C227.283 222.512 230.893 219.684 231.375 215.713C231.857 211.742 229.029 208.131 225.058 207.649C221.087 207.167 217.476 209.995 216.994 213.967C216.512 217.938 219.34 221.548 223.312 222.03ZM212.555 216.185L215.365 222.781L208.249 221.916L212.555 216.185Z" fill="white"/>
<path fill-rule="evenodd" clip-rule="evenodd" d="M347.407 241.791C355.141 239.298 360.117 233.537 361.115 225.318C362.419 214.577 352.984 201.965 339.652 200.347C326.32 198.728 314.141 208.715 312.836 219.456C311.838 227.675 315.229 234.978 322.143 239.236L321.725 242.678C321.587 243.812 322.395 244.844 323.53 244.981L344.624 247.543C345.758 247.68 346.79 246.872 346.928 245.738L347.407 241.791ZM330.334 216.623C331.035 216.128 332.003 216.295 332.498 216.996L335.485 221.229C335.979 221.93 335.812 222.898 335.112 223.392C334.412 223.887 333.443 223.72 332.949 223.019L329.961 218.786C329.467 218.085 329.634 217.117 330.334 216.623ZM342.622 218.488C343.269 217.926 344.25 217.996 344.811 218.643C345.373 219.291 345.303 220.271 344.656 220.833L340.742 224.228C340.094 224.79 339.114 224.72 338.552 224.073C337.991 223.425 338.06 222.445 338.708 221.883L342.622 218.488ZM332.706 228.016C332.223 231.987 328.613 234.816 324.642 234.334C320.671 233.851 317.842 230.241 318.325 226.27C318.807 222.299 322.417 219.47 326.388 219.953C330.359 220.435 333.188 224.045 332.706 228.016ZM346.666 237.008C350.638 237.49 354.248 234.662 354.73 230.69C355.212 226.719 352.384 223.109 348.413 222.627C344.441 222.145 340.831 224.973 340.349 228.944C339.867 232.915 342.695 236.526 346.666 237.008ZM335.91 231.163L338.72 237.758L331.603 236.894L335.91 231.163Z" fill="white"/>
<path fill-rule="evenodd" clip-rule="evenodd" d="M62.1481 12.8268C69.8819 10.3337 74.8584 4.57316 75.8564 -3.64598C77.1606 -14.3873 67.7249 -26.9989 54.3931 -28.6176C41.0612 -30.2363 28.8817 -20.2493 27.5775 -9.50795C26.5795 -1.28881 29.97 6.01372 36.884 10.2719L36.4661 13.7134C36.3284 14.848 37.1365 15.8795 38.2711 16.0173L59.365 18.5785C60.4996 18.7162 61.5311 17.9081 61.6689 16.7735L62.1481 12.8268ZM45.0756 -12.3415C45.776 -12.8357 46.7444 -12.6687 47.2387 -11.9683L50.2264 -7.73488C50.7206 -7.03451 50.5536 -6.06607 49.8532 -5.57179C49.1528 -5.07752 48.1844 -5.2446 47.6901 -5.94497L44.7025 -10.1784C44.2082 -10.8787 44.3753 -11.8472 45.0756 -12.3415ZM57.3629 -10.4764C58.0104 -11.0381 58.9907 -10.9686 59.5525 -10.3211C60.1142 -9.67356 60.0447 -8.69327 59.3971 -8.13153L55.4832 -4.73611C54.8357 -4.17437 53.8554 -4.24391 53.2937 -4.89143C52.7319 -5.53894 52.8015 -6.51923 53.449 -7.08097L57.3629 -10.4764ZM47.4468 -0.947965C46.9646 3.02322 43.3545 5.85162 39.3833 5.36944C35.4121 4.88726 32.5837 1.2771 33.0659 -2.69408C33.5481 -6.66527 37.1582 -9.49367 41.1294 -9.01149C45.1006 -8.52931 47.929 -4.91915 47.4468 -0.947965ZM61.4076 8.04361C65.3788 8.52579 68.989 5.69739 69.4711 1.72621C69.9533 -2.24498 67.1249 -5.85514 63.1537 -6.33732C59.1825 -6.8195 55.5724 -3.9911 55.0902 -0.0199131C54.608 3.95127 57.4364 7.56143 61.4076 8.04361ZM50.6514 2.19869L53.4614 8.79399L46.3447 7.92989L50.6514 2.19869Z" fill="white"/>
<path fill-rule="evenodd" clip-rule="evenodd" d="M186.302 27.9013C194.035 25.4081 199.012 19.6476 200.01 11.4285C201.314 0.687156 191.878 -11.9244 178.547 -13.5431C165.215 -15.1619 153.035 -5.17482 151.731 5.56651C150.733 13.7857 154.124 21.0882 161.038 25.3463L160.62 28.7879C160.482 29.9225 161.29 30.954 162.425 31.0917L183.519 33.6529C184.653 33.7907 185.685 32.9826 185.822 31.848L186.302 27.9013ZM169.229 2.733C169.93 2.23872 170.898 2.4058 171.392 3.10617L174.38 7.33958C174.874 8.03995 174.707 9.0084 174.007 9.50267C173.306 9.99694 172.338 9.82986 171.844 9.1295L168.856 4.89609C168.362 4.19572 168.529 3.22727 169.229 2.733ZM181.516 4.59807C182.164 4.03633 183.144 4.10587 183.706 4.75338C184.268 5.4009 184.198 6.38119 183.551 6.94293L179.637 10.3384C178.989 10.9001 178.009 10.8306 177.447 10.183C176.886 9.53552 176.955 8.55523 177.603 7.99349L181.516 4.59807ZM171.6 14.1265C171.118 18.0977 167.508 20.9261 163.537 20.4439C159.566 19.9617 156.737 16.3516 157.219 12.3804C157.702 8.40919 161.312 5.58079 165.283 6.06297C169.254 6.54515 172.083 10.1553 171.6 14.1265ZM185.561 23.1181C189.532 23.6003 193.143 20.7719 193.625 16.8007C194.107 12.8295 191.278 9.21932 187.307 8.73714C183.336 8.25497 179.726 11.0834 179.244 15.0545C178.762 19.0257 181.59 22.6359 185.561 23.1181ZM174.805 17.2731L177.615 23.8685L170.498 23.0044L174.805 17.2731Z" fill="white"/>
<path fill-rule="evenodd" clip-rule="evenodd" d="M310.455 42.976C318.189 40.4828 323.165 34.7223 324.163 26.5032C325.467 15.7619 316.032 3.15031 302.7 1.53157C289.368 -0.0871671 277.189 9.89989 275.884 20.6412C274.886 28.8604 278.277 36.1629 285.191 40.421L284.773 43.8626C284.635 44.9972 285.443 46.0287 286.578 46.1664L307.672 48.7276C308.807 48.8654 309.838 48.0573 309.976 46.9227L310.455 42.976ZM293.383 17.8077C294.083 17.3134 295.051 17.4805 295.546 18.1809L298.533 22.4143C299.028 23.1147 298.86 24.0831 298.16 24.5774C297.46 25.0716 296.491 24.9046 295.997 24.2042L293.009 19.9708C292.515 19.2704 292.682 18.302 293.383 17.8077ZM305.67 19.6728C306.317 19.111 307.298 19.1806 307.859 19.8281C308.421 20.4756 308.352 21.4559 307.704 22.0176L303.79 25.4131C303.143 25.9748 302.162 25.9053 301.601 25.2577C301.039 24.6102 301.108 23.6299 301.756 23.0682L305.67 19.6728ZM295.754 29.2012C295.272 33.1724 291.661 36.0008 287.69 35.5186C283.719 35.0364 280.891 31.4263 281.373 27.4551C281.855 23.4839 285.465 20.6555 289.436 21.1377C293.407 21.6199 296.236 25.23 295.754 29.2012ZM309.714 38.1928C313.686 38.675 317.296 35.8466 317.778 31.8754C318.26 27.9042 315.432 24.294 311.461 23.8119C307.489 23.3297 303.879 26.1581 303.397 30.1293C302.915 34.1004 305.743 37.7106 309.714 38.1928ZM298.958 32.3479L301.768 38.9432L294.652 38.0791L298.958 32.3479Z" fill="white"/>
<path fill-rule="evenodd" clip-rule="evenodd" d="M46.7787 139.409C54.5125 136.916 59.489 131.155 60.487 122.936C61.7912 112.195 52.3555 99.5834 39.0237 97.9647C25.6919 96.3459 13.5123 106.333 12.2081 117.074C11.2102 125.293 14.6006 132.596 21.5146 136.854L21.0968 140.296C20.959 141.43 21.7671 142.462 22.9017 142.6L43.9956 145.161C45.1303 145.299 46.1617 144.49 46.2995 143.356L46.7787 139.409ZM29.7062 114.241C30.4066 113.747 31.3751 113.914 31.8693 114.614L34.857 118.847C35.3512 119.548 35.1842 120.516 34.4838 121.01C33.7834 121.505 32.815 121.338 32.3207 120.637L29.3331 116.404C28.8388 115.704 29.0059 114.735 29.7062 114.241ZM41.9935 116.106C42.6411 115.544 43.6213 115.614 44.1831 116.261C44.7448 116.909 44.6753 117.889 44.0278 118.451L40.1138 121.846C39.4663 122.408 38.486 122.338 37.9243 121.691C37.3626 121.043 37.4321 120.063 38.0796 119.501L41.9935 116.106ZM32.0774 125.634C31.5953 129.605 27.9851 132.434 24.0139 131.952C20.0427 131.47 17.2143 127.859 17.6965 123.888C18.1787 119.917 21.7888 117.089 25.76 117.571C29.7312 118.053 32.5596 121.663 32.0774 125.634ZM46.0382 134.626C50.0094 135.108 53.6196 132.28 54.1017 128.308C54.5839 124.337 51.7555 120.727 47.7843 120.245C43.8132 119.763 40.203 122.591 39.7208 126.562C39.2386 130.534 42.067 134.144 46.0382 134.626ZM35.282 128.781L38.092 135.376L30.9753 134.512L35.282 128.781Z" fill="white"/>
<path fill-rule="evenodd" clip-rule="evenodd" d="M170.932 154.484C178.666 151.99 183.642 146.23 184.64 138.011C185.944 127.269 176.509 114.658 163.177 113.039C149.845 111.42 137.666 121.407 136.361 132.149C135.363 140.368 138.754 147.67 145.668 151.929L145.25 155.37C145.112 156.505 145.92 157.536 147.055 157.674L168.149 160.235C169.284 160.373 170.315 159.565 170.453 158.43L170.932 154.484ZM153.86 129.315C154.56 128.821 155.528 128.988 156.023 129.688L159.01 133.922C159.505 134.622 159.337 135.591 158.637 136.085C157.937 136.579 156.968 136.412 156.474 135.712L153.486 131.478C152.992 130.778 153.159 129.81 153.86 129.315ZM166.147 131.18C166.794 130.619 167.775 130.688 168.336 131.336C168.898 131.983 168.829 132.963 168.181 133.525L164.267 136.921C163.62 137.482 162.639 137.413 162.078 136.765C161.516 136.118 161.585 135.138 162.233 134.576L166.147 131.18ZM156.231 140.709C155.749 144.68 152.138 147.508 148.167 147.026C144.196 146.544 141.368 142.934 141.85 138.963C142.332 134.991 145.942 132.163 149.913 132.645C153.885 133.127 156.713 136.738 156.231 140.709ZM170.192 149.7C174.163 150.183 177.773 147.354 178.255 143.383C178.737 139.412 175.909 135.802 171.938 135.319C167.966 134.837 164.356 137.666 163.874 141.637C163.392 145.608 166.22 149.218 170.192 149.7ZM159.435 143.855L162.245 150.451L155.129 149.587L159.435 143.855Z" fill="white"/>
<path fill-rule="evenodd" clip-rule="evenodd" d="M295.086 169.558C302.819 167.065 307.796 161.305 308.794 153.085C310.098 142.344 300.662 129.733 287.331 128.114C273.999 126.495 261.819 136.482 260.515 147.223C259.517 155.443 262.907 162.745 269.822 167.003L269.404 170.445C269.266 171.579 270.074 172.611 271.209 172.749L292.303 175.31C293.437 175.448 294.469 174.64 294.606 173.505L295.086 169.558ZM278.013 144.39C278.713 143.896 279.682 144.063 280.176 144.763L283.164 148.997C283.658 149.697 283.491 150.665 282.791 151.16C282.09 151.654 281.122 151.487 280.628 150.786L277.64 146.553C277.146 145.853 277.313 144.884 278.013 144.39ZM290.3 146.255C290.948 145.693 291.928 145.763 292.49 146.41C293.052 147.058 292.982 148.038 292.335 148.6L288.421 151.995C287.773 152.557 286.793 152.488 286.231 151.84C285.669 151.193 285.739 150.212 286.386 149.65L290.3 146.255ZM280.384 155.783C279.902 159.755 276.292 162.583 272.321 162.101C268.35 161.619 265.521 158.009 266.003 154.037C266.486 150.066 270.096 147.238 274.067 147.72C278.038 148.202 280.866 151.812 280.384 155.783ZM294.345 164.775C298.316 165.257 301.926 162.429 302.409 158.458C302.891 154.486 300.062 150.876 296.091 150.394C292.12 149.912 288.51 152.74 288.028 156.712C287.546 160.683 290.374 164.293 294.345 164.775ZM283.589 158.93L286.399 165.525L279.282 164.661L283.589 158.93Z" fill="white"/>
<path fill-rule="evenodd" clip-rule="evenodd" d="M31.4091 265.991C39.1429 263.498 44.1194 257.737 45.1173 249.518C46.4215 238.777 36.9859 226.165 23.6541 224.547C10.3222 222.928 -1.8573 232.915 -3.1615 243.656C-4.15946 251.875 -0.769046 259.178 6.145 263.436L5.72713 266.878C5.58937 268.012 6.39748 269.044 7.53211 269.182L28.626 271.743C29.7606 271.881 30.7921 271.072 30.9299 269.938L31.4091 265.991ZM14.3366 240.823C15.037 240.329 16.0054 240.496 16.4997 241.196L19.4873 245.429C19.9816 246.13 19.8145 247.098 19.1142 247.593C18.4138 248.087 17.4454 247.92 16.9511 247.219L13.9634 242.986C13.4692 242.286 13.6362 241.317 14.3366 240.823ZM26.6239 242.688C27.2714 242.126 28.2517 242.196 28.8135 242.843C29.3752 243.491 29.3057 244.471 28.6581 245.033L24.7442 248.428C24.0967 248.99 23.1164 248.92 22.5547 248.273C21.9929 247.625 22.0625 246.645 22.71 246.083L26.6239 242.688ZM16.7078 252.216C16.2256 256.188 12.6155 259.016 8.64427 258.534C4.67309 258.052 1.84469 254.441 2.32687 250.47C2.80904 246.499 6.41921 243.671 10.3904 244.153C14.3616 244.635 17.19 248.245 16.7078 252.216ZM30.6686 261.208C34.6398 261.69 38.2499 258.862 38.7321 254.891C39.2143 250.919 36.3859 247.309 32.4147 246.827C28.4435 246.345 24.8334 249.173 24.3512 253.144C23.869 257.116 26.6974 260.726 30.6686 261.208ZM19.9124 255.363L22.7224 261.958L15.6057 261.094L19.9124 255.363Z" fill="white"/>
<path fill-rule="evenodd" clip-rule="evenodd" d="M155.563 281.066C163.296 278.572 168.273 272.812 169.271 264.593C170.575 253.851 161.139 241.24 147.808 239.621C134.476 238.002 122.296 247.989 120.992 258.731C119.994 266.95 123.385 274.252 130.299 278.511L129.881 281.952C129.743 283.087 130.551 284.118 131.686 284.256L152.78 286.817C153.914 286.955 154.946 286.147 155.083 285.012L155.563 281.066ZM138.49 255.897C139.191 255.403 140.159 255.57 140.653 256.27L143.641 260.504C144.135 261.204 143.968 262.173 143.268 262.667C142.567 263.161 141.599 262.994 141.105 262.294L138.117 258.06C137.623 257.36 137.79 256.392 138.49 255.897ZM150.777 257.762C151.425 257.201 152.405 257.27 152.967 257.918C153.529 258.565 153.459 259.545 152.812 260.107L148.898 263.503C148.25 264.064 147.27 263.995 146.708 263.347C146.146 262.7 146.216 261.72 146.864 261.158L150.777 257.762ZM140.861 267.291C140.379 271.262 136.769 274.09 132.798 273.608C128.827 273.126 125.998 269.516 126.48 265.545C126.963 261.573 130.573 258.745 134.544 259.227C138.515 259.709 141.344 263.32 140.861 267.291ZM154.822 276.282C158.793 276.765 162.404 273.936 162.886 269.965C163.368 265.994 160.539 262.384 156.568 261.901C152.597 261.419 148.987 264.248 148.505 268.219C148.023 272.19 150.851 275.8 154.822 276.282ZM144.066 270.437L146.876 277.033L139.759 276.169L144.066 270.437Z" fill="white"/>
</g>
<path d="M0.5 16C0.5 7.43959 7.43959 0.5 16 0.5H359C367.56 0.5 374.5 7.43959 374.5 16V244.5H0.5V16Z" fill="#00338C"/>
<path d="M0.5 16C0.5 7.43959 7.43959 0.5 16 0.5H359C367.56 0.5 374.5 7.43959 374.5 16V244.5H0.5V16Z" stroke="black"/>
<g style="mix-blend-mode:hard-light">
<rect x="333" y="1" width="10" height="243" fill="white" fill-opacity="0.2"/>
</g>
<g style="mix-blend-mode:hard-light">
<rect x="345" y="1" width="10" height="243" fill="white" fill-opacity="0.2"/>
</g>
<g clip-path="url(#clip1_48_2063)">
<path d="M7 18C7 11.9249 11.9249 7 18 7H357C363.075 7 368 11.9249 368 18V233C368 235.761 365.761 238 363 238H12C9.23857 238 7 235.761 7 233V18Z" fill="url(#paint0_radial_48_2063)" stroke="#0776E6" stroke-width="2"/>
</g>
<path d="M111.5 10C111.5 8.067 113.067 6.5 115 6.5H260C261.933 6.5 263.5 8.067 263.5 10V28.0564C263.5 29.7884 262.233 31.26 260.52 31.5175L190.399 42.0586C188.477 42.3475 186.523 42.3475 184.601 42.0586L114.48 31.5175C112.767 31.26 111.5 29.7884 111.5 28.0564V10Z" fill="#3B4B5B" stroke="black"/>
<path d="M112 10C112 8.34315 113.343 7 115 7H260C261.657 7 263 8.34315 263 10V25.0631C263 27.0397 261.556 28.7199 259.602 29.0175L190.512 39.5413C188.515 39.8453 186.485 39.8453 184.488 39.5413L115.398 29.0175C113.444 28.7199 112 27.0397 112 25.0631V10Z" fill="#F6D128"/>
<path d="M112.5 10C112.5 8.61929 113.619 7.5 115 7.5H260C261.381 7.5 262.5 8.61929 262.5 10V25.0631C262.5 26.7926 261.237 28.2628 259.527 28.5232L190.436 39.047C188.49 39.3434 186.51 39.3434 184.564 39.047L115.473 28.5232C113.763 28.2628 112.5 26.7926 112.5 25.0631V10Z" stroke="#C4C4C4" stroke-opacity="0.7" style="mix-blend-mode:hard-light"/>
<path style="mix-blend-mode:hard-light" fill-rule="evenodd" clip-rule="evenodd" d="M263 12.9618C246.57 16.6188 219.771 19 189.5 19C156.629 19 127.851 16.1922 112 11.9918V10C112 8.34315 113.343 7 115 7H260C261.657 7 263 8.34315 263 10V12.9618Z" fill="#F5F5F5" fill-opacity="0.2"/>
<g filter="url(#filter0_dd_48_2063)">
<mask id="path-24-outside-1_48_2063" maskUnits="userSpaceOnUse" x="145" y="15" width="85" height="11" fill="black">
<rect fill="white" x="145" y="15" width="85" height="11"/>
<path d="M148.132 25L145.558 16.2727H148.2L149.393 21.642H149.461L150.876 16.2727H152.956L154.371 21.6591H154.439L155.632 16.2727H158.274L155.7 25H153.433L151.95 20.125H151.882L150.399 25H148.132ZM159.041 25V16.2727H165.331V18.1818H161.41V19.6818H165.007V21.5909H161.41V23.0909H165.314V25H159.041ZM166.506 25V16.2727H168.875V23.0909H172.404V25H166.506ZM181.169 19.5455H178.766C178.749 19.3466 178.703 19.1662 178.629 19.0043C178.558 18.8423 178.459 18.7031 178.331 18.5866C178.206 18.4673 178.054 18.3764 177.875 18.3139C177.696 18.2486 177.493 18.2159 177.266 18.2159C176.868 18.2159 176.531 18.3125 176.256 18.5057C175.983 18.6989 175.776 18.9759 175.634 19.3366C175.494 19.6974 175.425 20.1307 175.425 20.6364C175.425 21.1705 175.496 21.6179 175.638 21.9787C175.783 22.3366 175.992 22.6065 176.264 22.7884C176.537 22.9673 176.865 23.0568 177.249 23.0568C177.468 23.0568 177.664 23.0298 177.837 22.9759C178.01 22.919 178.161 22.8381 178.289 22.733C178.416 22.6278 178.52 22.5014 178.6 22.3537C178.682 22.2031 178.737 22.0341 178.766 21.8466L181.169 21.8636C181.141 22.233 181.037 22.6094 180.858 22.9929C180.679 23.3736 180.425 23.7259 180.095 24.0497C179.769 24.3707 179.364 24.6293 178.881 24.8253C178.398 25.0213 177.837 25.1193 177.198 25.1193C176.396 25.1193 175.678 24.9474 175.041 24.6037C174.408 24.2599 173.906 23.7543 173.537 23.0866C173.171 22.419 172.987 21.6023 172.987 20.6364C172.987 19.6648 173.175 18.8466 173.55 18.1818C173.925 17.5142 174.431 17.0099 175.067 16.669C175.703 16.3253 176.414 16.1534 177.198 16.1534C177.749 16.1534 178.256 16.2287 178.719 16.3793C179.182 16.5298 179.588 16.75 179.938 17.0398C180.287 17.3267 180.568 17.6804 180.781 18.1009C180.994 18.5213 181.124 19.0028 181.169 19.5455ZM190.699 20.6364C190.699 21.608 190.51 22.4276 190.132 23.0952C189.754 23.7599 189.244 24.2642 188.602 24.608C187.96 24.9489 187.244 25.1193 186.454 25.1193C185.659 25.1193 184.94 24.9474 184.298 24.6037C183.659 24.2571 183.15 23.7514 182.773 23.0866C182.398 22.419 182.21 21.6023 182.21 20.6364C182.21 19.6648 182.398 18.8466 182.773 18.1818C183.15 17.5142 183.659 17.0099 184.298 16.669C184.94 16.3253 185.659 16.1534 186.454 16.1534C187.244 16.1534 187.96 16.3253 188.602 16.669C189.244 17.0099 189.754 17.5142 190.132 18.1818C190.51 18.8466 190.699 19.6648 190.699 20.6364ZM188.261 20.6364C188.261 20.1136 188.192 19.6733 188.052 19.3153C187.916 18.9545 187.713 18.6818 187.443 18.4972C187.176 18.3097 186.846 18.2159 186.454 18.2159C186.062 18.2159 185.731 18.3097 185.461 18.4972C185.194 18.6818 184.991 18.9545 184.852 19.3153C184.716 19.6733 184.648 20.1136 184.648 20.6364C184.648 21.1591 184.716 21.6009 184.852 21.9616C184.991 22.3196 185.194 22.5923 185.461 22.7798C185.731 22.9645 186.062 23.0568 186.454 23.0568C186.846 23.0568 187.176 22.9645 187.443 22.7798C187.713 22.5923 187.916 22.3196 188.052 21.9616C188.192 21.6009 188.261 21.1591 188.261 20.6364ZM191.795 16.2727H194.744L196.772 21.2159H196.874L198.903 16.2727H201.852V25H199.534V19.9545H199.465L197.522 24.9318H196.124L194.181 19.9205H194.113V25H191.795V16.2727ZM202.975 25V16.2727H209.264V18.1818H205.344V19.6818H208.941V21.5909H205.344V23.0909H209.247V25H202.975ZM212.591 18.1818V16.2727H220.177V18.1818H217.552V25H215.216V18.1818H212.591ZM229.113 20.6364C229.113 21.608 228.924 22.4276 228.546 23.0952C228.168 23.7599 227.658 24.2642 227.016 24.608C226.374 24.9489 225.658 25.1193 224.868 25.1193C224.073 25.1193 223.354 24.9474 222.712 24.6037C222.073 24.2571 221.564 23.7514 221.187 23.0866C220.812 22.419 220.624 21.6023 220.624 20.6364C220.624 19.6648 220.812 18.8466 221.187 18.1818C221.564 17.5142 222.073 17.0099 222.712 16.669C223.354 16.3253 224.073 16.1534 224.868 16.1534C225.658 16.1534 226.374 16.3253 227.016 16.669C227.658 17.0099 228.168 17.5142 228.546 18.1818C228.924 18.8466 229.113 19.6648 229.113 20.6364ZM226.675 20.6364C226.675 20.1136 226.606 19.6733 226.466 19.3153C226.33 18.9545 226.127 18.6818 225.857 18.4972C225.59 18.3097 225.26 18.2159 224.868 18.2159C224.476 18.2159 224.145 18.3097 223.876 18.4972C223.608 18.6818 223.405 18.9545 223.266 19.3153C223.13 19.6733 223.062 20.1136 223.062 20.6364C223.062 21.1591 223.13 21.6009 223.266 21.9616C223.405 22.3196 223.608 22.5923 223.876 22.7798C224.145 22.9645 224.476 23.0568 224.868 23.0568C225.26 23.0568 225.59 22.9645 225.857 22.7798C226.127 22.5923 226.33 22.3196 226.466 21.9616C226.606 21.6009 226.675 21.1591 226.675 20.6364Z"/>
</mask>
<path d="M148.132 25L145.558 16.2727H148.2L149.393 21.642H149.461L150.876 16.2727H152.956L154.371 21.6591H154.439L155.632 16.2727H158.274L155.7 25H153.433L151.95 20.125H151.882L150.399 25H148.132ZM159.041 25V16.2727H165.331V18.1818H161.41V19.6818H165.007V21.5909H161.41V23.0909H165.314V25H159.041ZM166.506 25V16.2727H168.875V23.0909H172.404V25H166.506ZM181.169 19.5455H178.766C178.749 19.3466 178.703 19.1662 178.629 19.0043C178.558 18.8423 178.459 18.7031 178.331 18.5866C178.206 18.4673 178.054 18.3764 177.875 18.3139C177.696 18.2486 177.493 18.2159 177.266 18.2159C176.868 18.2159 176.531 18.3125 176.256 18.5057C175.983 18.6989 175.776 18.9759 175.634 19.3366C175.494 19.6974 175.425 20.1307 175.425 20.6364C175.425 21.1705 175.496 21.6179 175.638 21.9787C175.783 22.3366 175.992 22.6065 176.264 22.7884C176.537 22.9673 176.865 23.0568 177.249 23.0568C177.468 23.0568 177.664 23.0298 177.837 22.9759C178.01 22.919 178.161 22.8381 178.289 22.733C178.416 22.6278 178.52 22.5014 178.6 22.3537C178.682 22.2031 178.737 22.0341 178.766 21.8466L181.169 21.8636C181.141 22.233 181.037 22.6094 180.858 22.9929C180.679 23.3736 180.425 23.7259 180.095 24.0497C179.769 24.3707 179.364 24.6293 178.881 24.8253C178.398 25.0213 177.837 25.1193 177.198 25.1193C176.396 25.1193 175.678 24.9474 175.041 24.6037C174.408 24.2599 173.906 23.7543 173.537 23.0866C173.171 22.419 172.987 21.6023 172.987 20.6364C172.987 19.6648 173.175 18.8466 173.55 18.1818C173.925 17.5142 174.431 17.0099 175.067 16.669C175.703 16.3253 176.414 16.1534 177.198 16.1534C177.749 16.1534 178.256 16.2287 178.719 16.3793C179.182 16.5298 179.588 16.75 179.938 17.0398C180.287 17.3267 180.568 17.6804 180.781 18.1009C180.994 18.5213 181.124 19.0028 181.169 19.5455ZM190.699 20.6364C190.699 21.608 190.51 22.4276 190.132 23.0952C189.754 23.7599 189.244 24.2642 188.602 24.608C187.96 24.9489 187.244 25.1193 186.454 25.1193C185.659 25.1193 184.94 24.9474 184.298 24.6037C183.659 24.2571 183.15 23.7514 182.773 23.0866C182.398 22.419 182.21 21.6023 182.21 20.6364C182.21 19.6648 182.398 18.8466 182.773 18.1818C183.15 17.5142 183.659 17.0099 184.298 16.669C184.94 16.3253 185.659 16.1534 186.454 16.1534C187.244 16.1534 187.96 16.3253 188.602 16.669C189.244 17.0099 189.754 17.5142 190.132 18.1818C190.51 18.8466 190.699 19.6648 190.699 20.6364ZM188.261 20.6364C188.261 20.1136 188.192 19.6733 188.052 19.3153C187.916 18.9545 187.713 18.6818 187.443 18.4972C187.176 18.3097 186.846 18.2159 186.454 18.2159C186.062 18.2159 185.731 18.3097 185.461 18.4972C185.194 18.6818 184.991 18.9545 184.852 19.3153C184.716 19.6733 184.648 20.1136 184.648 20.6364C184.648 21.1591 184.716 21.6009 184.852 21.9616C184.991 22.3196 185.194 22.5923 185.461 22.7798C185.731 22.9645 186.062 23.0568 186.454 23.0568C186.846 23.0568 187.176 22.9645 187.443 22.7798C187.713 22.5923 187.916 22.3196 188.052 21.9616C188.192 21.6009 188.261 21.1591 188.261 20.6364ZM191.795 16.2727H194.744L196.772 21.2159H196.874L198.903 16.2727H201.852V25H199.534V19.9545H199.465L197.522 24.9318H196.124L194.181 19.9205H194.113V25H191.795V16.2727ZM202.975 25V16.2727H209.264V18.1818H205.344V19.6818H208.941V21.5909H205.344V23.0909H209.247V25H202.975ZM212.591 18.1818V16.2727H220.177V18.1818H217.552V25H215.216V18.1818H212.591ZM229.113 20.6364C229.113 21.608 228.924 22.4276 228.546 23.0952C228.168 23.7599 227.658 24.2642 227.016 24.608C226.374 24.9489 225.658 25.1193 224.868 25.1193C224.073 25.1193 223.354 24.9474 222.712 24.6037C222.073 24.2571 221.564 23.7514 221.187 23.0866C220.812 22.419 220.624 21.6023 220.624 20.6364C220.624 19.6648 220.812 18.8466 221.187 18.1818C221.564 17.5142 222.073 17.0099 222.712 16.669C223.354 16.3253 224.073 16.1534 224.868 16.1534C225.658 16.1534 226.374 16.3253 227.016 16.669C227.658 17.0099 228.168 17.5142 228.546 18.1818C228.924 18.8466 229.113 19.6648 229.113 20.6364ZM226.675 20.6364C226.675 20.1136 226.606 19.6733 226.466 19.3153C226.33 18.9545 226.127 18.6818 225.857 18.4972C225.59 18.3097 225.26 18.2159 224.868 18.2159C224.476 18.2159 224.145 18.3097 223.876 18.4972C223.608 18.6818 223.405 18.9545 223.266 19.3153C223.13 19.6733 223.062 20.1136 223.062 20.6364C223.062 21.1591 223.13 21.6009 223.266 21.9616C223.405 22.3196 223.608 22.5923 223.876 22.7798C224.145 22.9645 224.476 23.0568 224.868 23.0568C225.26 23.0568 225.59 22.9645 225.857 22.7798C226.127 22.5923 226.33 22.3196 226.466 21.9616C226.606 21.6009 226.675 21.1591 226.675 20.6364Z" fill="white"/>
<path d="M148.132 25L147.748 25.1131L147.833 25.4H148.132V25ZM145.558 16.2727V15.8727H145.023L145.174 16.3859L145.558 16.2727ZM148.2 16.2727L148.591 16.186L148.521 15.8727H148.2V16.2727ZM149.393 21.642L149.003 21.7288L149.072 22.042H149.393V21.642ZM149.461 21.642V22.042H149.77L149.848 21.744L149.461 21.642ZM150.876 16.2727V15.8727H150.568L150.489 16.1708L150.876 16.2727ZM152.956 16.2727L153.343 16.1711L153.264 15.8727H152.956V16.2727ZM154.371 21.6591L153.984 21.7607L154.062 22.0591H154.371V21.6591ZM154.439 21.6591V22.0591H154.76L154.829 21.7456L154.439 21.6591ZM155.632 16.2727V15.8727H155.311L155.241 16.1862L155.632 16.2727ZM158.274 16.2727L158.658 16.3859L158.809 15.8727H158.274V16.2727ZM155.7 25V25.4H155.999L156.084 25.1131L155.7 25ZM153.433 25L153.05 25.1164L153.137 25.4H153.433V25ZM151.95 20.125L152.333 20.0086L152.247 19.725H151.95V20.125ZM151.882 20.125V19.725H151.586L151.499 20.0086L151.882 20.125ZM150.399 25V25.4H150.695L150.782 25.1164L150.399 25ZM148.516 24.8868L145.942 16.1596L145.174 16.3859L147.748 25.1131L148.516 24.8868ZM145.558 16.6727H148.2V15.8727H145.558V16.6727ZM147.81 16.3595L149.003 21.7288L149.784 21.5553L148.591 16.186L147.81 16.3595ZM149.393 22.042H149.461V21.242H149.393V22.042ZM149.848 21.744L151.263 16.3746L150.489 16.1708L149.075 21.5401L149.848 21.744ZM150.876 16.6727H152.956V15.8727H150.876V16.6727ZM152.569 16.3743L153.984 21.7607L154.757 21.5575L153.343 16.1711L152.569 16.3743ZM154.371 22.0591H154.439V21.2591H154.371V22.0591ZM154.829 21.7456L156.022 16.3592L155.241 16.1862L154.048 21.5726L154.829 21.7456ZM155.632 16.6727H158.274V15.8727H155.632V16.6727ZM157.89 16.1596L155.316 24.8868L156.084 25.1131L158.658 16.3859L157.89 16.1596ZM155.7 24.6H153.433V25.4H155.7V24.6ZM153.816 24.8836L152.333 20.0086L151.567 20.2414L153.05 25.1164L153.816 24.8836ZM151.95 19.725H151.882V20.525H151.95V19.725ZM151.499 20.0086L150.016 24.8836L150.782 25.1164L152.265 20.2414L151.499 20.0086ZM150.399 24.6H148.132V25.4H150.399V24.6ZM159.041 25H158.641V25.4H159.041V25ZM159.041 16.2727V15.8727H158.641V16.2727H159.041ZM165.331 16.2727H165.731V15.8727H165.331V16.2727ZM165.331 18.1818V18.5818H165.731V18.1818H165.331ZM161.41 18.1818V17.7818H161.01V18.1818H161.41ZM161.41 19.6818H161.01V20.0818H161.41V19.6818ZM165.007 19.6818H165.407V19.2818H165.007V19.6818ZM165.007 21.5909V21.9909H165.407V21.5909H165.007ZM161.41 21.5909V21.1909H161.01V21.5909H161.41ZM161.41 23.0909H161.01V23.4909H161.41V23.0909ZM165.314 23.0909H165.714V22.6909H165.314V23.0909ZM165.314 25V25.4H165.714V25H165.314ZM159.441 25V16.2727H158.641V25H159.441ZM159.041 16.6727H165.331V15.8727H159.041V16.6727ZM164.931 16.2727V18.1818H165.731V16.2727H164.931ZM165.331 17.7818H161.41V18.5818H165.331V17.7818ZM161.01 18.1818V19.6818H161.81V18.1818H161.01ZM161.41 20.0818H165.007V19.2818H161.41V20.0818ZM164.607 19.6818V21.5909H165.407V19.6818H164.607ZM165.007 21.1909H161.41V21.9909H165.007V21.1909ZM161.01 21.5909V23.0909H161.81V21.5909H161.01ZM161.41 23.4909H165.314V22.6909H161.41V23.4909ZM164.914 23.0909V25H165.714V23.0909H164.914ZM165.314 24.6H159.041V25.4H165.314V24.6ZM166.506 25H166.106V25.4H166.506V25ZM166.506 16.2727V15.8727H166.106V16.2727H166.506ZM168.875 16.2727H169.275V15.8727H168.875V16.2727ZM168.875 23.0909H168.475V23.4909H168.875V23.0909ZM172.404 23.0909H172.804V22.6909H172.404V23.0909ZM172.404 25V25.4H172.804V25H172.404ZM166.906 25V16.2727H166.106V25H166.906ZM166.506 16.6727H168.875V15.8727H166.506V16.6727ZM168.475 16.2727V23.0909H169.275V16.2727H168.475ZM168.875 23.4909H172.404V22.6909H168.875V23.4909ZM172.004 23.0909V25H172.804V23.0909H172.004ZM172.404 24.6H166.506V25.4H172.404V24.6ZM181.169 19.5455V19.9455H181.604L181.568 19.5121L181.169 19.5455ZM178.766 19.5455L178.367 19.5796L178.399 19.9455H178.766V19.5455ZM178.629 19.0043L178.263 19.1649L178.266 19.1703L178.629 19.0043ZM178.331 18.5866L178.055 18.8761L178.062 18.8823L178.331 18.5866ZM177.875 18.3139L177.738 18.6897L177.743 18.6916L177.875 18.3139ZM176.256 18.5057L176.026 18.1781L176.025 18.1793L176.256 18.5057ZM175.634 19.3366L175.261 19.1901L175.261 19.1927L175.634 19.3366ZM175.638 21.9787L175.266 22.1252L175.267 22.1288L175.638 21.9787ZM176.264 22.7884L176.042 23.1212L176.045 23.1228L176.264 22.7884ZM177.837 22.9759L177.956 23.3578L177.961 23.3559L177.837 22.9759ZM178.289 22.733L178.543 23.0419L178.289 22.733ZM178.6 22.3537L178.249 22.1617L178.247 22.1641L178.6 22.3537ZM178.766 21.8466L178.769 21.4466L178.422 21.4441L178.37 21.7867L178.766 21.8466ZM181.169 21.8636L181.568 21.8943L181.601 21.4667L181.172 21.4636L181.169 21.8636ZM180.858 22.9929L181.22 23.1631L181.221 23.1621L180.858 22.9929ZM180.095 24.0497L180.376 24.335L180.376 24.335L180.095 24.0497ZM175.041 24.6037L174.851 24.9553L174.851 24.9556L175.041 24.6037ZM173.537 23.0866L173.186 23.2791L173.187 23.2803L173.537 23.0866ZM173.55 18.1818L173.898 18.3783L173.899 18.3777L173.55 18.1818ZM175.067 16.669L175.256 17.0216L175.257 17.021L175.067 16.669ZM178.719 16.3793L178.843 15.9989L178.719 16.3793ZM179.938 17.0398L179.682 17.3477L179.684 17.3489L179.938 17.0398ZM180.781 18.1009L180.425 18.2817V18.2817L180.781 18.1009ZM181.169 19.1455H178.766V19.9455H181.169V19.1455ZM179.164 19.5113C179.144 19.2723 179.088 19.0466 178.993 18.8383L178.266 19.1703C178.318 19.2858 178.354 19.4209 178.367 19.5796L179.164 19.5113ZM178.996 18.8436C178.903 18.6316 178.771 18.446 178.601 18.291L178.062 18.8823C178.147 18.9602 178.214 19.0531 178.263 19.1649L178.996 18.8436ZM178.607 18.2973C178.437 18.1349 178.235 18.0157 178.007 17.9363L177.743 18.6916C177.874 18.7371 177.975 18.7997 178.055 18.876L178.607 18.2973ZM178.012 17.9382C177.782 17.854 177.531 17.8159 177.266 17.8159V18.6159C177.455 18.6159 177.611 18.6431 177.738 18.6897L178.012 17.9382ZM177.266 17.8159C176.801 17.8159 176.381 17.9297 176.026 18.1781L176.485 18.8332C176.682 18.6953 176.935 18.6159 177.266 18.6159V17.8159ZM176.025 18.1793C175.679 18.4243 175.427 18.7688 175.262 19.1901L176.006 19.4832C176.124 19.1829 176.287 18.9735 176.487 18.8321L176.025 18.1793ZM175.261 19.1927C175.099 19.6111 175.025 20.0958 175.025 20.6364H175.825C175.825 20.1656 175.89 19.7838 176.007 19.4806L175.261 19.1927ZM175.025 20.6364C175.025 21.203 175.1 21.7038 175.266 22.1252L176.01 21.8322C175.892 21.532 175.825 21.1379 175.825 20.6364H175.025ZM175.267 22.1288C175.437 22.5476 175.692 22.8873 176.043 23.1212L176.486 22.4555C176.292 22.3258 176.129 22.1257 176.009 21.8286L175.267 22.1288ZM176.045 23.1228C176.394 23.3516 176.801 23.4568 177.249 23.4568V22.6568C176.929 22.6568 176.681 22.5831 176.484 22.4539L176.045 23.1228ZM177.249 23.4568C177.5 23.4568 177.737 23.4259 177.956 23.3578L177.718 22.5939C177.59 22.6338 177.435 22.6568 177.249 22.6568V23.4568ZM177.961 23.3559C178.177 23.2852 178.373 23.1816 178.543 23.0419L178.034 22.424C177.949 22.4945 177.843 22.5528 177.712 22.5958L177.961 23.3559ZM178.543 23.0419C178.711 22.9033 178.848 22.7362 178.952 22.5433L178.247 22.1641C178.192 22.2666 178.122 22.3524 178.034 22.424L178.543 23.0419ZM178.951 22.5457C179.058 22.35 179.127 22.1355 179.161 21.9065L178.37 21.7867C178.348 21.9327 178.306 22.0563 178.249 22.1617L178.951 22.5457ZM178.763 22.2466L181.166 22.2636L181.172 21.4636L178.769 21.4466L178.763 22.2466ZM180.77 21.833C180.746 22.148 180.657 22.4777 180.496 22.8237L181.221 23.1621C181.417 22.7411 181.535 22.3179 181.568 21.8943L180.77 21.833ZM180.496 22.8227C180.339 23.1565 180.114 23.4705 179.815 23.7644L180.376 24.335C180.736 23.9812 181.019 23.5907 181.22 23.1631L180.496 22.8227ZM179.815 23.7644C179.53 24.0441 179.172 24.2756 178.73 24.4546L179.031 25.1959C179.556 24.9829 180.007 24.6974 180.376 24.335L179.815 23.7644ZM178.73 24.4546C178.305 24.6274 177.797 24.7193 177.198 24.7193V25.5193C177.877 25.5193 178.491 25.4152 179.031 25.1959L178.73 24.4546ZM177.198 24.7193C176.456 24.7193 175.803 24.5607 175.231 24.2518L174.851 24.9556C175.552 25.3342 176.337 25.5193 177.198 25.5193V24.7193ZM175.232 24.2521C174.67 23.9469 174.222 23.498 173.887 22.893L173.187 23.2803C173.591 24.0106 174.146 24.573 174.851 24.9553L175.232 24.2521ZM173.888 22.8942C173.561 22.2993 173.387 21.5527 173.387 20.6364H172.587C172.587 21.6519 172.78 22.5388 173.186 23.2791L173.888 22.8942ZM173.387 20.6364C173.387 19.7152 173.565 18.9689 173.898 18.3783L173.202 17.9853C172.785 18.7243 172.587 19.6143 172.587 20.6364H173.387ZM173.899 18.3777C174.239 17.7723 174.691 17.3244 175.256 17.0216L174.878 16.3164C174.17 16.6955 173.611 17.2561 173.201 17.9859L173.899 18.3777ZM175.257 17.021C175.83 16.7114 176.474 16.5534 177.198 16.5534V15.7534C176.353 15.7534 175.576 15.9392 174.877 16.3171L175.257 17.021ZM177.198 16.5534C177.712 16.5534 178.177 16.6237 178.595 16.7597L178.843 15.9989C178.335 15.8337 177.785 15.7534 177.198 15.7534V16.5534ZM178.595 16.7597C179.014 16.8957 179.375 17.0925 179.682 17.3477L180.193 16.7319C179.802 16.4075 179.35 16.1639 178.843 15.9989L178.595 16.7597ZM179.684 17.3489C179.989 17.5992 180.236 17.9085 180.425 18.2817L181.138 17.92C180.901 17.4523 180.586 17.0542 180.192 16.7306L179.684 17.3489ZM180.425 18.2817C180.611 18.6496 180.729 19.0797 180.771 19.5788L181.568 19.5121C181.519 18.926 181.378 18.393 181.138 17.92L180.425 18.2817ZM190.132 23.0952L190.48 23.2928L190.48 23.2922L190.132 23.0952ZM188.602 24.608L188.79 24.9612L188.791 24.9606L188.602 24.608ZM184.298 24.6037L184.107 24.9553L184.109 24.9563L184.298 24.6037ZM182.773 23.0866L182.424 23.2825L182.425 23.2843L182.773 23.0866ZM182.773 18.1818L182.424 17.9848L182.424 17.9853L182.773 18.1818ZM184.298 16.669L184.486 17.022L184.487 17.0217L184.298 16.669ZM188.602 16.669L188.413 17.0217L188.415 17.0223L188.602 16.669ZM190.132 18.1818L189.784 18.3788L189.784 18.3795L190.132 18.1818ZM188.052 19.3153L187.678 19.4568L187.68 19.4603L188.052 19.3153ZM187.443 18.4972L187.213 18.8245L187.217 18.8273L187.443 18.4972ZM185.461 18.4972L185.689 18.8262L185.69 18.8257L185.461 18.4972ZM184.852 19.3153L184.479 19.1714L184.478 19.1729L184.852 19.3153ZM184.852 21.9616L184.478 22.1031L184.479 22.1066L184.852 21.9616ZM185.461 22.7798L185.232 23.1072L185.236 23.11L185.461 22.7798ZM187.443 22.7798L187.671 23.1088L187.671 23.1083L187.443 22.7798ZM188.052 21.9616L187.679 21.8177L187.679 21.8192L188.052 21.9616ZM190.299 20.6364C190.299 21.557 190.12 22.3046 189.784 22.8982L190.48 23.2922C190.9 22.5505 191.099 21.6589 191.099 20.6364H190.299ZM189.784 22.8975C189.442 23.5001 188.985 23.949 188.413 24.2553L188.791 24.9606C189.503 24.5794 190.066 24.0198 190.48 23.2928L189.784 22.8975ZM188.415 24.2547C187.835 24.5623 187.185 24.7193 186.454 24.7193V25.5193C187.304 25.5193 188.085 25.3354 188.79 24.9612L188.415 24.2547ZM186.454 24.7193C185.719 24.7193 185.066 24.5609 184.487 24.2511L184.109 24.9563C184.815 25.334 185.599 25.5193 186.454 25.5193V24.7193ZM184.489 24.2521C183.919 23.943 183.463 23.4923 183.12 22.889L182.425 23.2843C182.838 24.0106 183.399 24.5712 184.107 24.9553L184.489 24.2521ZM183.121 22.8908C182.788 22.2967 182.61 21.5513 182.61 20.6364H181.81C181.81 21.6533 182.008 22.5414 182.424 23.2825L183.121 22.8908ZM182.61 20.6364C182.61 19.7152 182.788 18.9689 183.121 18.3783L182.424 17.9853C182.007 18.7243 181.81 19.6143 181.81 20.6364H182.61ZM183.121 18.3788C183.463 17.7732 183.918 17.325 184.486 17.022L184.11 16.3161C183.4 16.6949 182.837 17.2552 182.424 17.9848L183.121 18.3788ZM184.487 17.0217C185.066 16.7118 185.719 16.5534 186.454 16.5534V15.7534C185.599 15.7534 184.815 15.9387 184.109 16.3164L184.487 17.0217ZM186.454 16.5534C187.184 16.5534 187.834 16.7116 188.413 17.0217L188.791 16.3164C188.086 15.939 187.304 15.7534 186.454 15.7534V16.5534ZM188.415 17.0223C188.985 17.3255 189.441 17.7737 189.784 18.3788L190.48 17.9848C190.067 17.2547 189.503 16.6944 188.79 16.3157L188.415 17.0223ZM189.784 18.3795C190.12 18.9698 190.299 19.7157 190.299 20.6364H191.099C191.099 19.6139 190.9 18.7234 190.48 17.9842L189.784 18.3795ZM188.661 20.6364C188.661 20.0808 188.588 19.5879 188.425 19.1704L187.68 19.4603C187.796 19.7587 187.861 20.1465 187.861 20.6364H188.661ZM188.427 19.1739C188.267 18.7506 188.018 18.4058 187.669 18.167L187.217 18.8273C187.408 18.9579 187.565 19.1585 187.678 19.4568L188.427 19.1739ZM187.673 18.1698C187.326 17.9262 186.912 17.8159 186.454 17.8159V18.6159C186.781 18.6159 187.026 18.6932 187.213 18.8245L187.673 18.1698ZM186.454 17.8159C185.997 17.8159 185.582 17.9262 185.233 18.1687L185.69 18.8257C185.88 18.6931 186.128 18.6159 186.454 18.6159V17.8159ZM185.234 18.1682C184.889 18.4066 184.641 18.7503 184.479 19.1714L185.225 19.4593C185.341 19.1588 185.5 18.957 185.689 18.8262L185.234 18.1682ZM184.478 19.1729C184.32 19.5896 184.248 20.0815 184.248 20.6364H185.048C185.048 20.1457 185.112 19.7569 185.226 19.4577L184.478 19.1729ZM184.248 20.6364C184.248 21.1913 184.32 21.6842 184.478 22.1031L185.226 21.8202C185.112 21.5175 185.048 21.1268 185.048 20.6364H184.248ZM184.479 22.1066C184.642 22.5249 184.889 22.8668 185.232 23.1072L185.691 22.4525C185.5 22.3179 185.341 22.1144 185.225 21.8167L184.479 22.1066ZM185.236 23.11C185.584 23.3485 185.998 23.4568 186.454 23.4568V22.6568C186.127 22.6568 185.878 22.5804 185.687 22.4497L185.236 23.11ZM186.454 23.4568C186.911 23.4568 187.324 23.3486 187.671 23.1088L187.215 22.4508C187.028 22.5804 186.782 22.6568 186.454 22.6568V23.4568ZM187.671 23.1083C188.018 22.8676 188.266 22.5245 188.426 22.104L187.679 21.8192C187.566 22.1147 187.408 22.317 187.215 22.4513L187.671 23.1083ZM188.426 22.1056C188.588 21.6859 188.661 21.1921 188.661 20.6364H187.861C187.861 21.1261 187.796 21.5158 187.679 21.8177L188.426 22.1056ZM191.795 16.2727V15.8727H191.395V16.2727H191.795ZM194.744 16.2727L195.114 16.1209L195.012 15.8727H194.744V16.2727ZM196.772 21.2159L196.402 21.3678L196.504 21.6159H196.772V21.2159ZM196.874 21.2159V21.6159H197.143L197.245 21.3678L196.874 21.2159ZM198.903 16.2727V15.8727H198.635L198.533 16.1209L198.903 16.2727ZM201.852 16.2727H202.252V15.8727H201.852V16.2727ZM201.852 25V25.4H202.252V25H201.852ZM199.534 25H199.134V25.4H199.534V25ZM199.534 19.9545H199.934V19.5545H199.534V19.9545ZM199.465 19.9545V19.5545H199.192L199.093 19.8091L199.465 19.9545ZM197.522 24.9318V25.3318H197.795L197.895 25.0773L197.522 24.9318ZM196.124 24.9318L195.752 25.0764L195.851 25.3318H196.124V24.9318ZM194.181 19.9205L194.554 19.7758L194.455 19.5205H194.181V19.9205ZM194.113 19.9205V19.5205H193.713V19.9205H194.113ZM194.113 25V25.4H194.513V25H194.113ZM191.795 25H191.395V25.4H191.795V25ZM191.795 16.6727H194.744V15.8727H191.795V16.6727ZM194.374 16.4246L196.402 21.3678L197.142 21.0641L195.114 16.1209L194.374 16.4246ZM196.772 21.6159H196.874V20.8159H196.772V21.6159ZM197.245 21.3678L199.273 16.4246L198.533 16.1209L196.504 21.0641L197.245 21.3678ZM198.903 16.6727H201.852V15.8727H198.903V16.6727ZM201.452 16.2727V25H202.252V16.2727H201.452ZM201.852 24.6H199.534V25.4H201.852V24.6ZM199.934 25V19.9545H199.134V25H199.934ZM199.534 19.5545H199.465V20.3545H199.534V19.5545ZM199.093 19.8091L197.15 24.7863L197.895 25.0773L199.838 20.1L199.093 19.8091ZM197.522 24.5318H196.124V25.3318H197.522V24.5318ZM196.497 24.7872L194.554 19.7758L193.808 20.0651L195.752 25.0764L196.497 24.7872ZM194.181 19.5205H194.113V20.3205H194.181V19.5205ZM193.713 19.9205V25H194.513V19.9205H193.713ZM194.113 24.6H191.795V25.4H194.113V24.6ZM192.195 25V16.2727H191.395V25H192.195ZM202.975 25H202.575V25.4H202.975V25ZM202.975 16.2727V15.8727H202.575V16.2727H202.975ZM209.264 16.2727H209.664V15.8727H209.264V16.2727ZM209.264 18.1818V18.5818H209.664V18.1818H209.264ZM205.344 18.1818V17.7818H204.944V18.1818H205.344ZM205.344 19.6818H204.944V20.0818H205.344V19.6818ZM208.941 19.6818H209.341V19.2818H208.941V19.6818ZM208.941 21.5909V21.9909H209.341V21.5909H208.941ZM205.344 21.5909V21.1909H204.944V21.5909H205.344ZM205.344 23.0909H204.944V23.4909H205.344V23.0909ZM209.247 23.0909H209.647V22.6909H209.247V23.0909ZM209.247 25V25.4H209.647V25H209.247ZM203.375 25V16.2727H202.575V25H203.375ZM202.975 16.6727H209.264V15.8727H202.975V16.6727ZM208.864 16.2727V18.1818H209.664V16.2727H208.864ZM209.264 17.7818H205.344V18.5818H209.264V17.7818ZM204.944 18.1818V19.6818H205.744V18.1818H204.944ZM205.344 20.0818H208.941V19.2818H205.344V20.0818ZM208.541 19.6818V21.5909H209.341V19.6818H208.541ZM208.941 21.1909H205.344V21.9909H208.941V21.1909ZM204.944 21.5909V23.0909H205.744V21.5909H204.944ZM205.344 23.4909H209.247V22.6909H205.344V23.4909ZM208.847 23.0909V25H209.647V23.0909H208.847ZM209.247 24.6H202.975V25.4H209.247V24.6ZM212.591 18.1818H212.191V18.5818H212.591V18.1818ZM212.591 16.2727V15.8727H212.191V16.2727H212.591ZM220.177 16.2727H220.577V15.8727H220.177V16.2727ZM220.177 18.1818V18.5818H220.577V18.1818H220.177ZM217.552 18.1818V17.7818H217.152V18.1818H217.552ZM217.552 25V25.4H217.952V25H217.552ZM215.216 25H214.816V25.4H215.216V25ZM215.216 18.1818H215.616V17.7818H215.216V18.1818ZM212.991 18.1818V16.2727H212.191V18.1818H212.991ZM212.591 16.6727H220.177V15.8727H212.591V16.6727ZM219.777 16.2727V18.1818H220.577V16.2727H219.777ZM220.177 17.7818H217.552V18.5818H220.177V17.7818ZM217.152 18.1818V25H217.952V18.1818H217.152ZM217.552 24.6H215.216V25.4H217.552V24.6ZM215.616 25V18.1818H214.816V25H215.616ZM215.216 17.7818H212.591V18.5818H215.216V17.7818ZM228.546 23.0952L228.894 23.2928L228.894 23.2922L228.546 23.0952ZM227.016 24.608L227.204 24.9612L227.205 24.9606L227.016 24.608ZM222.712 24.6037L222.522 24.9553L222.523 24.9563L222.712 24.6037ZM221.187 23.0866L220.838 23.2825L220.839 23.2843L221.187 23.0866ZM221.187 18.1818L220.838 17.9848L220.838 17.9853L221.187 18.1818ZM222.712 16.669L222.9 17.022L222.901 17.0217L222.712 16.669ZM227.016 16.669L226.827 17.0217L226.829 17.0223L227.016 16.669ZM228.546 18.1818L228.198 18.3788L228.198 18.3795L228.546 18.1818ZM226.466 19.3153L226.092 19.4568L226.094 19.4603L226.466 19.3153ZM225.857 18.4972L225.627 18.8245L225.631 18.8273L225.857 18.4972ZM223.876 18.4972L224.103 18.8262L224.104 18.8257L223.876 18.4972ZM223.266 19.3153L222.893 19.1714L222.892 19.1729L223.266 19.3153ZM223.266 21.9616L222.892 22.1031L222.893 22.1066L223.266 21.9616ZM223.876 22.7798L223.646 23.1072L223.65 23.11L223.876 22.7798ZM225.857 22.7798L226.085 23.1088L226.085 23.1083L225.857 22.7798ZM226.466 21.9616L226.093 21.8177L226.093 21.8192L226.466 21.9616ZM228.713 20.6364C228.713 21.557 228.534 22.3046 228.198 22.8982L228.894 23.2922C229.314 22.5505 229.513 21.6589 229.513 20.6364H228.713ZM228.198 22.8975C227.856 23.5001 227.399 23.949 226.827 24.2553L227.205 24.9606C227.917 24.5794 228.481 24.0198 228.894 23.2928L228.198 22.8975ZM226.829 24.2547C226.249 24.5623 225.599 24.7193 224.868 24.7193V25.5193C225.718 25.5193 226.499 25.3354 227.204 24.9612L226.829 24.2547ZM224.868 24.7193C224.133 24.7193 223.48 24.5609 222.901 24.2511L222.523 24.9563C223.229 25.334 224.013 25.5193 224.868 25.5193V24.7193ZM222.903 24.2521C222.333 23.943 221.877 23.4923 221.534 22.889L220.839 23.2843C221.252 24.0106 221.813 24.5712 222.522 24.9553L222.903 24.2521ZM221.535 22.8908C221.202 22.2967 221.024 21.5513 221.024 20.6364H220.224C220.224 21.6533 220.422 22.5414 220.838 23.2825L221.535 22.8908ZM221.024 20.6364C221.024 19.7152 221.202 18.9689 221.535 18.3783L220.838 17.9853C220.421 18.7243 220.224 19.6143 220.224 20.6364H221.024ZM221.535 18.3788C221.877 17.7732 222.332 17.325 222.9 17.022L222.524 16.3161C221.814 16.6949 221.251 17.2552 220.839 17.9848L221.535 18.3788ZM222.901 17.0217C223.48 16.7118 224.133 16.5534 224.868 16.5534V15.7534C224.013 15.7534 223.229 15.9387 222.523 16.3164L222.901 17.0217ZM224.868 16.5534C225.598 16.5534 226.248 16.7116 226.827 17.0217L227.205 16.3164C226.5 15.939 225.718 15.7534 224.868 15.7534V16.5534ZM226.829 17.0223C227.4 17.3255 227.855 17.7737 228.198 18.3788L228.894 17.9848C228.481 17.2547 227.917 16.6944 227.204 16.3157L226.829 17.0223ZM228.198 18.3795C228.534 18.9698 228.713 19.7157 228.713 20.6364H229.513C229.513 19.6139 229.314 18.7234 228.894 17.9842L228.198 18.3795ZM227.075 20.6364C227.075 20.0808 227.002 19.5879 226.839 19.1704L226.094 19.4603C226.21 19.7587 226.275 20.1465 226.275 20.6364H227.075ZM226.841 19.1739C226.681 18.7506 226.432 18.4058 226.083 18.167L225.631 18.8273C225.822 18.9579 225.98 19.1585 226.092 19.4568L226.841 19.1739ZM226.087 18.1698C225.74 17.9262 225.326 17.8159 224.868 17.8159V18.6159C225.195 18.6159 225.44 18.6932 225.627 18.8245L226.087 18.1698ZM224.868 17.8159C224.411 17.8159 223.996 17.9262 223.647 18.1687L224.104 18.8257C224.295 18.6931 224.542 18.6159 224.868 18.6159V17.8159ZM223.648 18.1682C223.303 18.4066 223.055 18.7503 222.893 19.1714L223.639 19.4593C223.755 19.1588 223.914 18.957 224.103 18.8262L223.648 18.1682ZM222.892 19.1729C222.734 19.5896 222.662 20.0815 222.662 20.6364H223.462C223.462 20.1457 223.526 19.7569 223.64 19.4577L222.892 19.1729ZM222.662 20.6364C222.662 21.1913 222.734 21.6842 222.892 22.1031L223.64 21.8202C223.526 21.5175 223.462 21.1268 223.462 20.6364H222.662ZM222.893 22.1066C223.056 22.5249 223.303 22.8668 223.646 23.1072L224.105 22.4525C223.914 22.3179 223.755 22.1144 223.639 21.8167L222.893 22.1066ZM223.65 23.11C223.998 23.3485 224.412 23.4568 224.868 23.4568V22.6568C224.541 22.6568 224.292 22.5804 224.101 22.4497L223.65 23.11ZM224.868 23.4568C225.325 23.4568 225.738 23.3486 226.085 23.1088L225.63 22.4508C225.442 22.5804 225.196 22.6568 224.868 22.6568V23.4568ZM226.085 23.1083C226.432 22.8676 226.68 22.5245 226.84 22.104L226.093 21.8192C225.98 22.1147 225.822 22.317 225.629 22.4513L226.085 23.1083ZM226.84 22.1056C227.002 21.6859 227.075 21.1921 227.075 20.6364H226.275C226.275 21.1261 226.21 21.5158 226.093 21.8177L226.84 22.1056Z" fill="#3B3B3B" mask="url(#path-24-outside-1_48_2063)"/>
</g>
</g>
<defs>
<filter id="filter0_dd_48_2063" x="144.023" y="15.4534" width="86.4897" height="11.7659" filterUnits="userSpaceOnUse" color-interpolation-filters="sRGB">
<feFlood flood-opacity="0" result="BackgroundImageFix"/>
<feColorMatrix in="SourceAlpha" type="matrix" values="0 0 0 0 0 0 0 0 0 0 0 0 0 0 0 0 0 0 127 0" result="hardAlpha"/>
<feOffset dy="0.5"/>
<feComposite in2="hardAlpha" operator="out"/>
<feColorMatrix type="matrix" values="0 0 0 0 0 0 0 0 0 0 0 0 0 0 0 0 0 0 1 0"/>
<feBlend mode="normal" in2="BackgroundImageFix" result="effect1_dropShadow_48_2063"/>
<feColorMatrix in="SourceAlpha" type="matrix" values="0 0 0 0 0 0 0 0 0 0 0 0 0 0 0 0 0 0 127 0" result="hardAlpha"/>
<feOffset dy="0.7"/>
<feGaussianBlur stdDeviation="0.5"/>
<feComposite in2="hardAlpha" operator="out"/>
<feColorMatrix type="matrix" values="0 0 0 0 0 0 0 0 0 0 0 0 0 0 0 0 0 0 0.8 0"/>
<feBlend mode="normal" in2="effect1_dropShadow_48_2063" result="effect2_dropShadow_48_2063"/>
<feBlend mode="normal" in="SourceGraphic" in2="effect2_dropShadow_48_2063" result="shape"/>
</filter>
<radialGradient id="paint0_radial_48_2063" cx="0" cy="0" r="1" gradientUnits="userSpaceOnUse" gradientTransform="translate(187.5 122.5) rotate(90) scale(116.5 181.5)">
<stop stop-color="#046FFA"/>
<stop offset="1" stop-color="#0447BB"/>
</radialGradient>
<clipPath id="clip0_48_2063">
<rect width="375" height="245" fill="white"/>
</clipPath>
<clipPath id="clip1_48_2063">
<rect width="363" height="233" fill="white" transform="translate(6 6)"/>
</clipPath>
</defs>
</svg>
