<svg width="112" height="164" viewBox="0 0 112 164" fill="none" xmlns="http://www.w3.org/2000/svg">
<rect y="8" width="112" height="148" rx="10" fill="black" fill-opacity="0.1"/>
<rect x="3.5" y="0.5" width="105" height="163" rx="9.5" fill="#F2A327"/>
<rect x="3.5" y="0.5" width="105" height="163" rx="9.5" stroke="black"/>
<g style="mix-blend-mode:hard-light">
<rect x="67" y="1" width="10" height="162" fill="white" fill-opacity="0.2"/>
</g>
<g style="mix-blend-mode:hard-light">
<rect x="79" y="1" width="10" height="162" fill="white" fill-opacity="0.2"/>
</g>
<g clip-path="url(#clip0_78_19782)">
<rect x="10" y="7" width="92" height="150" rx="5" fill="#EFF8FD" stroke="#728EA2" stroke-width="2"/>
<g style="mix-blend-mode:multiply">
<path d="M9 128H103V152C103 155.314 100.314 158 97 158H15C11.6863 158 9 155.314 9 152V128Z" fill="url(#paint0_linear_78_19782)"/>
</g>
</g>
<path d="M13 6.5H99C100.933 6.5 102.5 8.067 102.5 10V28.3607C102.5 29.9733 101.398 31.3772 99.8318 31.7604L60.6346 41.3513C57.5898 42.0963 54.4102 42.0963 51.3654 41.3513L12.1682 31.7604C10.6018 31.3772 9.5 29.9733 9.5 28.3607V10C9.5 8.067 11.067 6.5 13 6.5Z" fill="#F2A327" stroke="black"/>
<path d="M10 10C10 8.34315 11.3431 7 13 7H99C100.657 7 102 8.34315 102 10V25.3769C102 27.2124 100.751 28.8123 98.9701 29.2575L60.8507 38.7873C57.6659 39.5835 54.3341 39.5835 51.1493 38.7873L13.0299 29.2575C11.2492 28.8123 10 27.2124 10 25.3769V10Z" fill="#F9D11F"/>
<path d="M13 7.5H99C100.381 7.5 101.5 8.61929 101.5 10V25.3769C101.5 26.9829 100.407 28.3829 98.8489 28.7724L60.7294 38.3023C57.6243 39.0785 54.3757 39.0785 51.2706 38.3022L13.1511 28.7724C11.593 28.3829 10.5 26.9829 10.5 25.3769V10C10.5 8.61929 11.6193 7.5 13 7.5Z" stroke="#C4C4C4" stroke-opacity="0.7" style="mix-blend-mode:hard-light"/>
<path style="mix-blend-mode:hard-light" fill-rule="evenodd" clip-rule="evenodd" d="M102 14.5429C90.8998 17.2901 75.2899 19 58 19C38.5173 19 21.1678 16.8289 10 13.4489V10C10 8.34315 11.3431 7 13 7H99C100.657 7 102 8.34315 102 10V14.5429Z" fill="#F5F5F5" fill-opacity="0.3"/>
<defs>
<linearGradient id="paint0_linear_78_19782" x1="9" y1="142.483" x2="103" y2="142.483" gradientUnits="userSpaceOnUse">
<stop stop-color="#BCCFDF"/>
<stop offset="0.255366" stop-color="#BCCFDF"/>
<stop offset="0.705248" stop-color="#BCCFDF" stop-opacity="0"/>
<stop offset="1" stop-color="#BCCFDF"/>
</linearGradient>
<clipPath id="clip0_78_19782">
<rect width="94" height="152" fill="white" transform="translate(9 6)"/>
</clipPath>
</defs>
</svg>
